<svg xmlns="http://www.w3.org/2000/svg" xmlns:xlink="http://www.w3.org/1999/xlink" width="30" height="30" viewBox="0 0 30 30"><defs><style>.a{fill:none;}.b{clip-path:url(#a);}.c{fill:#f7b239;}.d{fill:#e09b2d;}.e{fill:#fff;}</style><clipPath id="a"><rect class="a" width="30" height="30"/></clipPath></defs><g class="b"><ellipse class="c" cx="14.505" cy="14.505" rx="14.505" ry="14.505" transform="translate(0.495 0.496)"/><g transform="translate(0.495 3.274)"><path class="d" d="M16.1,79.737a14.639,14.639,0,0,1-1.245-19.284A14.636,14.636,0,1,0,35.38,80.982,14.639,14.639,0,0,1,16.1,79.737Z" transform="translate(-9.149 -60.453)"/><path class="d" d="M208.049,331.806h-4.625a.5.5,0,1,1,0-.991h4.625a.5.5,0,1,1,0,.991Z" transform="translate(-191.134 -314.725)"/></g><path d="M15,0A15,15,0,1,0,30,15,15.017,15.017,0,0,0,15,0Zm0,28.927A13.928,13.928,0,1,1,28.928,15,13.943,13.943,0,0,1,15,28.927Z" transform="translate(0)"/><path d="M142.239,296.658H129.62a.5.5,0,1,0,0,.991h12.618a.5.5,0,1,0,0-.991Z" transform="translate(-121.006 -279.227)"/><path d="M116.539,194.815a1.833,1.833,0,1,0-1.833,1.833A1.835,1.835,0,0,0,116.539,194.815Z" transform="translate(-106.183 -181.544)"/><path d="M333.256,192.982a1.833,1.833,0,1,0,1.833,1.833A1.835,1.835,0,0,0,333.256,192.982Z" transform="translate(-311.779 -181.544)"/><g transform="translate(9.163 12.374)"><ellipse class="e" cx="0.496" cy="0.496" rx="0.496" ry="0.496"/><ellipse class="e" cx="0.496" cy="0.496" rx="0.496" ry="0.496" transform="translate(11.826)"/></g></g></svg>