<svg xmlns="http://www.w3.org/2000/svg" xmlns:xlink="http://www.w3.org/1999/xlink" width="21.244" height="21.089" viewBox="0 0 21.244 21.089"><defs><style>.a{fill:none;}.b{clip-path:url(#a);}.c{fill:#3cbcb4;fill-rule:evenodd;}</style><clipPath id="a"><rect class="a" width="21.244" height="21.089"/></clipPath></defs><g class="b"><path class="c" d="M70.352,62.39l1.989,2.63,2.983-1.4.539,3.253,3.294.143-1.035,3.131L80.974,71.8,78.6,74.092l1.754,2.793-3.165.927.255,3.288-3.233-.65-1.3,3.03L70.352,81.4l-2.561,2.078-1.3-3.03-3.233.65.255-3.288-3.165-.927L62.1,74.092,59.73,71.8l2.851-1.658-1.035-3.131,3.294-.143.539-3.253,2.983,1.4,1.989-2.63Zm5.2,6.335-9.414,9.414-.995-.995,9.414-9.414Zm-6.328-.2a2.325,2.325,0,1,1-3.289,0A2.326,2.326,0,0,1,69.229,68.523Zm-1,1a.917.917,0,1,0,0,1.3A.914.914,0,0,0,68.233,69.519Zm6.53,4.537a2.325,2.325,0,1,1-3.289,0A2.326,2.326,0,0,1,74.762,74.057Zm-1,1a.917.917,0,1,0,0,1.3A.915.915,0,0,0,73.766,75.053Z" transform="translate(-59.73 -62.39)"/></g></svg>