<svg xmlns="http://www.w3.org/2000/svg" xmlns:xlink="http://www.w3.org/1999/xlink" width="18" height="16" viewBox="0 0 18 16"><defs><style>.a{fill:none;}.b{clip-path:url(#a);}.c{fill:#3cbcb4;}</style><clipPath id="a"><rect class="a" width="18" height="16"/></clipPath></defs><g class="b"><path class="c" d="M3.845,7.69A3.845,3.845,0,1,1,7.69,3.845,3.849,3.849,0,0,1,3.845,7.69ZM2.512,3.568a.4.4,0,0,0-.192.36.478.478,0,0,0,.042.21l1,.918a1.991,1.991,0,0,0,.249.192.506.506,0,0,0,.284.085.483.483,0,0,0,.4-.175.7.7,0,0,0,.135-.444l-.869-.588a1.125,1.125,0,0,0,.57-.333.955.955,0,0,0,.228-.544h.366a.3.3,0,0,0,.213-.081A.349.349,0,0,0,5.032,2.9.569.569,0,0,0,5,2.709a1.161,1.161,0,0,0-.063-.144H2.417a.3.3,0,0,0-.213.081.361.361,0,0,0-.087.274.589.589,0,0,0,.031.192.465.465,0,0,0,.066.138H3.328a.442.442,0,0,1-.462.319ZM2.417,1.6A.3.3,0,0,0,2.2,1.68a.352.352,0,0,0-.087.267.655.655,0,0,0,.1.336h2.52A.3.3,0,0,0,4.945,2.2a.363.363,0,0,0,.086-.273A.574.574,0,0,0,5,1.741.812.812,0,0,0,4.937,1.6Z" transform="translate(10.31 6.299)"/><path class="c" d="M19.06,18.632A4.565,4.565,0,0,1,23.6,14.041a4.481,4.481,0,0,1,2.8.986,5.057,5.057,0,0,0-8.44-5,5.021,5.021,0,0,0-7.16-.019,5.189,5.189,0,0,0,.151,7.417c2.434,2.462,6.327,6.4,7.009,7.093l2.523-2.554A4.6,4.6,0,0,1,19.06,18.632Z" transform="translate(-9.317 -8.522)"/></g></svg>