<svg xmlns="http://www.w3.org/2000/svg" xmlns:xlink="http://www.w3.org/1999/xlink" width="32.645" height="21.588" viewBox="0 0 32.645 21.588"><defs><style>.a{fill:url(#a);}.b{fill:url(#b);}.c{fill:url(#c);}.d{fill:url(#d);}.e{fill:url(#e);}.f{fill:url(#f);}.g{fill:url(#g);}.h{fill:url(#h);}.i{fill:url(#i);}.j{fill:url(#j);}</style><linearGradient id="a" x1="-0.105" y1="0.197" x2="1.901" y2="1.191" gradientUnits="objectBoundingBox"><stop offset="0" stop-color="#a2742a"/><stop offset="0.507" stop-color="#d5c05b"/><stop offset="1" stop-color="#826126"/></linearGradient><linearGradient id="b" x1="-1.241" y1="-0.392" x2="1.976" y2="1.302" xlink:href="#a"/><linearGradient id="c" x1="-2.425" y1="-0.252" x2="1.735" y2="0.815" xlink:href="#a"/><linearGradient id="d" x1="-2.041" y1="-0.376" x2="1.02" y2="0.678" xlink:href="#a"/><linearGradient id="e" x1="-0.713" y1="-0.224" x2="9.58" y2="5.926" xlink:href="#a"/><linearGradient id="f" x1="-1.427" y1="-0.587" x2="8.972" y2="5.286" xlink:href="#a"/><linearGradient id="g" x1="-6.636" y1="-1.637" x2="9.709" y2="3.311" xlink:href="#a"/><linearGradient id="h" x1="-4.662" y1="-2.416" x2="5.736" y2="3.458" xlink:href="#a"/><linearGradient id="i" x1="-3.191" y1="-1.649" x2="6.631" y2="4.083" xlink:href="#a"/><linearGradient id="j" x1="-1.214" y1="-1.168" x2="4.888" y2="4.916" xlink:href="#a"/></defs><g transform="translate(-45.355 -577.053)"><g transform="translate(45.355 577.053)"><path class="a" d="M1.059,98.3c.645.548.82.645,1.386.645,2.7,0,4.966-2.935,6.316-7.9a10.008,10.008,0,0,1-2.64,1.838A2.408,2.408,0,0,1,4.555,90.4c0-3.031,3.6-6.9,6.37-6.9a1.337,1.337,0,0,1,1.525,1.254,1.188,1.188,0,0,0-.548-.115c-1.874,0-5.786,4.809-5.786,7.214,0,.175.042.193.078.193.452,0,1.76-1.115,2.736-2.212a14.907,14.907,0,0,0,2.64-4.357,2.707,2.707,0,0,1,1.507.47c-.88,2.031-1.368,3.345-1.76,4.4-1.386,3.755-2.344,6.117-4.225,8.19a4.818,4.818,0,0,1-3.242,1.525A3.764,3.764,0,0,1,.8,98.712.617.617,0,0,1,1.059,98.3Z" transform="translate(-0.8 -78.474)"/><path class="b" d="M207.8,101.723a7.931,7.931,0,0,1,3.122-5.84,1.717,1.717,0,0,1,3.176.573c.115,0,.229-.018.344-.018.687,0,1.012.573,1.012,1.8a6.693,6.693,0,0,1-5.261,6.581C208.734,104.671,207.8,103.441,207.8,101.723Zm1.814.952c0,.615.247,1.284.5,1.356,2.278-.5,3.941-2.947,3.941-5.936a2.355,2.355,0,0,0-.247-1.284,5.439,5.439,0,0,0-2.64,1.971A7.829,7.829,0,0,0,209.614,102.676Z" transform="translate(-195.325 -89.375)"/><path class="c" d="M350.748,12.177A26.585,26.585,0,0,1,353.792,4.3a4.691,4.691,0,0,1,2,.886,22.045,22.045,0,0,0-3.447,7.642,21.078,21.078,0,0,0-.862,6.419,1.745,1.745,0,0,0,.066.488.783.783,0,0,1-.657-.265,1.69,1.69,0,0,0-.506-.446,2.3,2.3,0,0,1-.5-1.477A19.7,19.7,0,0,1,350.748,12.177Z" transform="translate(-328.835 -4.047)"/><path class="d" d="M415.235,7.416a11.856,11.856,0,0,0-1.724-6.147A2.823,2.823,0,0,1,415.259.1c1.254,1.555,1.892,4.791,1.718,7.256-.259,3.731-3.218,8.124-5.653,8.365a2.473,2.473,0,0,1-2.357-2.766c.169-2.465,2.827-6.105,4.677-6.425A2.831,2.831,0,0,1,415.235,7.416Zm-.018.838a2.28,2.28,0,0,0,.018-.518c-1.766.615-4.6,4.327-4.731,6.189A.9.9,0,0,0,411.24,15C412.951,14.522,415.024,11.045,415.217,8.254Z" transform="translate(-384.36 -0.1)"/><g transform="translate(6.455 0.108)"><path class="e" d="M3.22,11.4,1.677,13.212c.331,0,.97,0,1.338-.012a3.444,3.444,0,0,0-.115.476c-.331-.018-.591-.03-.988-.03-.38,0-.675.012-1.006.03L.9,13.362l1.591-1.91c-.482,0-.8.006-1.217.012A4.583,4.583,0,0,0,1.358,11c.362.012.494.018.934.018.422,0,.645-.006,1-.018Z" transform="translate(-0.9 -10.391)"/><path class="f" d="M41.794,13c-.687,0-.994-.494-.994-1.133A1.55,1.55,0,0,1,42.174,10.2c.687,0,.994.494.994,1.133A1.55,1.55,0,0,1,41.794,13Zm.066-.458c.458,0,.783-.518.783-1.169,0-.482-.175-.723-.548-.723-.458,0-.783.518-.783,1.169C41.312,12.309,41.493,12.544,41.861,12.544Z" transform="translate(-38.395 -9.64)"/><path class="g" d="M200.175,4.01a1.389,1.389,0,0,1-.7.217c-.38,0-.47-.241-.4-.735l.223-1.531H199l.1-.44h.283l.084-.392L199.958.9l-.1.621h.645l-.078.44H199.8l-.211,1.452c-.042.265-.018.362.175.362a1.2,1.2,0,0,0,.488-.163Z" transform="translate(-187.061 -0.9)"/><path class="h" d="M225.794,13c-.687,0-.994-.494-.994-1.133a1.55,1.55,0,0,1,1.374-1.669c.687,0,.994.494.994,1.133A1.546,1.546,0,0,1,225.794,13Zm.072-.458c.458,0,.783-.518.783-1.169,0-.482-.175-.723-.548-.723-.458,0-.784.518-.784,1.169C225.318,12.309,225.493,12.544,225.867,12.544Z" transform="translate(-211.306 -9.64)"/><path class="i" d="M152.36,11.479a.857.857,0,0,1,.223-.669,1.375,1.375,0,0,1,.934-.4,2.786,2.786,0,0,1,.844.066l.012-.06a.815.815,0,0,0,.018-.241c-.024-.319-.271-.488-.759-.452a2.346,2.346,0,0,0-.783.2l-.108-.386a2.69,2.69,0,0,1,.94-.241c.717-.054,1.139.229,1.181.759a1.23,1.23,0,0,1-.036.386l-.181,1.639-.518-.006.078-.458a1.19,1.19,0,0,1-.91.542A.8.8,0,0,1,152.36,11.479Zm1.9-.524.036-.175a2.421,2.421,0,0,0-.723-.048.825.825,0,0,0-.6.259.511.511,0,0,0-.133.4c.018.265.247.422.585.4C154,11.744,154.174,11.413,154.265,10.955Z" transform="translate(-143.23 -8.785)"/><path class="j" d="M86.6,9.8c-.4,0-.771.3-1.1.838.066-.464-.024-.838-.506-.838-.4,0-.765.3-1.1.838a2.489,2.489,0,0,0,.006-.808,2.436,2.436,0,0,1-.488.048,5.569,5.569,0,0,1-.054.97l-.1.681c-.054.337-.108.723-.163.97h.542c.006-.151.042-.38.072-.585l.1-.609c.139-.4.548-1.043.976-1.043.259,0,.235.235.133.922l-.048.35c-.054.337-.108.723-.163.97h.542c.006-.151.042-.38.072-.585l.1-.609c.145-.4.548-1.043.982-1.043.253,0,.247.223.187.585l-.078.53-.03.229c-.048.337-.108.645-.163.886h.542c.006-.151.042-.362.072-.567l.054-.38.133-.808C87.18,10.168,87.09,9.8,86.6,9.8Z" transform="translate(-78.146 -9.264)"/></g></g></g></svg>