<svg xmlns="http://www.w3.org/2000/svg" xmlns:xlink="http://www.w3.org/1999/xlink" width="199" height="202.392" viewBox="0 0 199 202.392"><defs><style>.a{opacity:0.3;}.b{fill:url(#a);}.c{fill:url(#b);}.d{fill:url(#c);}.e{fill:url(#d);}.f{fill:url(#e);}.g{fill:url(#f);}.h{fill:url(#g);}.i{fill:url(#h);}.j{fill:url(#i);}.k{fill:url(#j);}.l{fill:url(#k);}.m{fill:url(#l);}.n{fill:url(#m);}.o{fill:url(#n);}.p{fill:url(#o);}.q{fill:url(#p);}.r{fill:url(#q);}.s{fill:url(#r);}.t{fill:url(#s);}.u{fill:url(#t);}.v{fill:url(#u);}.w{fill:url(#v);}.x{fill:url(#w);}.y{fill:url(#x);}.z{fill:url(#y);}.aa{fill:url(#z);}.ab{fill:url(#aa);}.ac{fill:url(#ab);}.ad{fill:url(#ac);}.ae{fill:url(#ad);}.af{fill:url(#ae);}.ag{fill:url(#af);}.ah{fill:#ededed;}.ai{fill:#ffc380;}.aj{fill:#e29764;}.ak{fill:#fcede0;}.al{fill:#d3d3d3;}.am{fill:#fff;}.an{stroke:#fff;stroke-miterlimit:10;stroke-width:1.14px;}.ao{fill:url(#ag);}.ap{fill:url(#ah);}.aq{fill:url(#ai);}.ar{fill:url(#aj);}</style><linearGradient id="a" x1="0.003" y1="0.467" x2="1.005" y2="0.467" gradientUnits="objectBoundingBox"><stop offset="0" stop-color="#6ac9c8"/><stop offset="0.14" stop-color="#6cc9c4"/><stop offset="0.28" stop-color="#72cab8"/><stop offset="0.42" stop-color="#7bcca3"/><stop offset="0.57" stop-color="#88cf86"/><stop offset="0.71" stop-color="#99d261"/><stop offset="0.86" stop-color="#aed634"/><stop offset="1" stop-color="#c6da00"/><stop offset="1" stop-color="#d7df23"/></linearGradient><linearGradient id="b" x1="0.018" y1="0.474" x2="1.013" y2="0.474" xlink:href="#a"/><linearGradient id="c" x1="-0.023" y1="0.479" x2="0.977" y2="0.479" gradientUnits="objectBoundingBox"><stop offset="0" stop-color="#ff77ad"/><stop offset="1" stop-color="#9a559f"/></linearGradient><linearGradient id="d" x1="-0.012" y1="0.445" x2="0.988" y2="0.445" gradientUnits="objectBoundingBox"><stop offset="0" stop-color="#ed1846"/><stop offset="0.1" stop-color="#ed204c"/><stop offset="0.24" stop-color="#ee365b"/><stop offset="0.43" stop-color="#ef5a75"/><stop offset="0.64" stop-color="#f08c99"/><stop offset="0.87" stop-color="#f1cbc6"/><stop offset="1" stop-color="#f2f2e2"/></linearGradient><linearGradient id="e" x1="-0.024" y1="0.478" x2="0.98" y2="0.478" xlink:href="#a"/><linearGradient id="f" x1="0.003" y1="0.482" x2="0.999" y2="0.482" xlink:href="#a"/><linearGradient id="g" x1="-0.018" y1="0.429" x2="0.982" y2="0.429" xlink:href="#c"/><linearGradient id="h" x1="0.016" y1="0.466" x2="1.018" y2="0.466" xlink:href="#d"/><linearGradient id="i" x1="-0.019" y1="0.455" x2="0.978" y2="0.455" xlink:href="#a"/><linearGradient id="j" x1="0.002" y1="0.433" x2="1.001" y2="0.433" gradientUnits="objectBoundingBox"><stop offset="0" stop-color="#cce0f4"/><stop offset="0.23" stop-color="#96cced"/><stop offset="0.61" stop-color="#46ade2"/><stop offset="0.87" stop-color="#139adb"/><stop offset="1" stop-color="#0093d8"/></linearGradient><linearGradient id="k" x1="0.02" y1="0.461" x2="1.025" y2="0.461" xlink:href="#a"/><linearGradient id="l" x1="-0.002" y1="0.48" x2="0.997" y2="0.48" xlink:href="#d"/><linearGradient id="m" x1="-0.032" y1="0.414" x2="0.967" y2="0.414" gradientUnits="objectBoundingBox"><stop offset="0" stop-color="#ffe100"/><stop offset="0.11" stop-color="#ffc51b"/><stop offset="0.27" stop-color="#ffa63b"/><stop offset="0.43" stop-color="#ff8d54"/><stop offset="0.61" stop-color="#ff7b65"/><stop offset="0.79" stop-color="#ff7070"/><stop offset="1" stop-color="#ff6d73"/></linearGradient><linearGradient id="n" x1="0.023" y1="0.455" x2="1.02" y2="0.455" xlink:href="#m"/><linearGradient id="o" x1="-0.01" y1="0.45" x2="0.99" y2="0.45" xlink:href="#a"/><linearGradient id="p" x1="-0.006" y1="0.424" x2="0.995" y2="0.424" xlink:href="#a"/><linearGradient id="q" x1="-0.072" y1="0.447" x2="0.925" y2="0.447" xlink:href="#a"/><linearGradient id="r" x1="-0.029" y1="0.453" x2="0.975" y2="0.453" xlink:href="#a"/><linearGradient id="s" x1="0.025" y1="0.438" x2="1.024" y2="0.438" xlink:href="#c"/><linearGradient id="t" x1="-0.05" y1="0.375" x2="0.952" y2="0.375" xlink:href="#m"/><linearGradient id="u" x1="0.044" y1="0.424" x2="1.039" y2="0.424" xlink:href="#j"/><linearGradient id="v" x1="0.036" y1="0.377" x2="1.038" y2="0.377" xlink:href="#c"/><linearGradient id="w" x1="-0.047" y1="0.384" x2="0.952" y2="0.384" xlink:href="#m"/><linearGradient id="x" x1="0.035" y1="0.409" x2="1.036" y2="0.409" xlink:href="#m"/><linearGradient id="y" x1="-0.032" y1="0.441" x2="0.968" y2="0.441" xlink:href="#c"/><linearGradient id="z" x1="-0.068" y1="0.362" x2="0.932" y2="0.362" xlink:href="#j"/><linearGradient id="aa" x1="0.048" y1="0.339" x2="1.046" y2="0.339" xlink:href="#c"/><linearGradient id="ab" x1="0.011" y1="0.309" x2="1.012" y2="0.309" xlink:href="#j"/><linearGradient id="ac" x1="0.016" y1="0.426" x2="1.019" y2="0.426" xlink:href="#j"/><linearGradient id="ad" x1="-0.077" y1="0.385" x2="0.924" y2="0.385" xlink:href="#j"/><linearGradient id="ae" x1="0.047" y1="0.423" x2="1.044" y2="0.423" xlink:href="#m"/><linearGradient id="af" x1="-0.013" y1="0.252" x2="0.987" y2="0.252" xlink:href="#c"/><linearGradient id="ag" x1="0.69" y1="-0.163" x2="0.31" y2="1.164" gradientUnits="objectBoundingBox"><stop offset="0" stop-color="#6ac9c8"/><stop offset="0.01" stop-color="#6bc9c6"/><stop offset="0.21" stop-color="#86ce8a"/><stop offset="0.4" stop-color="#9dd259"/><stop offset="0.58" stop-color="#afd632"/><stop offset="0.75" stop-color="#bcd817"/><stop offset="0.89" stop-color="#c3d906"/><stop offset="1" stop-color="#c6da00"/><stop offset="1" stop-color="#d7df23"/></linearGradient><linearGradient id="ah" x1="0.699" y1="-0.162" x2="0.329" y2="1.163" xlink:href="#ag"/><linearGradient id="ai" x1="0.75" y1="0.155" x2="0.25" y2="0.845" xlink:href="#ag"/><linearGradient id="aj" x1="0.834" y1="0.035" x2="0.16" y2="0.965" xlink:href="#ag"/></defs><g class="a" transform="translate(0.041 13)"><g transform="translate(-0.041)"><path d="M470.769,436.882v.286c-.114,1.815-1.034,3.148-2.221,3.207s-2.13-1.1-2.277-3.067a22.874,22.874,0,0,0-4.355-11.936c-2.771-3.825-6.4-5.438-11.127-4.316-3.451.816-6.908,1.626-10.408,2.241-6.18,1.112-11.357-.774-15.179-5.754a10.05,10.05,0,0,1-1.672-4.68c-.231-1.685.976-2.43,2.569-1.792a27.311,27.311,0,0,1,3.477,1.864,9.1,9.1,0,0,1,1.36,1.015c3.815,3.236,7.682,3.8,11.936.651a15.13,15.13,0,0,1,7.995-3.054c5.793-.38,10.017,2.446,13.449,6.8,3.2,4.056,4.527,8.879,5.653,13.781.358,1.564.6,3.152.9,4.729Zm-45.8-25.193a5.565,5.565,0,0,0,1.646,5.354,13.277,13.277,0,0,0,12.857,4.254c3.526-.667,7.015-1.525,10.535-2.238,5.78-1.171,10.343.673,13.566,5.653A25.249,25.249,0,0,1,467.41,437a17.306,17.306,0,0,0,.5,2.338c1.551-.943,1.3-2.1,1.077-3.109-.65-2.9-1.359-5.783-2.1-8.664a24.113,24.113,0,0,0-4.056-8.365c-3.981-5.425-10.219-8.274-17.374-4.1-1.389.81-2.794,1.59-4.228,2.322a7.246,7.246,0,0,1-7.318-.068c-1.7-1-3.282-2.2-4.947-3.252C427.737,413.289,426.445,412.563,424.965,411.689Z" transform="translate(-282.748 -274.22)"/><path d="M316.12,458a19.237,19.237,0,0,1-7.806,16.782c-1.851,1.441-3.919,2.524-6.417,2.085a3.138,3.138,0,0,1-2.755-3.773c.416-3.308,2.277-5.854,4.384-8.248a8.255,8.255,0,0,1,1.74-1.665c2.43-1.493,2.836-3.848,2.878-6.378.033-1.893-.036-3.792.075-5.682a7.668,7.668,0,0,1,.673-2.709,3.026,3.026,0,0,1,2.852-1.981,2.688,2.688,0,0,1,2.719,1.9,69.74,69.74,0,0,1,1.626,6.97A13.08,13.08,0,0,1,316.12,458Zm-1.327-3.3c-.325-1.717-.628-3.763-1.2-5.728a2.219,2.219,0,0,0-1.711-1.3,2.873,2.873,0,0,0-1.919,1.3,5.393,5.393,0,0,0-.618,2.417c-.1,1.6-.026,3.217-.062,4.823-.078,3.308-.868,6.141-3.685,8.44-1.818,1.486-3.051,3.783-4.274,5.874-.651,1.1-1.3,2.7-.055,3.805s2.722.413,3.994-.228a15.265,15.265,0,0,0,8.206-10.323A91.588,91.588,0,0,0,314.793,454.694Z" transform="translate(-201.81 -301.232)"/><path d="M39.765,42.909a8.326,8.326,0,0,1-2.306,6.056,26.344,26.344,0,0,1-3.483,3.106c-3.607,2.6-7.269,1.844-10.174-1.951-4.957-6.476.085-16.116,7.246-17.065a5.181,5.181,0,0,1,2.465.436A11.2,11.2,0,0,1,39.765,42.909Zm-1.994.348A9.03,9.03,0,0,0,34,35.8,5.665,5.665,0,0,0,30.9,34.378c-3.87-.026-8.157,5.327-7.481,9.172a9.151,9.151,0,0,0,6.554,7.5,4.075,4.075,0,0,0,2.8-.169,8.606,8.606,0,0,0,5.018-7.624Z" transform="translate(-7.708 -27.295)"/><path d="M533.594,152.1c.631,1.662,1.174,3.113,1.727,4.553.325.868.221,1.366-.849,1.607-2.277.514-4.553,1.155-6.8,1.789-1.021.286-1.626.1-1.805-1.057-.185-1.109-.527-2.189-.849-3.474-1.174.26-2.322.433-3.418.781a1.257,1.257,0,0,1-1.834-.953c-.592-2.082-1.187-4.166-1.626-6.287a1.748,1.748,0,0,1,.956-1.369,30.4,30.4,0,0,1,3.747-.849c-.351-1.415-.712-2.771-1.021-4.14-.351-1.538,0-2.127,1.535-2.417,1.857-.348,3.724-.631,5.584-.943a1.464,1.464,0,0,1,1.877,1.389c.2,1.064.459,2.2.722,3.438.9-.146,1.721-.293,2.543-.413,1.516-.221,2.059.127,2.436,1.626.361,1.415.68,2.839,1.015,4.261.2.829,0,1.317-.976,1.5A23.789,23.789,0,0,0,533.594,152.1Zm1.5-7.155c-1.1.2-2.033.309-2.927.537a1.346,1.346,0,0,1-1.854-1.177,27.531,27.531,0,0,0-.65-2.739,1.19,1.19,0,0,0-.976-.611c-1.75.345-3.477.8-5.354,1.255.283,1.4.507,2.794.852,4.153.28,1.106-.029,1.727-1.168,1.951s-2.361.514-3.6.79c.579,2.114,1.122,4.095,1.7,6.2,1.155-.3,2.244-.543,3.311-.872,1.392-.426,1.763-.263,2.1,1.158.267,1.125.478,2.277.729,3.467l6.83-1.834c-.569-1.451-1.044-2.774-1.607-4.062-.5-1.145-.153-1.776,1-2.13.924-.283,1.818-.65,2.69-.976-.394-1.812-.725-3.409-1.08-5.123Z" transform="translate(-338.598 -92.997)"/><path d="M181.99,14.8c-.384,1.763-.709,3.08-1,4.4-.946,4.316.107,7.842,4.01,10.281a48.957,48.957,0,0,1,4.449,3.035,16.621,16.621,0,0,1,3.087,3.044,2.927,2.927,0,0,1,.026,3.578c-.774,1.047-1.86.836-2.969.569-5.711-1.36-10.479-4.092-13.052-9.595s-1.343-10.762,1.763-15.693c.556-.885,1.46-1.568,2.508-1.077C181.4,13.616,181.73,14.458,181.99,14.8Zm-1.077-.052-.455-.27c-.4.325-.956.556-1.184.976-2.059,3.76-3.49,7.676-2.312,12.034,1.574,5.854,5.776,9.107,11.224,10.974,1.015.345,2.966.371,3.285-.166.673-1.138-.5-2.254-1.477-2.989-1.7-1.275-3.578-2.335-5.223-3.662a21.522,21.522,0,0,1-4.01-3.922c-2.039-2.807-1.574-5.975-.748-9.107C180.351,17.353,180.631,16.052,180.914,14.751Z" transform="translate(-112.171 -20.896)"/><path d="M61,325.748c.3-7.6,3.744-13.237,9.165-17.739A23.464,23.464,0,0,1,75.61,304.8a2.915,2.915,0,0,1,4.082,1.408c.673,1.493,0,3.174-1.812,4.043a19.626,19.626,0,0,1-3.825,1.408c-3.652.9-5.035,4.16-5.158,7.337a58.135,58.135,0,0,1-.862,7.412,5.81,5.81,0,0,1-1.262,2.319,2.782,2.782,0,0,1-3.048,1.343,3.606,3.606,0,0,1-2.452-2.719A12.469,12.469,0,0,1,61,325.748Zm2.143-.7a17.459,17.459,0,0,0,.436,2.524c.355,1.148,1.226,1.386,2.016.472a6.467,6.467,0,0,0,1.555-2.778c.462-2.348.65-4.752.924-7.139a7.828,7.828,0,0,1,4.71-6.853c1.281-.576,2.621-1.021,3.919-1.564,1.812-.755,2.621-1.9,2.16-3-.485-1.161-1.951-1.428-3.724-.367-6.983,4.163-11.41,10.05-11.992,18.7Z" transform="translate(-41.147 -205.437)"/><path d="M446.028,103.534c-4.462-.026-8.284-2.485-9.513-5.75a4.463,4.463,0,0,1,.114-3.825c3.252-6.206,11.559-7.442,16.207-2.722a7.24,7.24,0,0,1,1.584,7.78c-.9,2.7-3.087,3.9-5.815,4.228C447.576,103.365,446.548,103.473,446.028,103.534Zm1.038-1.145c.351,0,.872.033,1.392,0,2.108-.143,3.87-1.33,4.313-2.888a7.717,7.717,0,0,0-4.44-8.99c-3.672-1.434-6.5.185-9.061,2.6-1.434,1.343-1.59,2.517-.924,4.352,1.1,3.012,5.435,5.243,8.72,4.921Z" transform="translate(-294.276 -59.627)"/><path d="M184.1,538.281a29.251,29.251,0,0,0,.624,2.869c.306.943-.1,1.324-.92,1.5-1.88.4-3.757.846-5.656,1.116-.361.049-1.051-.559-1.2-1a21.483,21.483,0,0,1-.6-3.041c-1.028.3-2.036.537-3,.881a1.146,1.146,0,0,1-1.7-.914c-.517-2.1-1-4.228-1.428-6.336-.211-1.064.192-1.75,1.425-1.73.686,0,1.376-.078,2.169-.133-.224-1.125-.387-2.091-.611-3.041s.244-1.438,1.116-1.59c1.994-.348,4-.65,5.994-1,.868-.153,1.181.211,1.3,1.031.137,1.015.384,2.01.615,3.178,1.421-.387,2.729-.709,4.01-1.109a1,1,0,0,1,1.464.823c.507,1.951,1.054,3.9,1.509,5.874.224.976.085,1.717-1.233,1.838A34.846,34.846,0,0,0,184.1,538.281Zm-5.9,4.553c.924-.137,1.665-.241,2.4-.358,3.373-.53,3.412-.54,2.563-3.812-.2-.807-.068-1.142.719-1.3,1.47-.286,2.927-.6,4.417-.914-.589-2.088-1.158-4.114-1.74-6.18-1.337.228-2.628.423-3.9.68-.826.166-1.239-.1-1.379-.94-.156-.976-.4-1.909-.618-2.888l-5.991,1.044c.228,1.047.442,1.951.615,2.875.153.8-.059,1.415-1,1.529l-2.9.355,1.607,6.892a24.2,24.2,0,0,0,3.113-1.047c1.174-.579,1.548-.091,1.691.976.124.95.247,1.922.407,3.077Z" transform="translate(-114.807 -354.811)"/><path d="M361.743,66.434a2.327,2.327,0,0,1,2.524,1.3,2.551,2.551,0,0,1-.875,3.064,17.271,17.271,0,0,1-3.594,2.462c-4.43,2.078-6.622,5.7-7.448,10.326-.208,1.161-.651,2.14-1.919,2.3a2.466,2.466,0,0,1-2.586-1.626c-1.083-2.078-.735-4.228-.267-6.368C349.134,70.792,356.312,66.74,361.743,66.434ZM348.792,81.756a14.373,14.373,0,0,0,.546,2.352,1.318,1.318,0,0,0,1.06.686c.322-.052.667-.6.781-1,.3-1.031.488-2.1.7-3.152a11.033,11.033,0,0,1,6.18-7.981,29.2,29.2,0,0,0,2.885-1.5,8.371,8.371,0,0,0,2-1.769c.771-.976.237-2.14-.976-2.023a12.455,12.455,0,0,0-4.726,1.054C352.022,71.274,349.69,76.061,348.792,81.756Z" transform="translate(-234.215 -44.812)"/><path d="M495.864,316.9c4.277.4,9.5,2.989,9.4,8.336a8.577,8.577,0,0,1-8.512,8.456c-3.922-.026-8.8-4.879-8.557-8.782C488.478,320.386,492.248,316.766,495.864,316.9Zm7.155,8.06c0-3.552-3.34-6.635-7.25-6.671-3.083-.029-6.45,3.483-6.459,6.739,0,3.542,3.656,7.211,7.214,7.224,3.721.013,6.479-3.083,6.492-7.292Z" transform="translate(-329.392 -213.83)"/><path d="M363.484,523.981a4.638,4.638,0,0,1-1.125-.2c-5.529-2.14-9.6-6.2-9.982-12.769a20.824,20.824,0,0,1-.185-4.7,10.817,10.817,0,0,1,1.8-3.613,2.286,2.286,0,0,1,2.771-1.19,2.582,2.582,0,0,1,1.594,2.732,8.781,8.781,0,0,1-.325,2.368c-.894,2.992.215,5.353,2.241,7.438,1.382,1.424,2.859,2.761,4.17,4.228a8.284,8.284,0,0,1,1.555,2.651C366.662,522.79,365.679,524.023,363.484,523.981Zm-11.169-15.992.325.2c.1.6.231,1.2.3,1.8a14.537,14.537,0,0,0,8.612,11.917,8.471,8.471,0,0,0,2.882.325,10.129,10.129,0,0,0-1.122-2.6c-1.047-1.268-2.339-2.329-3.506-3.5-2.726-2.739-3.978-5.854-2.739-9.757a6.108,6.108,0,0,0,.124-2.778,1.151,1.151,0,0,0-2.114-.572C354.016,504.583,353.226,506.323,352.315,507.989Z" transform="translate(-237.566 -338.31)"/><path d="M10.074,265.128c1.421-.26,2.69-.511,3.968-.719.816-.133,1.187.27,1.3,1.083.283,1.994.579,3.988.976,5.962.163.807-.065,1.171-.81,1.3-.976.169-1.951.371-2.927.468-.794.075-1.08.446-.976,1.2.1.885.153,1.779.286,2.66a1.178,1.178,0,0,1-1.073,1.5q-2.342.517-4.667,1.09c-1.047.257-1.558-.176-1.584-1.194-.033-1.174,0-2.351,0-3.672-1.177.244-2.134.478-3.1.634-1.226.2-1.467-.169-1.408-1.36a39.3,39.3,0,0,0-.088-4.794c-.1-1.438.39-2.14,1.886-2.1a6.031,6.031,0,0,0,1.4-.325c-.25-.9-.524-1.747-.712-2.6s0-1.392,1.025-1.626c1.454-.325,2.852-.911,4.277-1.376,1.3-.426,1.646-.179,1.805,1.213C9.772,263.342,9.931,264.2,10.074,265.128Zm5.471,6.619c-.39-2.225-.764-4.349-1.148-6.55-1.35.325-2.482.621-3.623.872-.751.163-1.379.172-1.483-.911a31.319,31.319,0,0,0-.631-3.22l-4.82,1.626c.361,1.142.719,2.114.976,3.116.231.881,0,1.457-1.1,1.457a17.377,17.377,0,0,0-2.277.267l-.023,5.623,3.109-.751c1.08-.27,1.662.143,1.678,1.255.02,1.177,0,2.352,0,3.649,1.369-.247,2.6-.54,3.851-.673.94-.1,1.038-.6.943-1.356s-.13-1.6-.228-2.394c-.107-.878.231-1.3,1.132-1.4C13.089,272.221,14.283,271.964,15.545,271.746Z" transform="translate(0.041 -176.158)"/><path d="M509.339,44.65c-.621.543-1.229.917-1.854,0-2.625-3.861-5.272-7.7-7.877-11.575-1.2-1.782-.93-2.378,1.213-2.566,3.379-.3,6.768-.514,10.151-.781.559-.042,1.106-.192,1.665-.267,1.346-.182,1.7.2,1.233,1.467-.65,1.721-1.454,3.379-2.016,5.119-.924,2.859-1.7,5.763-2.543,8.648Zm-8.684-12.034,7.276,10.372c1.376-3.883,2.677-7.546,4.026-11.354Z" transform="translate(-327.622 -18.85)"/><path d="M408.358,478.883a7.536,7.536,0,0,1-.124,1.125c-.2.751-.608,1.038-1.34.52-3.435-2.423-6.882-4.83-10.313-7.259a2.219,2.219,0,0,1-.579-3.353,30.9,30.9,0,0,1,3.048-3.9c2-2.215,4.072-4.355,6.131-6.5.976-1.021,1.551-.894,1.951.449a8.739,8.739,0,0,1,.433,2.208c.224,5.575.41,11.149.6,16.724Zm-2.023-.247.072-18.36-.446-.068c-1.09,1.161-2.247,2.277-3.252,3.49-1.743,2.111-3.415,4.28-5.077,6.456-.6.781-.537,1.444.387,2.121C400.858,474.369,403.645,476.571,406.335,478.636Z" transform="translate(-266.845 -309.601)"/><path d="M61.976,131.94c4.6,0,8.131,2.182,11.117,5.412a7.214,7.214,0,0,1,1.145,1.776c.449.917.813,2.1-.146,2.7a5.54,5.54,0,0,1-2.878.4c-.449,0-.914-.449-1.324-.761a16.233,16.233,0,0,0-7.871-3.194c-1.951-.254-3.438.891-4.657,2.277a6.235,6.235,0,0,1-5.178,2.137c-1.857-.062-2.521-1.151-1.727-2.859a5.338,5.338,0,0,1,1-1.532c2.3-2.277,4.254-5.012,7.594-5.926A22.4,22.4,0,0,1,61.976,131.94Zm1.4,1.1c-4.615-.026-10.226,3.535-11.829,6.869-.472.976.094,1.35.81,1.21a9.175,9.175,0,0,0,2.846-1.109c1.054-.618,1.951-1.467,2.966-2.176a5.093,5.093,0,0,1,5.61-.472c2.417,1.246,4.752,2.647,7.194,3.838a3.039,3.039,0,0,0,2.423.159c.924-.579.221-1.577-.231-2.238C70.6,135.352,67.164,133.072,63.375,133.036Z" transform="translate(-33.81 -89.027)"/><path d="M501.1,235.033a3.27,3.27,0,0,1-3.038-1.87c-.706-1.252-1.457-2.547-2.065-3.877-1.337-2.927-3.753-4.189-6.778-4.628-1.181-.172-2.719-.124-2.927-1.646-.241-1.626,1.33-1.951,2.452-2.482a7.264,7.264,0,0,1,6.814.3,25.492,25.492,0,0,1,8.368,7.311,10.2,10.2,0,0,1,1.038,2.277C505.816,232.61,504.011,235.114,501.1,235.033Zm-14.011-12.3-.065.585a24.74,24.74,0,0,0,3.578.755c2.953.192,5.262,1.324,6.687,4.013.82,1.545,1.626,3.09,2.508,4.605a1.943,1.943,0,0,0,2.407,1c1.038-.315,2.043-.927,1.88-2.147a6.642,6.642,0,0,0-1.129-3.213,22.767,22.767,0,0,0-9.2-6.645C491.3,220.693,489.154,221.522,487.086,222.732Z" transform="translate(-328.097 -148.326)"/><path d="M410.665,14.5c-.02,3.688-1.649,6.323-4.417,7.155a2.256,2.256,0,0,1-2.713-.546c-.761-.914-.384-1.724.13-2.6,1.142-1.951.771-3.984.446-6.056a46.935,46.935,0,0,1-.449-5.061,2.465,2.465,0,0,1,.384-1.587c.6-.709,1.379-1.649,2.16-1.727.667-.065,1.675.8,2.121,1.506C410.04,8.275,410.421,11.384,410.665,14.5Zm-1.018.052c-.052-3.474-.537-6.046-1.893-8.375-.3-.524-.976-.833-1.493-1.239a8,8,0,0,0-1.109,1.851,5.439,5.439,0,0,0,0,2.114c.169,1.356.433,2.7.634,4.056a8.539,8.539,0,0,1-.65,5.253,8.417,8.417,0,0,0-.442,2.039,17.076,17.076,0,0,0,2.355-.54,2.959,2.959,0,0,0,1.034-.943A6.426,6.426,0,0,0,409.647,14.549Z" transform="translate(-275.984 -15.746)"/><path d="M185.176,99.263a10.347,10.347,0,0,1-.358,1.47c-.67,1.808-2.26,2.234-3.669.9a5.763,5.763,0,0,1-1.493-2.173,6.368,6.368,0,0,0-3.861-4.053c-1.8-.729-3.363-1.763-3.9-3.8-.4-1.47.133-2.413,1.467-2.67C178.313,87.99,185.306,93.9,185.176,99.263Zm-1.353-1.337c-.185-4.176-5.2-8.486-9.637-8.069-.348.033-.914.224-.956.426a1.353,1.353,0,0,0,.348,1.116,12.207,12.207,0,0,0,2.329,1.574,8.2,8.2,0,0,1,4.5,5.353,4.609,4.609,0,0,0,.65,1.682,8.644,8.644,0,0,0,1.75,1.229,15.225,15.225,0,0,0,.976-1.854,4.849,4.849,0,0,0,.029-1.457Z" transform="translate(-115.886 -59.945)"/><path d="M515.548,318.988a18.745,18.745,0,0,0-3.353-8.108c-3.324-4.8-7.429-5.685-12.473-2.742l-.572.325c-.078-.159-.169-.289-.146-.309,3.838-3.919,6.944-5.084,11.113-2.02,3.649,2.68,6.024,6.232,6.18,10.935a9.063,9.063,0,0,1-.377,1.987Z" transform="translate(-336.69 -205.391)"/><path d="M62.477,28.55c1.587.029,2.739,1.22,3.945,2.163A22.231,22.231,0,0,1,69.45,33.7c2.417,2.8,2.179,6.18,2,9.552a7.22,7.22,0,0,1-3.22,5.7c-2.039,1.473-4.036,3-6.053,4.5l-.364-.41a9.218,9.218,0,0,1,.65-.683c1.88-1.652,3.838-3.223,5.61-4.986a4.865,4.865,0,0,0,1.174-2.6c.28-1.626.231-3.3.459-4.934a7.119,7.119,0,0,0-1.951-6.372C66.064,31.793,64.272,30.222,62.477,28.55Z" transform="translate(-34.693 -24.264)"/><path d="M119.744,498.757c.078,2.986-5.406,7.881-8.372,7.481a3.187,3.187,0,0,1-2.6-4.488,7.143,7.143,0,0,1,4.635-4.436c1.122-.325,2.257-.667,3.405-.914A2.336,2.336,0,0,1,119.744,498.757Zm-8.274,6.18c1.916-.033,6.846-4.368,7.178-6.352.124-.722,0-1.239-.976-.891-1.769.65-3.633,1.064-5.321,1.864a7.426,7.426,0,0,0-2.706,2.348,1.994,1.994,0,0,0,1.825,3.031Z" transform="translate(-73.189 -334.903)"/><path d="M456.634,41.3a2.046,2.046,0,0,1-.4.816c-.12.107-.576-.085-.833-.231-2.781-1.587-5.565-3.174-8.323-4.807a7.581,7.581,0,0,1-1.259-1.207,5.9,5.9,0,0,1,1.275-1.2c2-.956,4.04-1.821,6.069-2.706.849-.371,1.691-.368,1.906.7C455.636,35.473,456.1,38.309,456.634,41.3Zm-8.742-5.282,7.22,3.968c-.377-2.381-.745-4.706-1.129-7.155Z" transform="translate(-300.807 -21.419)"/><path d="M262.619,538.59a14.942,14.942,0,0,1,2.277,1.438,1.766,1.766,0,0,1,.133,2.547c-.859,1.281-1.626,2.6-2.488,3.9A9.377,9.377,0,0,1,261.2,548.1a2.961,2.961,0,0,1-3.33.872,3.029,3.029,0,0,1-1.743-3.252,11.771,11.771,0,0,1,1.268-4.287C258.352,539.536,260.209,538.906,262.619,538.59Zm-3.558,9.487a4.247,4.247,0,0,0,2.478-2.478,19.01,19.01,0,0,1,2.117-3.272c.911-1.112.855-1.73-.481-2.309a3.847,3.847,0,0,0-4.732,2.277,18.142,18.142,0,0,0-.976,3.958C257.354,547.157,257.617,548.077,259.061,548.077Z" transform="translate(-172.8 -363.418)"/><path d="M404.945,562.122c-3.1.4-6.788-4.4-6.6-6.8.1-1.226.407-2.417,1.75-2.807s1.99.621,2.791,1.477a26.464,26.464,0,0,0,2.982,2.43c.068.052.185.036.273.068,2.361.849,3.252,1.86,2.969,3.35C408.87,561.068,406.938,562.141,404.945,562.122Zm.172-1.112a2.127,2.127,0,0,0,1.018-.146,17.9,17.9,0,0,0,1.834-1.548,11.528,11.528,0,0,0-1.691-1.668c-1.431-.937-2.943-1.756-4.44-2.6a13.921,13.921,0,0,0-1.5-.651,6.106,6.106,0,0,0-.572,1.643C399.637,558.541,402.239,561.016,405.117,561.01Z" transform="translate(-268.769 -372.753)"/><path d="M264.42,77.548c1.763-2.277,3.474-4.514,5.22-6.723.784-1,1.4-.976,1.857.117.855,2.043,1.626,4.118,2.348,6.212.254.748.2,1.659-.953,1.577-2.677-.192-5.347-.475-8.021-.735C264.765,77.971,264.674,77.792,264.42,77.548Zm5.718-5.906-4.108,5.23,6.18.325Z" transform="translate(-178.406 -47.3)"/><path d="M46.64,518.558l9.917-5.688c.166.709.348,1.434.511,2.166.325,1.373.65,2.742.894,4.131.15.875-.286,1.35-1.226,1.213-2.895-.42-5.786-.836-8.677-1.278A9.54,9.54,0,0,1,46.64,518.558Zm10.2.208c-.293-1.509-.569-2.943-.846-4.365l-6.284,3.633Z" transform="translate(-31.457 -346.063)"/><path d="M6.617,153.949a4.807,4.807,0,0,1,4.329,1.9c1.044,1.353,1.064,2.459-.107,3.662a17.2,17.2,0,0,1-2.6,2.179,2.287,2.287,0,0,1-3.483-.566,12.684,12.684,0,0,1-1.737-3.21C2.239,155.666,3.732,154.027,6.617,153.949Zm.221,6.284c1.571,0,3.435-1.669,3.392-3.028-.039-1.2-1.555-2.413-3.252-2.306-1.776.114-3.168.732-3.213,2.075a3.368,3.368,0,0,0,3.074,3.272Z" transform="translate(-1.884 -103.862)"/><path d="M296.934,23.943a5.017,5.017,0,0,1-4.644-4.657c0-.559.27-1.441.65-1.607a13.779,13.779,0,0,1,4.8-1.519c1.5-.02,1.925,1.782,2.319,3.048C300.772,21.474,299.025,24,296.934,23.943Zm.1-6.859c-2.277.234-3.461,1-3.422,2.036a3.231,3.231,0,0,0,3.5,2.969,2.131,2.131,0,0,0,2.16-2C299.2,18.755,297.949,17.064,297.038,17.083Z" transform="translate(-193.211 -6.904)"/><path d="M438.611,479.988a4.379,4.379,0,0,1-.371-.881c-.241-5.763-.481-11.527-.65-17.293,0-.355.407-.722.624-1.083.3.371.829.716.872,1.112a57.876,57.876,0,0,1,.494,6.781c-.036,3.161-.325,6.323-.524,9.481a14.009,14.009,0,0,1-.446,1.883Z" transform="translate(-295.254 -310.881)"/><path d="M480.569,487.562c.039-2.713,1.626-4.768,3.636-4.687,1.529.062,3.252,2.095,3.21,3.763-.065,2.238-2.033,4.44-3.968,4.449C481.8,491.094,480.54,489.549,480.569,487.562Zm5.4-1.46-1.73-2.306a30.209,30.209,0,0,0-2.436,1.89c-.26.241-.28.784-.325,1.2-.1,1.031,0,2.108,1.116,2.482a2.327,2.327,0,0,0,2.722-1.285A9.39,9.39,0,0,0,485.965,486.1Z" transform="translate(-321.254 -322.822)"/><path d="M522.87,380.231a3.59,3.59,0,0,1,4.5-3.324,12.933,12.933,0,0,1,3.025,1.386c1.457.94,1.952,2.244,1.516,3.448a3.294,3.294,0,0,1-3.578,1.968,21.257,21.257,0,0,1-3.555-.823A2.583,2.583,0,0,1,522.87,380.231Zm5.3,2.742.182-.325c.28-.016.628.068.833-.062.676-.433,1.665-.839,1.844-1.454a2.375,2.375,0,0,0-.868-2.1,7.379,7.379,0,0,0-3.461-1.158c-.631-.029-1.5.859-1.883,1.545a1.979,1.979,0,0,0,.449,1.844A16.817,16.817,0,0,0,528.171,382.972Z" transform="translate(-338.793 -253.222)"/><path d="M514.263,66.98c-.185.836-.732,1.815-.976,2.888L505.393,62.3c-.107.325-.185.452-.156.485,2.433,2.634,4.856,5.275,7.318,7.881.836.885,1.681.7,2.072-.4.8-2.257,1.493-4.553,2.179-6.85.088-.283-.111-.65-.176-.976l-.472-.107Z" transform="translate(-331.895 -41.037)"/><path d="M99.416,327.141c-.5.276-1,.543-1.5.826-1.3.742-2.657,1.428-3.9,2.254a5.49,5.49,0,0,0-2.5,6.118c.345,1.717.65,3.444-.192,5.08a5.3,5.3,0,0,1-1.711,1.851c2.221-2.4,1.353-5.067.868-7.7-.755-4.114.429-6.18,4.316-7.481,1.473-.491,2.982-.875,4.475-1.3Z" transform="translate(-60.452 -220.504)"/><path d="M202.4,525.664l-1.668-3.639c-1.155.215-2.352.4-3.529.651-1.262.289-2.143.071-2.335-1.4a9.5,9.5,0,0,0-.247-.953c-.218-.94-.65-1.48-1.763-1.3a20.837,20.837,0,0,1-2.96.2,6.447,6.447,0,0,1-1.22-.218l-.016-.605c1.9-.254,3.789-.559,5.7-.7.325-.026.826.589,1.041,1.012a10.764,10.764,0,0,1,.716,2.127.874.874,0,0,0,1.236.722c1-.25,2.007-.468,3.008-.706.852-.2,1.512-.023,1.753.914.325,1.229.6,2.465.9,3.7Z" transform="translate(-127.286 -349.32)"/><path d="M107.728,373.389a2.716,2.716,0,0,1,2.436,2.208c.169.976.325,1.951.462,2.927a3.065,3.065,0,0,1-1.646,3.3c-1.428.53-2.381-.166-3.022-1.356a14.989,14.989,0,0,1-1.376-3.061A3.411,3.411,0,0,1,107.728,373.389Zm1.9,4.723-.254-.185a5.7,5.7,0,0,0-.325-1.763c-.325-.569-.976-1.4-1.421-1.356a2.5,2.5,0,0,0-1.886,1.226,3.874,3.874,0,0,0,.364,2.739,8.639,8.639,0,0,0,2.179,1.919Q108.95,379.4,109.63,378.111Z" transform="translate(-70.493 -251.947)"/><path d="M32.131,278.72q.488,1.854.976,3.711c.049.179.023.377.065.563.65,2.9.6,2.956-2.355,3.3-.914.107-1.818.3-2.748.455.208,1.685.442,3.213.546,4.749.026.4-.276,1.109-.576,1.2-1.877.579-3.792,1.028-5.7,1.5-.146.036-.325-.065-.491-.1l-.107-.4,5.91-2.14c-.124-1.3-.237-2.647-.387-3.994-.094-.865.081-1.447,1.093-1.626,1.379-.231,2.739-.582,4.179-.9-.13-2.117-1.168-4.124-.943-6.245Z" transform="translate(-14.656 -188.068)"/><path d="M339.416,81.527c-2.277-6.2,3.9-16.262,9.705-15.791C342.382,68.979,339.891,74.632,339.416,81.527Z" transform="translate(-228.684 -44.346)"/><path d="M309.307,449.585c-.25,3.509-.475,7.019-.774,10.525a3.6,3.6,0,0,1-.651,1.844c-1.977,2.495-4.036,4.921-6.066,7.373l-.407-.254a10.568,10.568,0,0,1,.823-1.584c1.184-1.587,2.384-3.171,3.656-4.69a8.962,8.962,0,0,0,1.857-5.367c.137-1.971.325-3.935.6-5.89a9.4,9.4,0,0,1,.787-2.033Z" transform="translate(-203.365 -303.31)"/><path d="M126.859,104.505a2.921,2.921,0,0,1-1.75,3.067,2.286,2.286,0,0,1-2.8-.738c-1.038-1.119-2.043-2.277-1.447-3.984a2.495,2.495,0,0,1,3.672-1.4C125.86,102.209,126.839,103.244,126.859,104.505ZM122.63,102.3a4.266,4.266,0,0,0-.833,1.434c-.156.933,1.483,2.758,2.241,2.488a2.417,2.417,0,0,0,1.33-1.506c.208-.966-1.356-2.423-2.748-2.417Z" transform="translate(-81.419 -68.215)"/><path d="M59.57,459.915c.459-2.238.8-4.072,1.223-5.887.2-.875.686-1,1.389-.345,1.275,1.181,2.6,2.309,3.9,3.451.842.735.576,1.379-.289,1.707a53.252,53.252,0,0,1-5.2,1.669C60.273,460.595,59.794,460.055,59.57,459.915Zm1.138-.511L64.68,457.7l-3.074-3.126C61.336,456.084,61.043,457.6,60.708,459.4Z" transform="translate(-40.182 -305.848)"/><path d="M173.057,42.1c-4.992-4.027-5.653-10.378-3.539-18.344C168.91,30.213,168.91,36.545,173.057,42.1Z" transform="translate(-107.606 -28.032)"/><path d="M549.916,278.68c2,0,4.8,2.885,4.752,4.479a2.246,2.246,0,0,1-3.048,1.984,8.606,8.606,0,0,1-2.992-2.472,3.69,3.69,0,0,1-.02-2.745C548.784,279.344,549.607,278.953,549.916,278.68Zm-.27,2.495c-.153,2.033,1.3,2.205,2.225,2.781a1.723,1.723,0,0,0,1.626-.247c.264-.244.2-1.135-.045-1.558a5.279,5.279,0,0,0-1.535-1.626,1.964,1.964,0,0,0-1.574-.439c-.4.176-.608.937-.7,1.09Z" transform="translate(-369.992 -188.041)"/><path d="M449.531,303.66c1.2,4.443-2.927,15.443-6.8,18.028C446.776,316.341,448.136,310.005,449.531,303.66Z" transform="translate(-298.722 -204.897)"/><path d="M104.924,213.973c-1.773-5.692-3.33-11.383-.046-17.043-.2,2.768-.553,5.578-.543,8.388C104.351,208.2,104.722,211.088,104.924,213.973Z" transform="translate(-69.459 -132.88)"/><path d="M479.78,86.13c3.252.14,4.895,2.14,5.877,4.843,1.112,3.048,1.125,6.007-1.1,8.694a11.4,11.4,0,0,0,.514-7.738C484.2,89.165,481.445,88.163,479.78,86.13Z" transform="translate(-323.722 -58.117)"/><path d="M476.26,169.486c-2.823-4.326-5.558-8.512-8.32-12.746C470.844,158.054,476.6,166.738,476.26,169.486Z" transform="translate(-315.733 -105.761)"/><path d="M465.067,55.043l.026-6.293h.478c.153,1.373.325,2.742.455,4.111.039.377,0,.758.039,1.132.2,2.423-.153,2.722-2.312,1.769-1.974-.868-3.9-1.847-5.854-2.791a1.031,1.031,0,0,1-.589-.816Z" transform="translate(-308.56 -32.894)"/><path d="M453.42,155.32c5.461,3.34,7.344,8.944,10.118,13.9C460.218,164.664,456.9,160.095,453.42,155.32Z" transform="translate(-305.935 -104.803)"/><path d="M398.593,0c-.062.65,0,.868-.107.976-1.652,1.818-1.512,3.9-1.047,6.1a31.636,31.636,0,0,1,.455,4.752,2.189,2.189,0,0,1-.611,1.428,6.63,6.63,0,0,1-.189-.693c-.28-1.607-.478-3.23-.839-4.814-.488-2.13-.618-4.2.634-6.111A11.33,11.33,0,0,1,398.593,0Z" transform="translate(-271.127 -13)"/><path d="M19.72,147.719a6.029,6.029,0,0,1,5.353,2.781c1.028,2.124.891,4.053-.452,5.227a8.235,8.235,0,0,0,.153-2.043,4.289,4.289,0,0,0-1.951-3.129,22.912,22.912,0,0,1-2.634-2.15A3.767,3.767,0,0,1,19.72,147.719Z" transform="translate(-13.293 -99.645)"/><path d="M457.83,327.47l4.186-11.25C463.258,318.75,460.643,325.678,457.83,327.47Z" transform="translate(-308.911 -213.372)"/><path d="M290.964,90.077h3.152c-.745-1.6-1.441-2.976-2.01-4.4-.146-.368.1-.894.172-1.347.345.26.816.449,1.008.8.781,1.392,1.5,2.823,2.189,4.264.533,1.1.163,1.769-1.067,1.737a34.065,34.065,0,0,1-3.558-.442Z" transform="translate(-196.24 -56.902)"/><path d="M93.6,217.606c-2.83-2.976-3.129-8.395-.517-11.536C92.923,210.175,91.456,213.99,93.6,217.606Z" transform="translate(-61.583 -139.047)"/><path d="M519.46,261.38c-2.69,1.385-4.83-1.3-4.8-5.78C516.2,257.548,516.582,260.414,519.46,261.38Z" transform="translate(-347.257 -172.468)"/><path d="M402.33,546.861a1.346,1.346,0,0,1,1.854-.651c2.059.868,4.033,1.951,6.04,2.927l-.273.651c-1.408-.491-2.83-.953-4.228-1.477C404.633,547.872,403.572,547.384,402.33,546.861Z" transform="translate(-271.462 -368.468)"/><path d="M318.727,21.626c.325-2.664-.924-4.355-2.111-6.089-.182-.267-.1-.719-.137-1.086a2.338,2.338,0,0,1,.881.072c1.6.839,2.817,4.654,2.026,6.29a6.547,6.547,0,0,1-.66.813Z" transform="translate(-209.534 -5.748)"/><path d="M479.06,155.1c2.391.592,5.7,4.84,5.077,6.876Z" transform="translate(-323.236 -104.655)"/><path d="M250.137,550.66c.543,2.508,1.06,4.807,1.522,7.116a.836.836,0,0,1-.413.706.894.894,0,0,1-.761-.394A10.427,10.427,0,0,1,250.137,550.66Z" transform="translate(-168.416 -371.562)"/><path d="M81.343,221.449c-1.756-2.618-1.695-4.495.374-6.759C81.587,217.029,81.466,219.237,81.343,221.449Z" transform="translate(-54.028 -144.864)"/><path d="M466.19,333.4c1.057-2.4,2.049-4.651,3.074-6.976C469.963,328.664,468.522,331.995,466.19,333.4Z" transform="translate(-314.552 -220.254)"/><path d="M552.86,272.372a2.674,2.674,0,0,1,2.729-.65,3.4,3.4,0,0,1,2.456,2.875Z" transform="translate(-373.033 -183.255)"/><path d="M487.108,358.3c-1.431-1.929-2.68-3.929-2.488-6.5l.42-.166q1.265,3.252,2.534,6.5Z" transform="translate(-326.974 -237.265)"/><path d="M56.666,454.261c0-1.3-.036-2.6.055-3.9,0-.263.53-.494.813-.738.215.325.65.686.6.976-.218,1.259-.576,2.491-.885,3.734Z" transform="translate(-38.218 -303.385)"/><path d="M361.619,561.438c-1.682.569-4.814-1.457-4.879-3.428Z" transform="translate(-240.7 -376.521)"/><path d="M121.609,371.167c-.846-.65-1.714-1.3-2.517-2.017a.9.9,0,0,1,.029-.807c.3-.12.833-.2,1-.029.719.725,1.337,1.548,1.99,2.335Z" transform="translate(-80.29 -248.456)"/><path d="M476,478.309c.9-1.086,1.812-2.169,2.839-3.4.585,1.447-.247,2.465-2.54,3.669Z" transform="translate(-318.171 -317.449)"/><path class="b" d="M427.71,413.44c1.467.875,2.758,1.6,4,2.4,1.665,1.067,3.252,2.277,4.947,3.252a7.285,7.285,0,0,0,7.318.068c1.431-.732,2.836-1.512,4.228-2.322,7.133-4.173,13.38-1.324,17.374,4.1a24.115,24.115,0,0,1,4.056,8.365c.738,2.882,1.464,5.763,2.1,8.664.221,1.008.475,2.166-1.077,3.109a17.3,17.3,0,0,1-.5-2.339,25.249,25.249,0,0,0-3.841-12.288c-3.223-4.979-7.786-6.83-13.566-5.653-3.519.712-7.009,1.571-10.535,2.238a13.277,13.277,0,0,1-12.857-4.254A5.584,5.584,0,0,1,427.71,413.44Z" transform="translate(-285.493 -275.972)"/><path class="c" d="M317.84,457.21a89.966,89.966,0,0,1-1.32,9.058,15.283,15.283,0,0,1-8.206,10.323c-1.272.65-2.761,1.327-3.994.228s-.589-2.7.055-3.805c1.223-2.091,2.456-4.388,4.274-5.874,2.817-2.3,3.607-5.132,3.685-8.44.036-1.607-.036-3.22.062-4.823a5.1,5.1,0,0,1,.618-2.417,2.879,2.879,0,0,1,1.919-1.3,2.261,2.261,0,0,1,1.711,1.3C317.212,453.447,317.5,455.493,317.84,457.21Z" transform="translate(-204.857 -303.748)"/><path class="d" d="M40.99,46.029a8.605,8.605,0,0,1-5.018,7.624,4.075,4.075,0,0,1-2.8.169,9.1,9.1,0,0,1-6.534-7.5c-.683-3.844,3.6-9.2,7.481-9.172a5.6,5.6,0,0,1,3.106,1.425A9.042,9.042,0,0,1,40.99,46.029Z" transform="translate(-10.914 -30.067)"/><path class="e" d="M537.719,148.324c.355,1.714.686,3.311,1.057,5.106-.872.325-1.766.7-2.69.976-1.155.354-1.5.976-1,2.13.563,1.3,1.038,2.6,1.607,4.062l-6.83,1.834c-.25-1.2-.462-2.342-.729-3.467-.325-1.421-.709-1.584-2.1-1.158-1.067.325-2.156.572-3.311.872-.579-2.1-1.122-4.085-1.7-6.2,1.239-.276,2.417-.559,3.6-.79s1.447-.846,1.168-1.951c-.345-1.36-.569-2.752-.852-4.153,1.877-.455,3.6-.911,5.353-1.255a1.19,1.19,0,0,1,.976.611,27.514,27.514,0,0,1,.651,2.739c.234.976.774,1.447,1.854,1.177C535.674,148.633,536.623,148.519,537.719,148.324Z" transform="translate(-341.224 -96.388)"/><path class="f" d="M183.79,17.44c-.3,1.3-.563,2.6-.9,3.867-.826,3.135-1.3,6.3.748,9.107a21.621,21.621,0,0,0,4.01,3.922c1.652,1.327,3.522,2.387,5.223,3.662.976.735,2.15,1.851,1.477,2.989-.325.537-2.277.511-3.285.166-5.448-1.864-9.65-5.126-11.224-10.974-1.177-4.368.254-8.284,2.312-12.034.228-.413.781-.65,1.184-.976Z" transform="translate(-115.047 -23.586)"/><path class="g" d="M67.6,327.573c.582-8.655,4.992-14.542,11.995-18.7,1.789-1.06,3.252-.794,3.724.368.462,1.1-.348,2.244-2.16,3-1.3.543-2.638.976-3.919,1.564a7.879,7.879,0,0,0-4.71,6.853c-.257,2.387-.462,4.791-.924,7.139a6.468,6.468,0,0,1-1.555,2.778c-.79.914-1.662.676-2.016-.472A17.46,17.46,0,0,1,67.6,327.573Z" transform="translate(-45.6 -207.962)"/><path class="h" d="M450.853,105.7c-3.285.325-7.62-1.909-8.72-4.934-.667-1.834-.511-3.008.924-4.352,2.566-2.407,5.389-4.026,9.061-2.6a7.717,7.717,0,0,1,4.44,8.99c-.442,1.558-2.205,2.745-4.313,2.888C451.725,105.733,451.2,105.7,450.853,105.7Z" transform="translate(-298.064 -62.941)"/><path class="i" d="M180.693,545.422c-.159-1.155-.289-2.127-.423-3.1-.143-1.054-.517-1.542-1.691-.976a24.2,24.2,0,0,1-3.113,1.047L173.86,535.5l2.9-.355c.937-.114,1.148-.725,1-1.529-.172-.917-.387-1.828-.615-2.875l6.007-1.054c.215.976.462,1.925.618,2.888.14.842.553,1.106,1.379.94,1.281-.257,2.573-.452,3.9-.68.582,2.078,1.151,4.1,1.74,6.18-1.483.309-2.947.628-4.417.914-.787.153-.924.488-.719,1.3.849,3.272.81,3.282-2.563,3.812C182.362,545.181,181.617,545.285,180.693,545.422Z" transform="translate(-117.3 -357.412)"/><path class="j" d="M352.24,83.722c.885-5.7,3.23-10.483,8.437-13.335a12.455,12.455,0,0,1,4.726-1.054c1.226-.117,1.76,1.038.976,2.023a8.373,8.373,0,0,1-1.984,1.766,29.2,29.2,0,0,1-2.878,1.516,11,11,0,0,0-6.18,7.981c-.215,1.054-.4,2.121-.7,3.152-.114.4-.465.95-.781,1a1.327,1.327,0,0,1-1.06-.686A13.424,13.424,0,0,1,352.24,83.722Z" transform="translate(-237.663 -46.777)"/><path class="k" d="M505.329,327.85c0,4.209-2.771,7.3-6.5,7.292-3.558,0-7.224-3.682-7.214-7.224,0-3.252,3.376-6.768,6.459-6.739C501.988,321.215,505.342,324.3,505.329,327.85Z" transform="translate(-331.704 -216.718)"/><path class="l" d="M352.77,510.308a56.633,56.633,0,0,1,2.774-4.96,1.151,1.151,0,0,1,2.114.572,6.109,6.109,0,0,1-.124,2.778c-1.239,3.9,0,7.025,2.739,9.757,1.168,1.174,2.459,2.234,3.506,3.5a10.035,10.035,0,0,1,1.122,2.6,9.139,9.139,0,0,1-2.882-.325,14.577,14.577,0,0,1-8.612-11.927c-.072-.6-.2-1.2-.3-1.8Z" transform="translate(-238.021 -340.629)"/><path class="m" d="M18.562,273.563c-1.265.218-2.456.475-3.659.615-.9.1-1.239.517-1.132,1.4.1.8.127,1.6.228,2.394s0,1.252-.943,1.356c-1.249.133-2.482.426-3.851.673,0-1.3.029-2.472,0-3.649-.016-1.112-.6-1.525-1.678-1.255l-3.1.758.023-5.623a17.393,17.393,0,0,1,2.277-.267c1.1,0,1.33-.576,1.1-1.457-.26-1-.618-1.974-.976-3.116l4.82-1.626a31.319,31.319,0,0,1,.631,3.22c.1,1.083.732,1.073,1.483.911,1.142-.25,2.277-.543,3.623-.872C17.8,269.214,18.171,271.338,18.562,273.563Z" transform="translate(-2.976 -177.974)"/><path class="n" d="M504.34,37.266l11.3-.976c-1.35,3.809-2.651,7.481-4.026,11.354Z" transform="translate(-331.294 -23.487)"/><path class="o" d="M409.97,481.488c-2.69-2.065-5.467-4.267-8.323-6.362-.924-.677-.976-1.34-.387-2.121,1.662-2.176,3.334-4.345,5.077-6.456,1.011-1.223,2.169-2.329,3.252-3.49l.446.068Z" transform="translate(-270.48 -312.453)"/><path class="p" d="M65.973,135.31c3.789.036,7.227,2.316,9.79,6.082.452.65,1.155,1.659.231,2.238a2.986,2.986,0,0,1-2.423-.159c-2.443-1.19-4.778-2.6-7.194-3.838a5.093,5.093,0,0,0-5.61.472c-1,.709-1.912,1.558-2.966,2.176a9.175,9.175,0,0,1-2.839,1.109c-.716.14-1.281-.224-.81-1.21C55.748,138.845,61.358,135.284,65.973,135.31Z" transform="translate(-36.409 -91.301)"/><path class="q" d="M488.628,225.686c2.068-1.21,4.212-2.039,6.651-1.044a22.767,22.767,0,0,1,9.2,6.648,6.676,6.676,0,0,1,1.128,3.213c.163,1.22-.829,1.828-1.88,2.147a1.935,1.935,0,0,1-2.407-1c-.868-1.516-1.688-3.061-2.508-4.605-1.425-2.69-3.734-3.822-6.687-4.013a25.491,25.491,0,0,1-3.578-.755Z" transform="translate(-329.639 -151.28)"/><path class="r" d="M412.95,16.344a6.467,6.467,0,0,1-1.568,4.228,2.959,2.959,0,0,1-1.034.943,17.076,17.076,0,0,1-2.348.527A8.42,8.42,0,0,1,408.442,20a8.586,8.586,0,0,0,.65-5.253c-.2-1.353-.465-2.7-.634-4.056a5.439,5.439,0,0,1,0-2.114,8,8,0,0,1,1.109-1.851c.511.407,1.19.716,1.493,1.239C412.414,10.3,412.9,12.871,412.95,16.344Z" transform="translate(-279.288 -17.541)"/><path class="s" d="M186.828,99.981a4.849,4.849,0,0,1-.029,1.457,15.225,15.225,0,0,1-.976,1.854,8.379,8.379,0,0,1-1.75-1.229,4.1,4.1,0,0,1-.65-1.682,8.162,8.162,0,0,0-4.5-5.353,12.206,12.206,0,0,1-2.329-1.574,1.353,1.353,0,0,1-.348-1.116c.042-.2.608-.394.956-.426C181.624,91.5,186.642,95.805,186.828,99.981Z" transform="translate(-118.897 -62)"/><path class="t" d="M113.172,507.533a2,2,0,0,1-1.834-3.031,7.425,7.425,0,0,1,2.706-2.348c1.688-.8,3.552-1.226,5.321-1.864.976-.348,1.109.169.976.891C120.018,503.165,115.087,507.5,113.172,507.533Z" transform="translate(-74.89 -337.499)"/><path class="u" d="M452.19,38.311l6.092-3.171c.384,2.433.751,4.758,1.129,7.155Z" transform="translate(-305.105 -23.711)"/><path class="v" d="M261.838,550.588c-1.444,0-1.708-.92-1.584-1.821a18.14,18.14,0,0,1,.976-3.958,3.838,3.838,0,0,1,4.732-2.277c1.337.579,1.392,1.2.481,2.309a19.012,19.012,0,0,0-2.117,3.272A4.3,4.3,0,0,1,261.838,550.588Z" transform="translate(-175.577 -365.928)"/><path class="w" d="M408.071,565.149c-2.878,0-5.48-2.469-5.35-4.947a6.1,6.1,0,0,1,.572-1.643,13.927,13.927,0,0,1,1.5.651c1.5.836,3.008,1.656,4.44,2.6a11.533,11.533,0,0,1,1.691,1.668,17.91,17.91,0,0,1-1.834,1.548A2.487,2.487,0,0,1,408.071,565.149Z" transform="translate(-271.722 -376.893)"/><path class="x" d="M273.464,74.84l2.065,5.529-6.18-.325Z" transform="translate(-181.733 -50.499)"/><path class="y" d="M63.216,521.945l-7.126-.725,6.28-3.639C62.644,518.995,62.92,520.429,63.216,521.945Z" transform="translate(-37.834 -349.241)"/><path class="z" d="M8.817,162.294a3.361,3.361,0,0,1-3.07-3.252c.046-1.343,1.438-1.951,3.213-2.075,1.695-.107,3.21,1.1,3.252,2.306C12.252,160.625,10.382,162.29,8.817,162.294Z" transform="translate(-3.864 -105.91)"/><path class="aa" d="M299.79,19c.911,0,2.166,1.682,2.234,3.008a2.131,2.131,0,0,1-2.16,2,3.229,3.229,0,0,1-3.5-2.969C296.329,19.976,297.5,19.224,299.79,19Z" transform="translate(-195.963 -8.82)"/><path class="ab" d="M487.789,488.016a9.624,9.624,0,0,1-.65,1.981,2.31,2.31,0,0,1-2.722,1.285c-1.112-.374-1.213-1.451-1.116-2.482.039-.416.059-.959.325-1.2a30.216,30.216,0,0,1,2.436-1.89Z" transform="translate(-323.078 -324.736)"/><path class="ac" d="M532.041,385.3a17.039,17.039,0,0,1-2.9-1.7,1.978,1.978,0,0,1-.449-1.844c.38-.686,1.252-1.574,1.883-1.545a7.379,7.379,0,0,1,3.461,1.158,2.4,2.4,0,0,1,.868,2.1c-.169.6-1.168,1.021-1.844,1.454-.2.13-.553.046-.833.062Z" transform="translate(-342.664 -255.548)"/><path class="ad" d="M111.99,381.051q-.676,1.3-1.353,2.579a8.832,8.832,0,0,1-2.179-1.919,3.874,3.874,0,0,1-.364-2.739,2.5,2.5,0,0,1,1.886-1.226c.439-.042,1.093.787,1.421,1.356a5.18,5.18,0,0,1,.325,1.763Z" transform="translate(-72.854 -254.886)"/><path class="ae" d="M124.891,104.79c1.392,0,2.956,1.451,2.739,2.417a2.416,2.416,0,0,1-1.33,1.506c-.758.27-2.4-1.555-2.241-2.488A4.494,4.494,0,0,1,124.891,104.79Z" transform="translate(-83.689 -70.708)"/><path class="af" d="M63.07,462.1c.325-1.805.615-3.321.9-4.833l3.074,3.126Z" transform="translate(-42.544 -308.546)"/><path class="ag" d="M552.307,283.988c.088-.153.273-.9.7-1.083a1.95,1.95,0,0,1,1.574.439,5.279,5.279,0,0,1,1.535,1.626c.241.423.325,1.3.046,1.558a1.723,1.723,0,0,1-1.626.247C553.618,286.193,552.154,286.021,552.307,283.988Z" transform="translate(-372.653 -190.855)"/><path class="ah" d="M334.979,217.15a24.386,24.386,0,1,1,24.66-24.1A24.438,24.438,0,0,1,334.979,217.15Zm1.7-41.2a19.1,19.1,0,0,0-17.42,12.184,32.506,32.506,0,0,0-1.431,5.936,1.443,1.443,0,0,0,1.353,1.74,1.551,1.551,0,0,0,1.789-1.317,6.913,6.913,0,0,0,.179-.937,17.088,17.088,0,0,1,4.375-9.24c6.131-6.719,16.005-6.762,21.466-.049a14.585,14.585,0,0,1,3.152,9.676c0,1.047.361,1.912,1.581,2.01,1.012.081,1.649-.7,1.721-2.016A17,17,0,0,0,336.684,175.948Z" transform="translate(-209.728 -113.616)"/><path class="ah" d="M131.809,192.072a24.426,24.426,0,1,1,7.2,17.273,24.385,24.385,0,0,1-7.2-17.273ZM154.9,175.235a16.8,16.8,0,0,0-16.691,14.571,21.341,21.341,0,0,0-.192,3.672,1.533,1.533,0,0,0,1.646,1.642c1.077-.033,1.512-.722,1.587-1.7.033-.455,0-.911.036-1.366.361-7.855,6.459-13.745,13.985-13.5,6.131.2,11.9,4.579,14.106,10.821.5,1.405.693,2.927,1.047,4.371.325,1.285,1.32,1.883,2.3,1.356.924-.494.933-1.366.875-2.26-.615-9.3-9.344-17.527-18.692-17.6Z" transform="translate(-88.926 -113.143)"/><path class="ai" d="M209.719,199.187a27.772,27.772,0,0,1-3.213-19.007c1.74-9.087,7.015-15.6,15.169-19.934-7.708-3.9-27.8-3.942-33.871-.117a27.854,27.854,0,0,1,12.48,37.27,26.845,26.845,0,0,1-14.571,13.377c-8.73,3.4-17.147,2.426-25.333-2.426.085.608.127,1.008.2,1.4a50.172,50.172,0,0,0,6.1,16.587c2.755,4.677,5.913,9.045,10.408,12.187,12.034,8.424,25.33,10.187,39.393,7.038,8.72-1.951,16.285-6.056,21.879-13.28a50.465,50.465,0,0,0,9.617-20.038c.244-1.09.442-2.189.7-3.448C232.05,218.666,215.31,209.452,209.719,199.187Z" transform="translate(-108.204 -106.132)"/><path d="M351.145,191.65a17.017,17.017,0,0,1,16.776,17.986c-.072,1.32-.709,2.1-1.721,2.017-1.22-.1-1.594-.976-1.581-2.01a14.6,14.6,0,0,0-3.152-9.676c-5.467-6.713-15.342-6.671-21.466.049a17.088,17.088,0,0,0-4.381,9.24,6.9,6.9,0,0,1-.179.937,1.545,1.545,0,0,1-1.789,1.317,1.441,1.441,0,0,1-1.353-1.74,32.513,32.513,0,0,1,1.431-5.936A19.068,19.068,0,0,1,351.145,191.65Z" transform="translate(-224.189 -129.317)"/><path d="M167.747,190.91c9.347.075,18.077,8.3,18.682,17.6.059.894.049,1.766-.875,2.26-.976.527-1.987-.072-2.3-1.356a44.542,44.542,0,0,0-1.047-4.371c-2.2-6.241-7.975-10.626-14.106-10.821-7.516-.244-13.615,5.646-13.985,13.5-.023.455,0,.911-.036,1.366-.075.976-.53,1.672-1.587,1.7a1.534,1.534,0,0,1-1.646-1.642,21.335,21.335,0,0,1,.2-3.672A16.8,16.8,0,0,1,167.747,190.91Z" transform="translate(-101.764 -128.818)"/><path class="aj" d="M345.124,315.466s-.761,21.593-29.724,34.368l3.646,1.412s10.138-3.252,12.6-3.506,14.008-13.081,14.008-13.081l7.448-15.569,2.225-8.749Z" transform="translate(-212.805 -209.404)"/><path class="ak" d="M181.44,336.27s7.032,20.816,23.434,25.541a26.076,26.076,0,0,1-17.209-8C181.622,347.5,181.44,336.27,181.44,336.27Z" transform="translate(-122.415 -226.901)"/><path class="al" d="M218.885,178.35s21.349,29.363-14.665,46.184l10.733-.781,7.263-4.9,7.546-8.18,1.916-10.115-1.568-10.941-2.667-4.114-4.27-5.2Z" transform="translate(-137.786 -120.343)"/><path class="al" d="M397.531,179.05s21.791,29.366-14.961,46.184l10.948-.777,7.406-4.892,7.692-8.18,1.951-10.118-1.6-10.954-2.709-4.124-4.362-5.2Z" transform="translate(-258.129 -120.815)"/><path class="aj" d="M242.09,155.929s18.353-4.306,30.9,2.6l3.578-1.626,1.925-2.729-6.29-1.119L262.638,150,246.2,152.114l-5.2,1.9Z" transform="translate(-162.603 -101.214)"/><path class="am" d="M316.24,211.311s-5.454-4.127,6.1-19.131C322.335,192.174,316.328,202.341,316.24,211.311Z" transform="translate(-212.504 -129.675)"/><path d="M235.1,179.328a27.324,27.324,0,0,1-7.926,18.3,4.375,4.375,0,0,0-1.125,2.2,60.65,60.65,0,0,1-7.042,20.988c-5.825,10.226-14.216,17.108-25.561,20.214-14.89,4.075-29.148,2.706-42.5-5.435-5.854-3.578-9.923-8.765-13.371-14.555a54.041,54.041,0,0,1-7.045-20.965,5.659,5.659,0,0,0-1.551-3.2c-7.243-8.131-9.461-17.508-5.962-27.821,3.483-10.258,10.909-16.334,21.544-18.4a26.65,26.65,0,0,1,10.733.26,3.9,3.9,0,0,0,2.1-.179,56.634,56.634,0,0,1,41.917.133,4.189,4.189,0,0,0,2.231.218C219.069,147.5,235.191,160.588,235.1,179.328ZM134.077,201.259c.085.608.127,1.008.2,1.4a50.172,50.172,0,0,0,6.1,16.587c2.755,4.677,5.913,9.045,10.408,12.187,12.034,8.424,25.33,10.187,39.393,7.038,8.72-1.951,16.285-6.056,21.879-13.28a50.465,50.465,0,0,0,9.617-20.038c.244-1.09.442-2.189.7-3.448-16.607,9.884-33.347.65-38.938-9.608a27.773,27.773,0,0,1-3.213-19.007c1.74-9.087,7.015-15.6,15.169-19.934-7.708-3.9-27.8-3.942-33.871-.117a27.854,27.854,0,0,1,12.48,37.27,26.845,26.845,0,0,1-14.571,13.377C150.68,207.081,142.263,206.112,134.077,201.259Zm73.075,1.317a24.386,24.386,0,1,0-24.136-24.621A24.458,24.458,0,0,0,207.152,202.576Zm-82.368-24.6a24.427,24.427,0,1,0,24.351-24.38A24.426,24.426,0,0,0,124.784,177.972Z" transform="translate(-81.901 -99.042)"/><path d="M280.479,336.672a1.773,1.773,0,0,0-2.488-.02l.442.065a2.345,2.345,0,0,1,.673.2.185.185,0,0,1,.026.325l-1.737,1.3a17.534,17.534,0,0,1-20.965,0l-1.743-1.3a.14.14,0,0,1,.016-.234,2.313,2.313,0,0,1,.826-.286l.442-.065a1.776,1.776,0,0,0-2.508,2.511l.062-.442a2.419,2.419,0,0,1,.2-.65.088.088,0,0,1,.169.029,13.137,13.137,0,0,0,26.062-.146.111.111,0,0,1,.2-.046,2.406,2.406,0,0,1,.28.816l.062.442A1.776,1.776,0,0,0,280.479,336.672Z" transform="translate(-170.697 -226.821)"/><path class="an" d="M187.584,379.835a4.2,4.2,0,0,0-4.189-4.192h-7.6a13.306,13.306,0,0,0,1.805-6.915v-.449h0a5.653,5.653,0,0,0-5.565-5.649h-.042a2.869,2.869,0,0,0-2.83,2.582c-.566,6.83-7.155,10.356-11.556,12.5V377a1.337,1.337,0,0,0-1.337-1.337H144.857A1.337,1.337,0,0,0,143.52,377v22.826a1.337,1.337,0,0,0,1.337,1.337h8.577a4.192,4.192,0,0,0,3.731-2.312c4.765,2.069,8.9,2.339,13.66,2.339.81,0,1.626,0,2.495-.016.943,0,1.922-.02,2.943-.02h4.228a4.189,4.189,0,0,0,3.61-6.319,4.189,4.189,0,0,0,1.428-5.708,4.189,4.189,0,0,0,.907-6.4A4.17,4.17,0,0,0,187.584,379.835Zm-32.651,17.137a1.516,1.516,0,0,1-1.516,1.516H151.9V394.12a1.34,1.34,0,1,0-2.677,0v4.368h-3.031V378.323h8.739v18.636Zm25.606-12.948h2.817a1.519,1.519,0,0,1,0,3.034h-2.8a1.337,1.337,0,0,0,0,2.674h1.376a1.516,1.516,0,1,1,0,3.031H180.5a1.34,1.34,0,0,0,0,2.677,1.516,1.516,0,0,1,0,3.031h-4.228c-1.034,0-2.017,0-2.969.016-5.962.059-10.343.1-15.664-2.374V380.668h0l.426-.2a37.851,37.851,0,0,0,8.248-4.983,14.62,14.62,0,0,0,5.529-10.05.2.2,0,0,1,.163-.13h0a2.992,2.992,0,0,1,2.927,2.979v.449a11.545,11.545,0,0,1-2.241,6.915h-2.127a1.34,1.34,0,0,0,0,2.677H183.4a1.516,1.516,0,0,1,0,3.031h-2.856a1.337,1.337,0,1,0,0,2.673Z" transform="translate(-96.828 -244.687)"/><path class="ao" d="M261.882,371.44h-2.856a1.34,1.34,0,0,0,0,2.677h2.856a1.34,1.34,0,0,0,0-2.677Z" transform="translate(-173.907 -250.632)"/><path class="ap" d="M200.166,371.437h-2.852a1.34,1.34,0,1,0,0,2.677h2.852a1.34,1.34,0,0,0,0-2.677Z" transform="translate(-132.177 -250.629)"/><path class="aq" d="M217.622,344.194l-1.428-2.472a1.337,1.337,0,1,0-2.316,1.337l1.428,2.472a1.337,1.337,0,0,0,2.316-1.337Z" transform="translate(-144.182 -230.129)"/><path class="ar" d="M247.874,341.236a1.337,1.337,0,0,0-1.828.488l-1.428,2.472a1.338,1.338,0,1,0,2.319,1.337l1.425-2.472a1.334,1.334,0,0,0-.488-1.825Z" transform="translate(-164.924 -230.13)"/><path class="am" d="M211.14,392.587l3.155-.029a1.568,1.568,0,0,0,1.044-.572,1.694,1.694,0,0,0,0-1.864c-.3-.537-2.169-.585-2.169-.585l-2.355-.107s-.137.059-.559-.452-.059-1.464-.059-1.464.439-.768,1.9-.651,3.363-.1,3.526-.92-.085-2.277-1.262-2.1h-8.209s-5.529.455-5.565-.241a1.366,1.366,0,0,1,.059-2.221s.543-.452.976-.208,1.906-.124,1.906-.124l.673-1.031,1-2.2s.891-2.979.537-3.779-.023-2.033-1.675-2.9-1.285.247-1.285.247l-.742,2.973-1.425,2.69-1.2,1.662L197.9,380.3l-1.425,1.226-5.978,3.652-1.324.651,1.324,1.529,10.785,7.068Z" transform="translate(-127.631 -250.199)"/></g></g></svg>