<?xml version="1.0" encoding="utf-8"?>
<!-- Generator: Adobe Illustrator 23.0.2, SVG Export Plug-In . SVG Version: 6.00 Build 0)  -->
<svg version="1.1" id="Layer_1" xmlns="http://www.w3.org/2000/svg" xmlns:xlink="http://www.w3.org/1999/xlink" x="0px" y="0px"
	 viewBox="0 0 132.3 48.1" style="enable-background:new 0 0 132.3 48.1;" xml:space="preserve">
<style type="text/css">
	.st0{fill:#2B2B2B;}
	.st1{fill:url(#SVGID_1_);}
	.st2{fill:url(#SVGID_2_);}
</style>
<title>ToastApp</title>
<g>
	<g id="finish">
		<path class="st0" d="M26.1,1.4V7c0.1,0.7-0.4,1.3-1.1,1.4c-0.1,0-0.2,0-0.3,0h-7.3v28.4c0.1,0.7-0.4,1.3-1.1,1.4
			c-0.1,0-0.2,0-0.3,0h-6c-0.7,0.1-1.3-0.4-1.4-1.1c0-0.1,0-0.2,0-0.3V8.4H1.4C0.7,8.5,0.1,8,0,7.3C0,7.2,0,7.1,0,7V1.4
			C-0.1,0.7,0.4,0.1,1.1,0c0.1,0,0.2,0,0.3,0h23.4c0.7-0.1,1.3,0.4,1.4,1.1C26.2,1.2,26.2,1.3,26.1,1.4z"/>
		
			<linearGradient id="SVGID_1_" gradientUnits="userSpaceOnUse" x1="23.97" y1="32.08" x2="52.84" y2="32.08" gradientTransform="matrix(1 0 0 -1 0 50)">
			<stop  offset="0" style="stop-color:#78FFD6"/>
			<stop  offset="1" style="stop-color:#007991"/>
		</linearGradient>
		<path class="st1" d="M24,17.9c0.2-8,6.8-14.3,14.8-14.1c7.7,0.2,13.9,6.4,14.1,14.1c-0.2,8-6.8,14.3-14.8,14.1
			C30.4,31.8,24.2,25.6,24,17.9z M44.7,17.9c0.1-3.5-2.6-6.4-6-6.5s-6.4,2.6-6.5,6c0,0.2,0,0.3,0,0.5c-0.1,3.5,2.6,6.4,6,6.5
			s6.4-2.6,6.5-6C44.7,18.3,44.7,18.1,44.7,17.9z"/>
		<path class="st0" d="M78.9,14.9v15.8c0.1,0.7-0.4,1.3-1.1,1.4c-0.1,0-0.2,0-0.3,0h-5.2c-0.7,0-1.3-0.5-1.3-1.1c0-0.1,0-0.1,0-0.2
			V30c-1.5,1.7-3.6,2.9-7,2.9c-4.8,0-9-2.8-9-8.5s4.2-8.5,9-8.5c2.5-0.1,5,0.6,7,2.1v-2.5c0-2.7-1.1-3.9-3.4-3.9
			c-1.7,0-2.7,0.6-3.2,1.6c-0.3,0.8-0.6,1.2-1.4,1.2h-5.4c-0.7,0.1-1.3-0.4-1.4-1.1c0-0.1,0-0.2,0-0.3C57,7.1,62,4.1,67.6,4.1
			C73.6,4.1,78.9,7.6,78.9,14.9z M70.9,24.4c0-1.7-1.5-2.7-4.1-2.7c-2.5,0-3.7,1.1-3.7,2.7s1.2,2.7,3.7,2.7
			C69.5,27.1,71,25.9,70.9,24.4L70.9,24.4z"/>
		<path class="st0" d="M104.1,24.5c0,6.3-5.3,8.9-11.3,8.9c-5.6,0-10.6-2.5-11.2-8.3c-0.1-0.6,0.2-1.3,0.9-1.4c0.1,0,0.3,0,0.4,0
			h5.3c0.8,0,1.1,0.4,1.5,1.1c0.4,0.9,1.5,1.5,3.1,1.5c2.3,0,3.2-0.8,3.2-1.9c0-3.9-14.2-0.3-14.2-10.9c0-6.2,5.3-8.9,11.1-8.9
			c5.1,0,10,2.5,10.7,8.3c0.1,0.6-0.2,1.3-0.9,1.4c-0.1,0-0.3,0-0.4,0h-5.3c-0.8,0-1.1-0.4-1.5-1.2c-0.5-0.9-1.5-1.5-2.6-1.4
			c-2,0-2.9,0.8-2.9,1.9C89.8,17.6,104.1,13.9,104.1,24.5z"/>
		<path class="st0" d="M122.5,10.6v5.1c0.1,0.7-0.4,1.3-1.1,1.4c-0.1,0-0.2,0-0.3,0h-3v18c0.1,0.7-0.4,1.3-1.1,1.4
			c-0.1,0-0.2,0-0.3,0h-5.4c-0.7,0.1-1.3-0.4-1.4-1.1c0-0.1,0-0.2,0-0.3v-18h-3c-0.7,0.1-1.3-0.4-1.4-1.1c0-0.1,0-0.2,0-0.3v-5.1
			c-0.1-0.7,0.4-1.3,1.1-1.4c0.1,0,0.2,0,0.3,0h3V1.9c-0.1-0.7,0.4-1.3,1.1-1.4c0.1,0,0.2,0,0.3,0h5.4c0.7-0.1,1.3,0.4,1.4,1.1
			c0,0.1,0,0.2,0,0.3v7.4h3c0.7-0.1,1.3,0.4,1.4,1.1C122.5,10.4,122.5,10.5,122.5,10.6z"/>
		
			<linearGradient id="SVGID_2_" gradientUnits="userSpaceOnUse" x1="123.5233" y1="20.9401" x2="132.2433" y2="20.9401" gradientTransform="matrix(1 0 0 -1 0 50)">
			<stop  offset="0" style="stop-color:#78FFD6"/>
			<stop  offset="1" style="stop-color:#007991"/>
		</linearGradient>
		<path class="st2" d="M123.5,32.1v-6c-0.1-0.7,0.4-1.3,1.1-1.4c0.1,0,0.2,0,0.3,0h6c0.7-0.1,1.3,0.4,1.4,1.1c0,0.1,0,0.2,0,0.3v6
			c0.1,0.7-0.4,1.3-1.1,1.4c-0.1,0-0.2,0-0.3,0h-6c-0.7,0.1-1.3-0.4-1.4-1.1C123.5,32.2,123.5,32.1,123.5,32.1z"/>
		<path class="st0" d="M101.2,45.4h-1.7c-0.2,0-0.3-0.1-0.4-0.3l-0.3-1.2h-3.3l-0.3,1.2c0,0.2-0.2,0.3-0.4,0.3H93
			c-0.3,0-0.4-0.1-0.3-0.4l2.9-8.8c0-0.2,0.2-0.3,0.4-0.3h2.2c0.2,0,0.3,0.1,0.4,0.3l2.9,8.8C101.5,45.2,101.4,45.4,101.2,45.4z
			 M98.2,41.8l-1.1-3.6L96,41.8H98.2z"/>
		<path class="st0" d="M109.6,42c0.1,1.9-1.4,3.5-3.2,3.6c0,0,0,0,0,0c-0.8,0-1.5-0.3-2-0.8v3c0,0.2-0.1,0.3-0.3,0.3c0,0,0,0-0.1,0
			h-1.4c-0.2,0-0.3-0.1-0.3-0.3c0,0,0,0,0-0.1v-8.8c0-0.2,0.1-0.3,0.3-0.3c0,0,0,0,0.1,0h1.3c0.2,0,0.3,0.1,0.3,0.3c0,0,0,0,0,0.1
			v0.3c0.5-0.6,1.2-0.9,2-0.8C108.2,38.5,109.7,40.1,109.6,42C109.6,42,109.6,42,109.6,42z M107.6,42c0-0.9-0.8-1.6-1.6-1.6
			c-0.9,0-1.6,0.8-1.6,1.6c0,0.9,0.7,1.6,1.6,1.6c0.9,0,1.6-0.7,1.6-1.5C107.6,42.1,107.6,42,107.6,42L107.6,42z"/>
		<path class="st0" d="M118.1,42c0.1,1.9-1.3,3.5-3.2,3.6c0,0,0,0,0,0c-0.8,0-1.5-0.3-2-0.8v3c0,0.2-0.1,0.3-0.3,0.3c0,0,0,0-0.1,0
			h-1.4c-0.2,0-0.3-0.1-0.3-0.3c0,0,0,0,0-0.1v-8.8c0-0.2,0.1-0.3,0.3-0.3c0,0,0,0,0.1,0h1.4c0.2,0,0.3,0.1,0.3,0.3c0,0,0,0,0,0v0.3
			c0.5-0.6,1.2-0.9,2-0.8C116.7,38.5,118.1,40.1,118.1,42C118.1,42,118.1,42,118.1,42z M116.1,42c0-0.9-0.8-1.6-1.7-1.6
			s-1.6,0.8-1.6,1.7c0,0.9,0.7,1.6,1.6,1.6c0.9,0,1.6-0.7,1.6-1.5C116,42.1,116,42,116.1,42L116.1,42z"/>
	</g>
</g>
</svg>
