<svg xmlns="http://www.w3.org/2000/svg" width="338.971" height="323.176" viewBox="0 0 338.971 323.176"><defs><style>.a{fill:#2cd5eb;opacity:0.101;}</style></defs><path class="a" d="M144.053,266.674c15.8,2.032,31.744,2.336,47.647,2.946,7.291.279,14.44-.057,21.171,2.558,6.3,2.449,11.335,7.366,17.839,9.473,5.047,1.635,10.492,1.577,15.764.978a79.964,79.964,0,0,0,69.966-91.823c-1.886-12.312-7.552-23.794-8.91-36.2-1.436-13.115,3.574-24.548,6.739-37.02a95,95,0,0,0,2.854-26.674c-.183-5.166-.832-10.461-3.276-15.016-6.638-12.373-23.378-14.707-37.35-13.312a130.762,130.762,0,0,0-49.764,15.463c-12.014,6.634-23.913,16.29-37.7,18.908-15.547,2.951-27.572-7.7-41.563-12.562C115.989,73.46,77.981,94.938,64.1,123.5c-17.132,35.265-15.182,92.954,16.886,119.125,17.475,14.262,39.994,21,62.357,23.953Z" transform="translate(95.253 -80.595) rotate(30)"/></svg>