<svg xmlns="http://www.w3.org/2000/svg" xmlns:xlink="http://www.w3.org/1999/xlink" viewBox="0 0 20 20"><defs><style>.cls-1{fill:none;}.cls-2{fill:url(#linear-gradient);}</style><linearGradient id="linear-gradient" x1="22.32" y1="-4.78" x2="-0.56" y2="22.67" gradientUnits="userSpaceOnUse"><stop offset="0" stop-color="#78ffd6"/><stop offset="0.25" stop-color="#5ee2c7"/><stop offset="0.79" stop-color="#1c98a1"/><stop offset="1" stop-color="#007991"/></linearGradient></defs><title>color</title><g id="Layer_2" data-name="Layer 2"><g id="keylines"><rect class="cls-1" width="20" height="20"/><path class="cls-2" d="M16.47.83H3.53a2.7,2.7,0,0,0-2.7,2.7V16.47a2.7,2.7,0,0,0,2.7,2.7H16.47a2.7,2.7,0,0,0,2.7-2.7V3.53A2.7,2.7,0,0,0,16.47.83Zm-.12,8a1,1,0,0,1-1.26.93c-.49,0-1-.1-1.45-.1-.94,0-1.12.16-1.15,1.09s0,1.78,0,2.68a4,4,0,0,1-.13,1,.88.88,0,0,1-.59.62,3.44,3.44,0,0,1-1.14.18,11.37,11.37,0,0,1-1.75,0h-.1c-.83-.11-1.11-.42-1.19-1.3a15.75,15.75,0,0,1,0-1.82,11.2,11.2,0,0,0-.06-1.83A.55.55,0,0,0,7,9.76a4,4,0,0,0-1.24,0,7.26,7.26,0,0,1-1.14.06A.91.91,0,0,1,3.7,9a6.31,6.31,0,0,1-.15-2.63A1.79,1.79,0,0,1,5.27,4.88c1.27,0,2.54-.16,3.82-.16H10c1.6-.07,3.2.1,4.8.16a1.82,1.82,0,0,1,1.68,1.71A6.92,6.92,0,0,1,16.35,8.86Z"/></g></g></svg>