<svg xmlns="http://www.w3.org/2000/svg" width="27.727" height="27.727" viewBox="0 0 27.727 27.727"><defs><style>.a{fill:#f7b239;}.b{fill:#e09b2d;}.c{fill:#fff;}.d{fill:#a81004;}.e{fill:#f95428;}</style></defs><ellipse class="a" cx="13.368" cy="13.368" rx="13.368" ry="13.368" transform="translate(0.495 0.495)"/><path class="b" d="M15.494,78.065a13.371,13.371,0,0,1-1.137-17.613A13.368,13.368,0,1,0,33.107,79.2,13.37,13.37,0,0,1,15.494,78.065Z" transform="translate(-8.654 -57.178)"/><path class="c" d="M127.911,273.724h13.477a6.734,6.734,0,0,1-.355,2.163H128.266A6.733,6.733,0,0,1,127.911,273.724Z" transform="translate(-120.984 -258.901)"/><path class="d" d="M134.462,313.665H147.23a6.75,6.75,0,0,1-2.438,3.3,2.708,2.708,0,0,0-3.946-.792,2.708,2.708,0,0,0-3.946.792A6.75,6.75,0,0,1,134.462,313.665Z" transform="translate(-127.18 -296.679)"/><path class="e" d="M185.039,350.08a2.706,2.706,0,0,1,2.33,1.327,6.738,6.738,0,0,1-7.892,0,2.709,2.709,0,0,1,3.946-.792A2.694,2.694,0,0,1,185.039,350.08Z" transform="translate(-169.757 -331.122)"/><path d="M13.864,0A13.864,13.864,0,1,0,27.727,13.864,13.879,13.879,0,0,0,13.864,0Zm0,26.736A12.873,12.873,0,1,1,26.736,13.864,12.887,12.887,0,0,1,13.864,26.736Z" transform="translate(0)"/><path d="M114.706,174.644a1.833,1.833,0,1,0-1.833-1.833A1.835,1.835,0,0,0,114.706,174.644Z" transform="translate(-106.76 -161.719)"/><path d="M333.258,170.979a1.833,1.833,0,1,0,1.833,1.833A1.835,1.835,0,0,0,333.258,170.979Z" transform="translate(-313.477 -161.72)"/><path d="M132.734,264.574H119.257a.5.5,0,0,0-.5.5,7.235,7.235,0,0,0,14.087,2.322h0a7.227,7.227,0,0,0,.381-2.322A.5.5,0,0,0,132.734,264.574Zm-.515.991a6.216,6.216,0,0,1-.206,1.172H119.978a6.22,6.22,0,0,1-.206-1.172Zm-9.461,4.844a2.223,2.223,0,0,1,1.621-.708,2.193,2.193,0,0,1,1.321.437.5.5,0,0,0,.592,0,2.192,2.192,0,0,1,1.32-.437,2.224,2.224,0,0,1,1.621.709,6.247,6.247,0,0,1-6.474,0Zm7.281-.583a3.221,3.221,0,0,0-2.428-1.117,3.177,3.177,0,0,0-1.616.437,3.176,3.176,0,0,0-1.617-.437,3.218,3.218,0,0,0-2.428,1.117,6.2,6.2,0,0,1-1.607-2.1h11.3A6.2,6.2,0,0,1,130.039,269.826Z" transform="translate(-112.33 -250.246)"/><g transform="translate(7.654 10.347)"><ellipse class="c" cx="0.496" cy="0.496" rx="0.496" ry="0.496"/><ellipse class="c" cx="0.496" cy="0.496" rx="0.496" ry="0.496" transform="translate(11.826)"/></g></svg>