<svg xmlns="http://www.w3.org/2000/svg" xmlns:xlink="http://www.w3.org/1999/xlink" width="30" height="30" viewBox="0 0 30 30"><defs><style>.a{fill:none;}.b{clip-path:url(#a);}.c{fill:#9ad14b;}.d{fill:#90bc42;}.e{fill:#fff;}</style><clipPath id="a"><rect class="a" width="30" height="30"/></clipPath></defs><g class="b"><ellipse class="c" cx="14.505" cy="14.505" rx="14.505" ry="14.505" transform="translate(0.495 0.496)"/><g transform="translate(0.495 3.274)"><path class="d" d="M16.1,79.737a14.639,14.639,0,0,1-1.245-19.284A14.636,14.636,0,1,0,35.381,80.982,14.639,14.639,0,0,1,16.1,79.737Z" transform="translate(-9.15 -60.453)"/><path class="d" d="M220.428,370.959a.5.5,0,0,1-.168-.029,4.34,4.34,0,0,0-2.934,0,.5.5,0,1,1-.336-.932,5.333,5.333,0,0,1,3.605,0,.5.5,0,0,1-.168.962Z" transform="translate(-204.128 -351.259)"/></g><path d="M15,0A15,15,0,1,0,30,15,15.017,15.017,0,0,0,15,0Zm0,28.927A13.928,13.928,0,1,1,28.929,15,13.943,13.943,0,0,1,15,28.927Z" transform="translate(-0.001)"/><path d="M148.189,292.367a.5.5,0,1,0,0-.991,2.977,2.977,0,0,0-2.931,2.477h-6.183a2.977,2.977,0,0,0-2.931-2.477.5.5,0,1,0,0,.991,1.982,1.982,0,1,1,0,3.964.5.5,0,1,0,0,.991,2.977,2.977,0,0,0,2.931-2.477h6.183a2.977,2.977,0,0,0,2.931,2.477.5.5,0,1,0,0-.991,1.982,1.982,0,1,1,0-3.964Z" transform="translate(-127.166 -273.95)"/><path d="M116.539,205.423a1.833,1.833,0,1,0-1.833,1.833A1.835,1.835,0,0,0,116.539,205.423Z" transform="translate(-106.183 -191.523)"/><path d="M333.258,203.59a1.833,1.833,0,1,0,1.833,1.833A1.835,1.835,0,0,0,333.258,203.59Z" transform="translate(-311.781 -191.523)"/><path d="M113.244,120.021a2.719,2.719,0,0,0,.665.083,2.684,2.684,0,0,0,2.591-3.339.5.5,0,1,0-.961.242,1.691,1.691,0,0,1-2.053,2.053.5.5,0,1,0-.242.961Z" transform="translate(-106.179 -109.491)"/><path d="M333.236,120.1a2.717,2.717,0,0,0,.665-.083.5.5,0,0,0-.242-.961,1.691,1.691,0,0,1-2.053-2.053.5.5,0,1,0-.961-.242,2.684,2.684,0,0,0,2.591,3.339Z" transform="translate(-310.967 -109.49)"/><g transform="translate(9.319 12.961)"><path class="e" d="M364.784,221.576a.5.5,0,0,1-.351-.145.522.522,0,0,1-.061-.075.51.51,0,0,1-.074-.178.521.521,0,0,1-.009-.1.533.533,0,0,1,.009-.1.508.508,0,0,1,.028-.092.543.543,0,0,1,.046-.086.523.523,0,0,1,.061-.075.5.5,0,0,1,.447-.135.494.494,0,0,1,.092.028.505.505,0,0,1,.086.046.519.519,0,0,1,.075.061.48.48,0,0,1,.061.075.533.533,0,0,1,.046.086.5.5,0,0,1,.028.092.479.479,0,0,1,.01.1.474.474,0,0,1-.01.1.5.5,0,0,1-.028.092.507.507,0,0,1-.046.086.482.482,0,0,1-.137.137.511.511,0,0,1-.086.046.5.5,0,0,1-.092.028A.485.485,0,0,1,364.784,221.576Z" transform="translate(-352.661 -220.584)"/><path class="e" d="M150.077,221.574a.483.483,0,0,1-.1-.01.5.5,0,0,1-.092-.028.535.535,0,0,1-.086-.046.479.479,0,0,1-.075-.061.5.5,0,0,1-.145-.35.531.531,0,0,1,.009-.1.5.5,0,0,1,.028-.092.531.531,0,0,1,.046-.086.481.481,0,0,1,.137-.137.538.538,0,0,1,.086-.046.493.493,0,0,1,.54.107.482.482,0,0,1,.061.075.491.491,0,0,1,.046.086.5.5,0,0,1,.028.092.48.48,0,0,1,.01.1.5.5,0,0,1-.5.5Z" transform="translate(-149.581 -220.583)"/></g></g></svg>