<svg xmlns="http://www.w3.org/2000/svg" xmlns:xlink="http://www.w3.org/1999/xlink" width="30" height="30" viewBox="0 0 30 30"><defs><style>.a{fill:none;}.b{clip-path:url(#a);}.c{fill:#f7b239;}.d{fill:#e09b2d;}</style><clipPath id="a"><rect class="a" width="30" height="30"/></clipPath></defs><g class="b"><ellipse class="c" cx="14.505" cy="14.504" rx="14.505" ry="14.504" transform="translate(0.495 0.496)"/><path class="d" d="M16.1,79.736a14.638,14.638,0,0,1-1.245-19.284A14.636,14.636,0,1,0,35.38,80.981,14.639,14.639,0,0,1,16.1,79.736Z" transform="translate(-8.653 -57.178)"/><path d="M15,30A15,15,0,1,1,30,15,15.017,15.017,0,0,1,15,30ZM15,1.073A13.927,13.927,0,1,0,28.928,15,13.943,13.943,0,0,0,15,1.073Z" transform="translate(0 -0.001)"/><path d="M101.481,197.253a.5.5,0,0,1-.426-.241,2.456,2.456,0,0,0-4.217,0,.5.5,0,0,1-.851-.508,3.447,3.447,0,0,1,5.919,0,.5.5,0,0,1-.425.75Z" transform="translate(-90.178 -183.326)"/><path d="M309.763,197.253a.5.5,0,0,1-.426-.241,2.456,2.456,0,0,0-4.217,0,.5.5,0,1,1-.851-.508,3.447,3.447,0,0,1,5.919,0,.5.5,0,0,1-.425.75Z" transform="translate(-285.998 -183.326)"/><path d="M124.982,305.819a13.016,13.016,0,0,1-8.536-3.069.451.451,0,0,1,0-.7.632.632,0,0,1,.806,0,12.139,12.139,0,0,0,15.46,0,.632.632,0,0,1,.806,0,.451.451,0,0,1,0,.7A13.02,13.02,0,0,1,124.982,305.819Z" transform="translate(-109.982 -283.995)"/><path class="d" d="M208.206,387a8.79,8.79,0,0,1-2.375-.327.5.5,0,0,1,.268-.954,7.8,7.8,0,0,0,4.214,0,.5.5,0,1,1,.268.954A8.8,8.8,0,0,1,208.206,387Z" transform="translate(-193.205 -363.014)"/></g></svg>