<svg xmlns="http://www.w3.org/2000/svg" xmlns:xlink="http://www.w3.org/1999/xlink" width="30" height="30" viewBox="0 0 30 30"><defs><style>.a{fill:none;}.b{clip-path:url(#a);}.c{fill:#f7b239;}.d{fill:#e09b2d;}</style><clipPath id="a"><rect class="a" width="30" height="30"/></clipPath></defs><g class="b"><ellipse class="c" cx="14.505" cy="14.505" rx="14.505" ry="14.505" transform="translate(0.495 0.496)"/><path class="d" d="M16.1,79.737a14.639,14.639,0,0,1-1.245-19.284A14.636,14.636,0,1,0,35.38,80.982,14.639,14.639,0,0,1,16.1,79.737Z" transform="translate(-8.653 -57.179)"/><path d="M15,30A15,15,0,1,1,30,15,15.017,15.017,0,0,1,15,30ZM15,1.073A13.928,13.928,0,1,0,28.928,15,13.943,13.943,0,0,0,15,1.073Z" transform="translate(0 -0.001)"/><path d="M307.229,138.943h0a3.419,3.419,0,0,1-2.959-1.679.5.5,0,0,1,.851-.508,2.456,2.456,0,0,0,4.217,0,.5.5,0,1,1,.851.508A3.419,3.419,0,0,1,307.229,138.943Z" transform="translate(-285.998 -128.457)"/><path d="M98.945,138.943a3.419,3.419,0,0,1-2.959-1.679.5.5,0,0,1,.851-.508,2.456,2.456,0,0,0,4.217,0,.5.5,0,1,1,.851.508A3.419,3.419,0,0,1,98.945,138.943Z" transform="translate(-90.177 -128.457)"/><path d="M116.847,226.522a.615.615,0,0,1-.4-.145.451.451,0,0,1,0-.7,13.405,13.405,0,0,1,17.072,0,.451.451,0,0,1,0,.7.632.632,0,0,1-.806,0,12.139,12.139,0,0,0-15.46,0A.615.615,0,0,1,116.847,226.522Z" transform="translate(-109.98 -209.401)"/><path class="d" d="M210.447,260.547a.5.5,0,0,1-.134-.018,7.8,7.8,0,0,0-4.214,0,.5.5,0,0,1-.268-.954,8.8,8.8,0,0,1,4.749,0,.5.5,0,0,1-.134.973Z" transform="translate(-193.205 -244)"/></g></svg>