<svg xmlns="http://www.w3.org/2000/svg" xmlns:xlink="http://www.w3.org/1999/xlink" width="123.811" height="36.781" viewBox="0 0 123.811 36.781"><defs><style>.a{fill:#404040;}.b{fill:url(#a);}.c{fill:url(#b);}</style><linearGradient id="a" x1="0.957" y1="-0.782" x2="0" y2="1.659" gradientUnits="objectBoundingBox"><stop offset="0" stop-color="#78ffd6"/><stop offset="1" stop-color="#007991"/></linearGradient><linearGradient id="b" x1="0.815" y1="-0.701" x2="-0.128" y2="1.919" xlink:href="#a"/></defs><g transform="translate(0 0)"><path class="a" d="M25.188,1.3,25.2,6.757a1.19,1.19,0,0,1-1.308,1.318l-7.083.02.079,27.343a1.19,1.19,0,0,1-1.308,1.318l-5.765.016A1.191,1.191,0,0,1,8.5,35.463L8.42,8.12l-7.083.02A1.191,1.191,0,0,1,.02,6.832L0,1.372A1.19,1.19,0,0,1,1.308.054L16.791.01l7.083-.02A1.194,1.194,0,0,1,25.188,1.3Z" transform="translate(0 0.01)"/><path class="b" d="M131,41.284A13.906,13.906,0,1,1,144.946,55.1,13.754,13.754,0,0,1,131,41.284Zm19.931-.058a6.034,6.034,0,1,0-12.064.035,6.034,6.034,0,1,0,12.064-.035Z" transform="translate(-109.422 -22.876)"/><path class="a" d="M329.352,37.567l.044,15.218a1.192,1.192,0,0,1-1.31,1.318l-5.037.015a1.19,1.19,0,0,1-1.318-1.308V52.06a8.315,8.315,0,0,1-6.762,2.815c-4.612.013-8.666-2.7-8.681-8.16s4.016-8.2,8.634-8.211A10.694,10.694,0,0,1,321.7,40.48V38.112c-.008-2.571-1.061-3.723-3.265-3.716a3.074,3.074,0,0,0-3.039,1.53c-.313.735-.573,1.153-1.361,1.153l-5.142.015a1.186,1.186,0,0,1-1.318-1.361c.659-5.67,5.485-8.565,10.837-8.583C324.18,27.138,329.332,30.482,329.352,37.567Zm-7.626,9.1c0-1.627-1.425-2.621-4-2.612-2.415,0-3.564,1.112-3.561,2.635s1.163,2.621,3.576,2.612C320.307,49.294,321.725,48.187,321.725,46.667Z" transform="translate(-255.839 -22.676)"/><path class="a" d="M483.773,46.108c.016,6.035-5.118,8.621-10.891,8.638C467.53,54.76,462.7,52.36,462.05,46.8a1.128,1.128,0,0,1,1.255-1.369l5.142-.015c.787,0,1.051.417,1.42,1.1.423.889,1.422,1.412,3,1.408,2.2,0,3.041-.745,3.037-1.794-.012-3.779-13.7-.275-13.726-10.455-.016-5.93,5.118-8.621,10.628-8.636,4.876-.007,9.652,2.385,10.3,7.946a1.128,1.128,0,0,1-1.255,1.367l-5.142.015c-.787,0-1.051-.417-1.42-1.153a2.522,2.522,0,0,0-2.471-1.357c-1.942,0-2.779.743-2.775,1.792C470.048,39.535,483.735,35.875,483.773,46.108Z" transform="translate(-385.931 -22.584)"/><path class="a" d="M613.127,15.522l.015,4.932a1.194,1.194,0,0,1-1.318,1.318l-2.886.008.051,17.369a1.191,1.191,0,0,1-1.308,1.318l-5.248.016a1.191,1.191,0,0,1-1.318-1.308l-.049-17.369h-2.886a1.191,1.191,0,0,1-1.318-1.308l0-4.922a1.191,1.191,0,0,1,1.308-1.318l2.887-.008-.021-7.083a1.191,1.191,0,0,1,1.308-1.318l5.248-.02a1.19,1.19,0,0,1,1.318,1.308l.02,7.083,2.886-.008A1.189,1.189,0,0,1,613.127,15.522Z" transform="translate(-498.547 -4.868)"/><path class="c" d="M700.636,127.3l-.016-5.765a1.19,1.19,0,0,1,1.308-1.318l5.765-.016a1.19,1.19,0,0,1,1.318,1.308l.016,5.765a1.19,1.19,0,0,1-1.308,1.318l-5.765.016A1.188,1.188,0,0,1,700.636,127.3Z" transform="translate(-585.216 -100.399)"/></g></svg>