<svg xmlns="http://www.w3.org/2000/svg" width="20" height="20" viewBox="0 0 20 20"><defs><style>.a{opacity:0.5;}.b{fill:#656565;}</style></defs><g class="a"><path class="b" d="M20,10A10,10,0,1,0,30,20,9.978,9.978,0,0,0,20,10Zm0,5.04a1.24,1.24,0,1,1-1.24,1.24A1.221,1.221,0,0,1,20,15.04Zm2.08,8.76a.39.39,0,0,1-.42.38H18.34a.388.388,0,0,1-.42-.38v-.84a.457.457,0,0,1,.42-.46.388.388,0,0,0,.42-.38V20.46a.457.457,0,0,0-.42-.46.388.388,0,0,1-.42-.38V18.8a.457.457,0,0,1,.42-.46h2.5a.46.46,0,0,1,.42.46v3.34a.39.39,0,0,0,.42.38.46.46,0,0,1,.42.46v.82Z" transform="translate(-10 -10)"/></g></svg>