<svg xmlns="http://www.w3.org/2000/svg" width="286.617" height="255.289" viewBox="0 0 286.617 255.289"><defs><style>.a{fill:#e9fbfd;opacity:0.6;}</style></defs><path class="a" d="M138.849,254.936c14.9,1.916,29.922,2.2,44.911,2.777,6.873.263,13.611-.054,19.956,2.411,5.941,2.309,10.685,6.943,16.815,8.929,4.757,1.541,9.89,1.487,14.859.922a75.373,75.373,0,0,0,65.949-86.551c-1.778-11.605-7.118-22.428-8.4-34.121-1.353-12.362,3.368-23.139,6.352-34.894a89.542,89.542,0,0,0,2.691-25.143c-.173-4.87-.784-9.86-3.088-14.154-6.257-11.662-22.036-13.863-35.206-12.548a123.255,123.255,0,0,0-46.906,14.575c-11.324,6.253-22.54,15.355-35.536,17.822-14.654,2.782-25.989-7.26-39.177-11.841C112.4,72.815,76.57,93.06,63.488,119.986,47.34,153.226,49.178,207.6,79.4,232.271c16.472,13.443,37.7,19.8,58.777,22.578Z" transform="matrix(-0.978, -0.208, 0.208, -0.978, 282.652, 327.261)"/></svg>