<svg xmlns="http://www.w3.org/2000/svg" xmlns:xlink="http://www.w3.org/1999/xlink" width="185.731" height="187.107" viewBox="0 0 185.731 187.107"><defs><style>.a{opacity:0.3;}.b{fill:url(#a);}.c{fill:url(#b);}.d{fill:url(#c);}.e{fill:url(#d);}.f{fill:url(#e);}.g{fill:url(#f);}.h{fill:url(#g);}.i{fill:url(#h);}.j{fill:url(#i);}.k{fill:url(#j);}.l{fill:url(#k);}.m{fill:url(#l);}.n{fill:url(#m);}.o{fill:url(#n);}.p{fill:url(#o);}.q{fill:url(#p);}.r{fill:url(#q);}.s{fill:url(#r);}.t{fill:url(#s);}.u{fill:url(#t);}.v{fill:url(#u);}.w{fill:url(#v);}.x{fill:url(#w);}.y{fill:url(#x);}.z{fill:url(#y);}.aa{fill:url(#z);}.ab{fill:url(#aa);}.ac{fill:url(#ab);}.ad{fill:url(#ac);}.ae{fill:url(#ad);}.af{fill:url(#ae);}.ag{fill:url(#af);}.ah{fill:url(#ag);}.ai{fill:url(#ah);}.aj{fill:#ffc380;}.ak{fill:#ff556b;}.al{fill:#e29764;}.am{fill:#eaeaea;}.an{fill:#ededed;}.ao{fill:#d3d3d3;}.ap{fill:#fff;}</style><linearGradient id="a" x1="0.003" y1="0.596" x2="1.005" y2="0.596" gradientUnits="objectBoundingBox"><stop offset="0" stop-color="#6ac9c8"/><stop offset="0.14" stop-color="#6cc9c4"/><stop offset="0.28" stop-color="#72cab8"/><stop offset="0.42" stop-color="#7bcca3"/><stop offset="0.57" stop-color="#88cf86"/><stop offset="0.71" stop-color="#99d261"/><stop offset="0.86" stop-color="#aed634"/><stop offset="1" stop-color="#c6da00"/><stop offset="1" stop-color="#d7df23"/></linearGradient><linearGradient id="b" x1="0.007" y1="0.665" x2="1.006" y2="0.665" xlink:href="#a"/><linearGradient id="c" x1="0.018" y1="0.606" x2="1.013" y2="0.606" xlink:href="#a"/><linearGradient id="d" x1="-0.023" y1="0.691" x2="0.977" y2="0.691" gradientUnits="objectBoundingBox"><stop offset="0" stop-color="#ff77ad"/><stop offset="1" stop-color="#9a559f"/></linearGradient><linearGradient id="e" x1="-0.011" y1="0.643" x2="0.989" y2="0.643" gradientUnits="objectBoundingBox"><stop offset="0" stop-color="#ed1846"/><stop offset="0.1" stop-color="#ed204c"/><stop offset="0.24" stop-color="#ee365b"/><stop offset="0.43" stop-color="#ef5a75"/><stop offset="0.64" stop-color="#f08c99"/><stop offset="0.87" stop-color="#f1cbc6"/><stop offset="1" stop-color="#f2f2e2"/></linearGradient><linearGradient id="f" x1="-0.023" y1="0.625" x2="0.98" y2="0.625" xlink:href="#a"/><linearGradient id="g" x1="0.004" y1="0.638" x2="0.999" y2="0.638" xlink:href="#a"/><linearGradient id="h" x1="-0.018" y1="0.716" x2="0.983" y2="0.716" xlink:href="#d"/><linearGradient id="i" x1="0.017" y1="0.693" x2="1.018" y2="0.693" xlink:href="#e"/><linearGradient id="j" x1="-0.018" y1="0.66" x2="0.978" y2="0.66" xlink:href="#a"/><linearGradient id="k" x1="0.002" y1="0.688" x2="1.002" y2="0.688" gradientUnits="objectBoundingBox"><stop offset="0" stop-color="#cce0f4"/><stop offset="0.23" stop-color="#96cced"/><stop offset="0.61" stop-color="#46ade2"/><stop offset="0.87" stop-color="#139adb"/><stop offset="1" stop-color="#0093d8"/></linearGradient><linearGradient id="l" x1="0.021" y1="0.642" x2="1.025" y2="0.642" xlink:href="#a"/><linearGradient id="m" x1="-0.001" y1="0.7" x2="0.997" y2="0.7" xlink:href="#e"/><linearGradient id="n" x1="-0.032" y1="0.729" x2="0.968" y2="0.729" gradientUnits="objectBoundingBox"><stop offset="0" stop-color="#ffe100"/><stop offset="0.11" stop-color="#ffc51b"/><stop offset="0.27" stop-color="#ffa63b"/><stop offset="0.43" stop-color="#ff8d54"/><stop offset="0.61" stop-color="#ff7b65"/><stop offset="0.79" stop-color="#ff7070"/><stop offset="1" stop-color="#ff6d73"/></linearGradient><linearGradient id="o" x1="0.024" y1="0.649" x2="1.02" y2="0.649" xlink:href="#n"/><linearGradient id="p" x1="-0.01" y1="0.87" x2="0.991" y2="0.87" xlink:href="#a"/><linearGradient id="q" x1="-0.006" y1="0.709" x2="0.995" y2="0.709" xlink:href="#a"/><linearGradient id="r" x1="0.012" y1="0.784" x2="1.012" y2="0.784" xlink:href="#n"/><linearGradient id="s" x1="-0.07" y1="0.68" x2="0.926" y2="0.68" xlink:href="#a"/><linearGradient id="t" x1="-0.028" y1="0.766" x2="0.976" y2="0.766" xlink:href="#a"/><linearGradient id="u" x1="0.026" y1="0.924" x2="1.025" y2="0.924" xlink:href="#d"/><linearGradient id="v" x1="-0.049" y1="0.874" x2="0.953" y2="0.874" xlink:href="#n"/><linearGradient id="w" x1="0.045" y1="0.855" x2="1.04" y2="0.855" xlink:href="#k"/><linearGradient id="x" x1="0.037" y1="0.919" x2="1.039" y2="0.919" xlink:href="#d"/><linearGradient id="y" x1="-0.046" y1="1.029" x2="0.953" y2="1.029" xlink:href="#n"/><linearGradient id="z" x1="0.036" y1="1.228" x2="1.037" y2="1.228" xlink:href="#n"/><linearGradient id="aa" x1="-0.031" y1="1.111" x2="0.969" y2="1.111" xlink:href="#d"/><linearGradient id="ab" x1="-0.067" y1="1.076" x2="0.934" y2="1.076" xlink:href="#k"/><linearGradient id="ac" x1="0.05" y1="0.968" x2="1.048" y2="0.968" xlink:href="#d"/><linearGradient id="ad" x1="0.012" y1="1.011" x2="1.013" y2="1.011" xlink:href="#k"/><linearGradient id="ae" x1="0.024" y1="1.045" x2="1.026" y2="1.045" xlink:href="#k"/><linearGradient id="af" x1="-0.075" y1="1.29" x2="0.926" y2="1.29" xlink:href="#k"/><linearGradient id="ag" x1="0.048" y1="1.162" x2="1.046" y2="1.162" xlink:href="#n"/><linearGradient id="ah" x1="-0.012" y1="1.136" x2="0.989" y2="1.136" xlink:href="#d"/></defs><g class="a" transform="translate(0.041)"><g transform="translate(-0.041)"><path d="M470.2,436.568v.283c-.112,1.793-1.022,3.11-2.195,3.168s-2.1-1.086-2.249-3.03a22.6,22.6,0,0,0-4.3-11.792c-2.738-3.779-6.32-5.372-10.992-4.264-3.409.806-6.825,1.607-10.282,2.214-6.105,1.1-11.22-.765-15-5.684a9.928,9.928,0,0,1-1.652-4.624c-.228-1.664.964-2.4,2.538-1.771a26.991,26.991,0,0,1,3.435,1.841,9,9,0,0,1,1.343,1c3.769,3.2,7.59,3.756,11.792.643a14.947,14.947,0,0,1,7.9-3.017c5.723-.376,9.9,2.416,13.286,6.716,3.159,4.007,4.473,8.772,5.585,13.614.353,1.546.594,3.114.887,4.672Zm-45.251-24.889a5.5,5.5,0,0,0,1.626,5.289,13.117,13.117,0,0,0,12.7,4.2c3.483-.659,6.931-1.507,10.407-2.211,5.71-1.157,10.218.665,13.4,5.584a24.944,24.944,0,0,1,3.795,12.139,17.1,17.1,0,0,0,.492,2.31c1.533-.932,1.285-2.076,1.064-3.072-.643-2.866-1.343-5.713-2.073-8.56a23.822,23.822,0,0,0-4.007-8.264c-3.933-5.36-10.1-8.174-17.165-4.052-1.372.8-2.76,1.571-4.177,2.294a7.159,7.159,0,0,1-7.23-.067c-1.68-.983-3.242-2.172-4.887-3.213C427.685,413.259,426.41,412.543,424.948,411.678Z" transform="translate(-287.411 -278.833)"/><path d="M172.228,463.927A26.4,26.4,0,0,1,168,462.642a3.684,3.684,0,0,1-.643-6.426c1.986-1.639,4.428-1.793,6.857-1.986,2.32-.18,4.659-.273,6.95-.643,3.628-.6,6.005-3.094,8.386-5.684a21.11,21.11,0,0,1,5.273-4.2c2.683-1.475,4.569,1.182,4.177,3.136a8.943,8.943,0,0,1-1.806,4.126,39.313,39.313,0,0,1-21.827,12.461c-1,.2-2.037.218-3.059.321Zm.145-1.314.045-.174a17.571,17.571,0,0,0,2.371-.174,38.285,38.285,0,0,0,19.748-11.015,7.192,7.192,0,0,0,2.426-4.46,2.743,2.743,0,0,0-.569-2c-.321-.321-1.266-.077-1.905.051a2.291,2.291,0,0,0-1.06.643c-1.314,1.317-2.683,2.6-3.856,4.026-2.22,2.7-4.711,5.022-8.258,5.629-2.609.447-5.289.463-7.917.8a25.975,25.975,0,0,0-4.865,1.064,2.09,2.09,0,0,0-1.472,2.554,3.856,3.856,0,0,0,1.7,2.146A16.585,16.585,0,0,0,172.373,462.613Z" transform="translate(-112.489 -300.845)"/><path d="M315.915,457.859a19,19,0,0,1-7.712,16.58c-1.828,1.423-3.872,2.493-6.34,2.06a3.1,3.1,0,0,1-2.722-3.727c.411-3.268,2.249-5.784,4.331-8.149a8.153,8.153,0,0,1,1.719-1.645c2.4-1.475,2.8-3.8,2.844-6.3.032-1.87-.035-3.747.074-5.613a7.577,7.577,0,0,1,.665-2.677,2.99,2.99,0,0,1,2.818-1.957,2.656,2.656,0,0,1,2.686,1.88,68.876,68.876,0,0,1,1.607,6.886A12.923,12.923,0,0,1,315.915,457.859Zm-1.311-3.265c-.321-1.7-.62-3.718-1.182-5.658a2.192,2.192,0,0,0-1.69-1.285,2.838,2.838,0,0,0-1.9,1.285,5.327,5.327,0,0,0-.611,2.387c-.1,1.584-.026,3.178-.061,4.765-.077,3.268-.858,6.066-3.641,8.338-1.8,1.468-3.014,3.737-4.222,5.8-.643,1.089-1.285,2.664-.055,3.759s2.689.408,3.946-.225a15.081,15.081,0,0,0,8.107-10.2A90.468,90.468,0,0,0,314.6,454.595Z" transform="translate(-202.984 -302.984)"/><path d="M39.548,42.79a8.226,8.226,0,0,1-2.278,5.983,26.026,26.026,0,0,1-3.441,3.069c-3.563,2.571-7.181,1.822-10.051-1.928-4.9-6.4.084-15.921,7.159-16.86a5.119,5.119,0,0,1,2.436.431A11.068,11.068,0,0,1,39.548,42.79Zm-1.97.344a8.921,8.921,0,0,0-3.724-7.365,5.6,5.6,0,0,0-3.069-1.407c-3.824-.026-8.059,5.263-7.39,9.061a9.04,9.04,0,0,0,6.475,7.41,4.026,4.026,0,0,0,2.763-.167,8.5,8.5,0,0,0,4.958-7.532Z" transform="translate(-14.793 -22.425)"/><path d="M533.408,151.947c.623,1.642,1.16,3.075,1.706,4.5.321.858.219,1.35-.839,1.587-2.249.508-4.5,1.141-6.722,1.767-1.009.283-1.607.1-1.783-1.044-.183-1.1-.521-2.162-.839-3.432-1.16.257-2.294.427-3.377.771a1.242,1.242,0,0,1-1.812-.941c-.585-2.056-1.173-4.116-1.607-6.211a1.726,1.726,0,0,1,.945-1.353,30.027,30.027,0,0,1,3.7-.839c-.347-1.4-.7-2.738-1.009-4.09-.347-1.52,0-2.1,1.517-2.387,1.835-.344,3.679-.623,5.517-.932a1.447,1.447,0,0,1,1.854,1.372c.193,1.051.453,2.169.713,3.4.893-.145,1.7-.289,2.513-.408,1.5-.219,2.034.125,2.407,1.607.357,1.4.672,2.805,1,4.209.193.819,0,1.3-.964,1.484A23.507,23.507,0,0,0,533.408,151.947Zm1.481-7.069c-1.083.193-2.008.305-2.892.53a1.329,1.329,0,0,1-1.831-1.163,27.193,27.193,0,0,0-.643-2.705,1.176,1.176,0,0,0-.964-.6c-1.729.341-3.435.79-5.289,1.24.28,1.385.5,2.76.842,4.1.276,1.092-.029,1.706-1.154,1.928s-2.333.508-3.557.781c.572,2.089,1.109,4.045,1.68,6.124,1.141-.3,2.217-.537,3.271-.861,1.375-.421,1.741-.26,2.076,1.144.263,1.112.472,2.249.72,3.425l6.748-1.812c-.562-1.433-1.031-2.741-1.587-4.013-.495-1.131-.151-1.754.99-2.1.913-.28,1.8-.643,2.657-.964-.389-1.79-.716-3.367-1.067-5.061Z" transform="translate(-351.632 -94.544)"/><path d="M181.908,14.783c-.379,1.742-.7,3.043-.986,4.351-.935,4.264.106,7.747,3.962,10.157a48.364,48.364,0,0,1,4.4,3,16.419,16.419,0,0,1,3.049,3.008,2.892,2.892,0,0,1,.026,3.534c-.765,1.035-1.838.826-2.934.562-5.642-1.343-10.353-4.042-12.894-9.479s-1.327-10.632,1.742-15.5c.549-.874,1.443-1.549,2.477-1.064C181.329,13.61,181.651,14.443,181.908,14.783Zm-1.064-.051-.45-.267c-.4.321-.945.549-1.17.964-2.034,3.714-3.448,7.583-2.285,11.889,1.555,5.784,5.707,9,11.089,10.841,1,.341,2.93.366,3.245-.164.665-1.125-.492-2.227-1.459-2.953-1.68-1.26-3.535-2.307-5.16-3.618a21.262,21.262,0,0,1-3.962-3.875c-2.015-2.773-1.555-5.9-.739-9C180.288,17.3,180.565,16.017,180.844,14.732Z" transform="translate(-118.859 -8.948)"/><path d="M61,325.491c.3-7.512,3.7-13.078,9.055-17.525a23.181,23.181,0,0,1,5.379-3.175,2.88,2.88,0,0,1,4.033,1.391c.665,1.475,0,3.136-1.79,3.994a19.391,19.391,0,0,1-3.779,1.391c-3.608.89-4.974,4.11-5.1,7.249a57.434,57.434,0,0,1-.851,7.323,5.74,5.74,0,0,1-1.247,2.291,2.748,2.748,0,0,1-3.011,1.327,3.563,3.563,0,0,1-2.423-2.686A12.32,12.32,0,0,1,61,325.491Zm2.117-.691a17.25,17.25,0,0,0,.431,2.493c.35,1.134,1.211,1.369,1.992.466a6.39,6.39,0,0,0,1.536-2.744c.456-2.32.643-4.694.913-7.053a7.734,7.734,0,0,1,4.653-6.77c1.266-.569,2.59-1.009,3.872-1.546,1.79-.745,2.59-1.88,2.134-2.963-.479-1.147-1.928-1.411-3.679-.363-6.9,4.113-11.272,9.929-11.847,18.479Z" transform="translate(-41.386 -206.632)"/><path d="M445.908,103.351c-4.408-.026-8.184-2.455-9.4-5.681a4.409,4.409,0,0,1,.112-3.779c3.213-6.131,11.42-7.352,16.011-2.689a7.153,7.153,0,0,1,1.565,7.686c-.893,2.67-3.049,3.856-5.745,4.177C447.438,103.184,446.422,103.29,445.908,103.351Zm1.025-1.131c.347,0,.861.032,1.375,0,2.082-.141,3.824-1.314,4.261-2.853a7.624,7.624,0,0,0-4.386-8.881c-3.628-1.417-6.426.183-8.952,2.571-1.417,1.327-1.571,2.487-.913,4.3,1.086,2.975,5.369,5.18,8.615,4.862Z" transform="translate(-295.988 -59.974)"/><path d="M183.929,538.13a28.9,28.9,0,0,0,.617,2.834c.3.932-.1,1.308-.909,1.481-1.857.392-3.711.835-5.588,1.1-.357.048-1.038-.553-1.186-.983a21.221,21.221,0,0,1-.588-3c-1.015.292-2.011.53-2.966.871a1.132,1.132,0,0,1-1.68-.9c-.511-2.076-.99-4.177-1.411-6.259-.209-1.051.19-1.729,1.407-1.709.678,0,1.359-.077,2.143-.132-.222-1.112-.382-2.066-.6-3s.241-1.42,1.1-1.571c1.97-.344,3.952-.643,5.922-.983.858-.151,1.166.209,1.285,1.019.135,1,.379,1.986.607,3.139,1.4-.382,2.7-.7,3.962-1.1a.988.988,0,0,1,1.446.813c.5,1.928,1.041,3.856,1.491,5.8.222.964.084,1.7-1.218,1.815A34.423,34.423,0,0,0,183.929,538.13Zm-5.832,4.5c.913-.135,1.645-.238,2.375-.353,3.332-.524,3.371-.533,2.532-3.766-.2-.8-.067-1.128.71-1.285,1.452-.283,2.892-.6,4.364-.9-.582-2.063-1.144-4.065-1.719-6.105-1.321.225-2.6.418-3.856.672-.816.164-1.224-.1-1.362-.929-.154-.964-.4-1.886-.611-2.853l-5.919,1.031c.225,1.035.437,1.928.607,2.84.151.794-.058,1.4-.983,1.51l-2.866.35,1.587,6.809a23.927,23.927,0,0,0,3.075-1.035c1.16-.572,1.529-.09,1.671.964.122.938.244,1.9.4,3.04Z" transform="translate(-115.475 -356.875)"/><path d="M361.567,66.434a2.3,2.3,0,0,1,2.493,1.285,2.52,2.52,0,0,1-.864,3.027,17.06,17.06,0,0,1-3.551,2.432c-4.376,2.053-6.542,5.629-7.358,10.2-.206,1.147-.643,2.114-1.9,2.275a2.436,2.436,0,0,1-2.554-1.607c-1.07-2.053-.726-4.177-.263-6.291C349.109,70.739,356.2,66.736,361.567,66.434ZM348.772,81.571a14.193,14.193,0,0,0,.54,2.323,1.3,1.3,0,0,0,1.047.678c.318-.051.659-.6.771-.99.3-1.019.482-2.072.694-3.114a10.9,10.9,0,0,1,6.105-7.885,28.855,28.855,0,0,0,2.85-1.484,8.271,8.271,0,0,0,1.973-1.748c.762-.964.235-2.114-.964-2a12.3,12.3,0,0,0-4.669,1.041c-5.157,2.821-7.461,7.551-8.348,13.177Z" transform="translate(-235.578 -45.073)"/><path d="M495.772,316.9c4.225.4,9.389,2.953,9.283,8.235a8.474,8.474,0,0,1-8.409,8.354c-3.875-.026-8.695-4.82-8.454-8.676C488.474,320.343,492.2,316.767,495.772,316.9Zm7.069,7.962c0-3.509-3.3-6.555-7.162-6.59-3.046-.029-6.372,3.441-6.381,6.658,0,3.5,3.612,7.124,7.127,7.136,3.676.013,6.4-3.046,6.413-7.2Z" transform="translate(-331.308 -215.073)"/><path d="M363.347,523.708a4.581,4.581,0,0,1-1.112-.2c-5.462-2.114-9.485-6.128-9.861-12.615a20.575,20.575,0,0,1-.183-4.643,10.686,10.686,0,0,1,1.777-3.57,2.259,2.259,0,0,1,2.738-1.176,2.551,2.551,0,0,1,1.574,2.7,8.675,8.675,0,0,1-.321,2.339c-.884,2.956.212,5.289,2.214,7.349,1.366,1.407,2.824,2.728,4.119,4.177a8.184,8.184,0,0,1,1.536,2.619C366.486,522.532,365.516,523.75,363.347,523.708Zm-11.034-15.8.321.2c.1.591.228,1.182.3,1.777a14.361,14.361,0,0,0,8.508,11.773,8.368,8.368,0,0,0,2.847.321,10.01,10.01,0,0,0-1.109-2.57c-1.035-1.253-2.31-2.3-3.464-3.461-2.693-2.706-3.93-5.784-2.705-9.64a6.035,6.035,0,0,0,.122-2.744,1.137,1.137,0,0,0-2.089-.565C353.993,504.545,353.212,506.264,352.313,507.909Z" transform="translate(-238.948 -340.277)"/><path d="M9.952,265.079c1.4-.257,2.657-.5,3.92-.71.807-.132,1.173.267,1.285,1.07.28,1.97.572,3.939.964,5.89.161.8-.064,1.157-.8,1.285-.964.167-1.928.366-2.892.463-.784.074-1.067.44-.964,1.186.1.874.151,1.758.283,2.628a1.164,1.164,0,0,1-1.06,1.484q-2.313.511-4.611,1.076c-1.035.254-1.539-.173-1.565-1.179-.032-1.16,0-2.323,0-3.628-1.163.241-2.108.472-3.062.627C.239,275.464,0,275.1.059,273.928a38.828,38.828,0,0,0-.087-4.736c-.1-1.42.386-2.114,1.864-2.079a5.958,5.958,0,0,0,1.385-.321c-.247-.893-.517-1.725-.7-2.571s0-1.375,1.012-1.607c1.436-.321,2.818-.9,4.225-1.359,1.285-.421,1.626-.177,1.783,1.2C9.653,263.315,9.811,264.166,9.952,265.079Zm5.4,6.539c-.386-2.2-.755-4.3-1.134-6.471-1.333.321-2.452.614-3.579.861-.742.161-1.362.17-1.465-.9a30.94,30.94,0,0,0-.623-3.181l-4.762,1.607c.357,1.128.71,2.089.964,3.078.228.871,0,1.44-1.086,1.44a17.174,17.174,0,0,0-2.249.263L1.4,273.87l3.072-.742c1.067-.267,1.642.141,1.658,1.24.019,1.163,0,2.323,0,3.605,1.353-.244,2.571-.533,3.8-.665.929-.1,1.025-.594.932-1.34s-.129-1.578-.225-2.365c-.106-.868.228-1.285,1.118-1.378C12.931,272.087,14.11,271.833,15.357,271.617Z" transform="translate(0.041 -177.182)"/><path d="M509.213,44.466c-.614.537-1.215.906-1.832,0-2.593-3.814-5.209-7.612-7.782-11.436-1.186-1.761-.919-2.349,1.2-2.535,3.339-.3,6.687-.508,10.028-.771.553-.042,1.093-.19,1.645-.263,1.33-.18,1.68.2,1.218,1.449-.643,1.7-1.436,3.338-1.992,5.058-.913,2.824-1.684,5.694-2.513,8.544Zm-8.579-11.889,7.188,10.247c1.359-3.837,2.644-7.455,3.978-11.217Z" transform="translate(-338.581 -19.966)"/><path d="M408.2,478.641a7.446,7.446,0,0,1-.122,1.112c-.2.742-.6,1.025-1.324.514-3.393-2.394-6.8-4.772-10.189-7.172a2.193,2.193,0,0,1-.572-3.313,30.525,30.525,0,0,1,3.011-3.856c1.973-2.188,4.023-4.3,6.057-6.426.964-1.009,1.533-.884,1.928.443a8.634,8.634,0,0,1,.427,2.182c.222,5.507.4,11.015.6,16.522Zm-2-.244.071-18.138-.44-.067c-1.076,1.147-2.22,2.249-3.213,3.448-1.722,2.085-3.374,4.229-5.016,6.378-.588.771-.53,1.427.382,2.095C400.793,474.182,403.547,476.357,406.2,478.4Z" transform="translate(-268.397 -311.402)"/><path d="M61.833,131.94c4.543,0,8.033,2.156,10.983,5.347a7.127,7.127,0,0,1,1.131,1.754c.443.906.8,2.072-.145,2.67a5.473,5.473,0,0,1-2.844.4c-.443,0-.9-.443-1.308-.752a16.037,16.037,0,0,0-7.776-3.155c-1.928-.251-3.4.88-4.6,2.249a6.16,6.16,0,0,1-5.115,2.111c-1.835-.061-2.49-1.137-1.706-2.824a5.273,5.273,0,0,1,.983-1.513c2.269-2.249,4.2-4.951,7.5-5.854A22.129,22.129,0,0,1,61.833,131.94Zm1.382,1.083c-4.559-.026-10.1,3.493-11.686,6.786-.466.964.093,1.333.8,1.2a9.064,9.064,0,0,0,2.812-1.1c1.041-.611,1.928-1.449,2.93-2.15a5.032,5.032,0,0,1,5.543-.466c2.387,1.231,4.694,2.616,7.108,3.792a3,3,0,0,0,2.394.157c.913-.572.218-1.558-.228-2.211C70.354,135.311,66.958,133.058,63.215,133.023Z" transform="translate(-34.007 -89.545)"/><path d="M500.918,234.849a3.23,3.23,0,0,1-3-1.848c-.7-1.237-1.44-2.516-2.04-3.83-1.321-2.892-3.708-4.139-6.7-4.572-1.166-.17-2.686-.122-2.892-1.626-.238-1.607,1.314-1.928,2.423-2.452a7.177,7.177,0,0,1,6.732.3,25.185,25.185,0,0,1,8.267,7.223,10.073,10.073,0,0,1,1.025,2.249C505.58,232.455,503.8,234.929,500.918,234.849ZM487.076,222.7l-.064.578a24.436,24.436,0,0,0,3.534.745c2.918.19,5.2,1.308,6.606,3.965.81,1.526,1.607,3.053,2.477,4.55a1.92,1.92,0,0,0,2.378.99c1.025-.312,2.018-.916,1.857-2.121a6.562,6.562,0,0,0-1.115-3.175,22.492,22.492,0,0,0-9.09-6.565c-2.423-.983-4.54-.164-6.584,1.031Z" transform="translate(-330.006 -149.189)"/><path d="M101.284,430.108c-1.5,0-1.844-.569-1.134-1.928q2.812-5.318,5.655-10.6c.668-1.243.964-1.2,2.031-.19,3.04,2.892,6.137,5.739,9.2,8.621.241.228.511.643.456.906a1.121,1.121,0,0,1-.79.607q-7.422,1.325-14.854,2.571A3.247,3.247,0,0,1,101.284,430.108Zm13.315-3.9c-2.41-2.673-4.932-5.462-7.647-8.467l-5.617,10.925Z" transform="translate(-67.716 -282.764)"/><path d="M410.574,14.371c-.019,3.644-1.629,6.246-4.363,7.069a2.229,2.229,0,0,1-2.68-.54c-.752-.9-.379-1.7.129-2.571,1.128-1.928.762-3.936.44-5.983a46.382,46.382,0,0,1-.443-5,2.436,2.436,0,0,1,.379-1.568c.6-.7,1.362-1.629,2.134-1.706.659-.064,1.655.787,2.1,1.488C409.957,8.224,410.333,11.3,410.574,14.371Zm-1.006.051c-.051-3.432-.53-5.973-1.87-8.274-.3-.517-.964-.823-1.475-1.224a7.908,7.908,0,0,0-1.1,1.828,5.372,5.372,0,0,0,0,2.089c.167,1.34.427,2.67.627,4.007a8.436,8.436,0,0,1-.643,5.189,8.318,8.318,0,0,0-.437,2.015A16.868,16.868,0,0,0,407,19.518a2.922,2.922,0,0,0,1.022-.932A6.348,6.348,0,0,0,409.568,14.422Z" transform="translate(-273.567 -2.762)"/><path d="M185.014,99.137a10.217,10.217,0,0,1-.353,1.452c-.662,1.787-2.233,2.207-3.624.893a5.694,5.694,0,0,1-1.475-2.146,6.291,6.291,0,0,0-3.814-4c-1.774-.72-3.322-1.742-3.856-3.756-.392-1.452.132-2.384,1.449-2.638C178.234,88,185.143,93.839,185.014,99.137Zm-1.337-1.321c-.183-4.126-5.141-8.383-9.521-7.972-.344.032-.9.222-.945.421a1.337,1.337,0,0,0,.344,1.1,12.059,12.059,0,0,0,2.3,1.555,8.1,8.1,0,0,1,4.45,5.289,4.553,4.553,0,0,0,.643,1.661,8.54,8.54,0,0,0,1.729,1.215,15.036,15.036,0,0,0,.964-1.832,4.791,4.791,0,0,0,.029-1.439Z" transform="translate(-116.56 -60.293)"/><path d="M515.348,318.812a18.52,18.52,0,0,0-3.313-8.01c-3.284-4.746-7.339-5.617-12.323-2.709l-.566.321c-.077-.157-.167-.286-.145-.305,3.792-3.872,6.86-5.022,10.979-2,3.605,2.648,5.951,6.156,6.105,10.8a8.948,8.948,0,0,1-.373,1.963Z" transform="translate(-338.649 -206.585)"/><path d="M62.469,28.55c1.568.029,2.705,1.2,3.9,2.137a21.961,21.961,0,0,1,2.991,2.946c2.387,2.763,2.153,6.105,1.973,9.437A7.133,7.133,0,0,1,68.15,48.7c-2.015,1.456-3.988,2.963-5.98,4.45l-.36-.4a9.108,9.108,0,0,1,.643-.675c1.857-1.632,3.792-3.184,5.543-4.926a4.806,4.806,0,0,0,1.16-2.571c.276-1.607.228-3.258.453-4.874a7.033,7.033,0,0,0-1.928-6.295C66.013,31.754,64.242,30.2,62.469,28.55Z" transform="translate(-41.936 -19.376)"/><path d="M119.609,498.728c.077,2.95-5.34,7.786-8.271,7.39a3.149,3.149,0,0,1-2.571-4.434,7.057,7.057,0,0,1,4.579-4.383c1.109-.321,2.23-.659,3.364-.9A2.308,2.308,0,0,1,119.609,498.728Zm-8.174,6.105c1.893-.032,6.764-4.315,7.091-6.275.122-.713,0-1.224-.964-.88-1.748.643-3.589,1.051-5.257,1.841a7.336,7.336,0,0,0-2.673,2.32A1.97,1.97,0,0,0,111.434,504.833Z" transform="translate(-73.615 -336.851)"/><path d="M456.5,41.186a2.021,2.021,0,0,1-.4.806c-.119.106-.569-.084-.823-.228-2.747-1.568-5.5-3.136-8.223-4.749a7.487,7.487,0,0,1-1.243-1.192,5.823,5.823,0,0,1,1.26-1.186c1.973-.945,3.991-1.8,6-2.673.839-.366,1.671-.363,1.883.688C455.517,35.428,455.977,38.23,456.5,41.186Zm-8.637-5.218L455,39.888c-.373-2.352-.736-4.649-1.115-7.069Z" transform="translate(-302.557 -21.544)"/><path d="M262.541,538.59a14.762,14.762,0,0,1,2.249,1.42,1.744,1.744,0,0,1,.132,2.516c-.848,1.266-1.607,2.571-2.458,3.856a9.262,9.262,0,0,1-1.327,1.607,2.925,2.925,0,0,1-3.29.861,2.992,2.992,0,0,1-1.722-3.213,11.628,11.628,0,0,1,1.253-4.235C258.325,539.525,260.16,538.9,262.541,538.59Zm-3.515,9.373a4.2,4.2,0,0,0,2.448-2.448,18.783,18.783,0,0,1,2.092-3.232c.9-1.1.845-1.709-.476-2.281a3.8,3.8,0,0,0-4.675,2.249,17.917,17.917,0,0,0-.964,3.91C257.339,547.053,257.6,547.963,259.026,547.963Z" transform="translate(-173.805 -365.532)"/><path d="M404.865,562c-3.062.392-6.706-4.344-6.52-6.722.1-1.211.4-2.387,1.729-2.773s1.966.614,2.757,1.459a26.138,26.138,0,0,0,2.947,2.4c.067.051.183.035.27.067,2.333.839,3.213,1.838,2.934,3.31C408.743,560.964,406.835,562.024,404.865,562Zm.17-1.1a2.1,2.1,0,0,0,1.006-.145,17.7,17.7,0,0,0,1.812-1.53,11.4,11.4,0,0,0-1.671-1.648c-1.414-.925-2.908-1.735-4.386-2.571a13.733,13.733,0,0,0-1.481-.643,6.03,6.03,0,0,0-.566,1.623C399.621,558.467,402.192,560.912,405.035,560.906Z" transform="translate(-270.332 -374.921)"/><path d="M264.42,77.458c1.742-2.249,3.432-4.46,5.157-6.642.774-.983,1.382-.964,1.835.116.845,2.018,1.607,4.068,2.32,6.137.251.739.2,1.639-.941,1.558-2.644-.19-5.282-.469-7.924-.726C264.761,77.876,264.671,77.7,264.42,77.458Zm5.649-5.835-4.058,5.167,6.105.321Z" transform="translate(-179.444 -47.576)"/><path d="M46.64,518.49l9.8-5.62c.164.7.344,1.417.5,2.14.321,1.356.643,2.709.884,4.081.148.864-.283,1.333-1.211,1.2-2.86-.414-5.716-.826-8.573-1.263A9.431,9.431,0,0,1,46.64,518.49Zm10.077.206c-.289-1.491-.562-2.908-.835-4.312l-6.208,3.589Z" transform="translate(-31.641 -348.076)"/><path d="M6.571,153.949a4.749,4.749,0,0,1,4.277,1.873c1.031,1.337,1.051,2.429-.106,3.618a17,17,0,0,1-2.571,2.153,2.259,2.259,0,0,1-3.441-.559,12.531,12.531,0,0,1-1.716-3.171C2.246,155.645,3.721,154.026,6.571,153.949Zm.218,6.208c1.552,0,3.393-1.648,3.351-2.991-.039-1.189-1.536-2.384-3.213-2.278-1.754.112-3.13.723-3.175,2.05a3.328,3.328,0,0,0,3.036,3.232Z" transform="translate(-1.895 -104.466)"/><path d="M296.878,23.849a4.957,4.957,0,0,1-4.588-4.6c0-.553.267-1.423.643-1.587a13.612,13.612,0,0,1,4.746-1.5c1.481-.019,1.9,1.761,2.291,3.011C300.669,21.41,298.944,23.907,296.878,23.849Zm.1-6.777c-2.249.231-3.419.983-3.38,2.011a3.192,3.192,0,0,0,3.454,2.934,2.106,2.106,0,0,0,2.134-1.973C299.121,18.724,297.88,17.053,296.981,17.072Z" transform="translate(-198.358 -10.967)"/><path d="M438.6,479.755a4.33,4.33,0,0,1-.366-.871c-.238-5.694-.476-11.388-.643-17.084,0-.35.4-.713.617-1.07.3.366.819.707.861,1.1a57.175,57.175,0,0,1,.488,6.7c-.035,3.123-.321,6.246-.517,9.366A13.841,13.841,0,0,1,438.6,479.755Z" transform="translate(-296.971 -312.689)"/><path d="M480.569,487.505c.039-2.68,1.607-4.711,3.592-4.63,1.51.061,3.213,2.069,3.171,3.718-.064,2.211-2.008,4.386-3.92,4.4C481.787,490.995,480.54,489.469,480.569,487.505Zm5.331-1.443-1.709-2.278a29.847,29.847,0,0,0-2.407,1.867c-.257.238-.276.774-.321,1.186-.1,1.019,0,2.082,1.1,2.452a2.3,2.3,0,0,0,2.689-1.269A9.278,9.278,0,0,0,485.9,486.063Z" transform="translate(-326.14 -327.717)"/><path d="M522.869,380.189a3.546,3.546,0,0,1,4.444-3.284,12.782,12.782,0,0,1,2.988,1.369c1.439.929,1.928,2.217,1.5,3.406a3.254,3.254,0,0,1-3.534,1.944,21,21,0,0,1-3.512-.813A2.551,2.551,0,0,1,522.869,380.189Zm5.237,2.709.18-.321c.276-.016.62.067.823-.061.668-.427,1.645-.829,1.822-1.436a2.346,2.346,0,0,0-.858-2.073,7.29,7.29,0,0,0-3.419-1.144c-.623-.029-1.484.848-1.86,1.526a1.955,1.955,0,0,0,.443,1.822A16.6,16.6,0,0,0,528.107,382.9Z" transform="translate(-354.846 -255.701)"/><path d="M514.154,66.924c-.183.826-.723,1.793-.964,2.853l-7.8-7.477c-.106.321-.183.447-.154.479,2.4,2.6,4.8,5.212,7.23,7.786.826.874,1.661.694,2.047-.4.794-2.23,1.475-4.5,2.153-6.767.087-.28-.109-.643-.173-.964l-.466-.106Z" transform="translate(-342.878 -42.282)"/><path d="M99.3,327.137c-.492.273-.99.537-1.481.816-1.285.733-2.625,1.411-3.856,2.227a5.424,5.424,0,0,0-2.471,6.044c.341,1.7.643,3.4-.19,5.019a5.241,5.241,0,0,1-1.69,1.828c2.195-2.371,1.337-5.006.858-7.606-.745-4.065.424-6.105,4.264-7.39,1.456-.485,2.946-.864,4.421-1.285Z" transform="translate(-60.804 -221.787)"/><path d="M202.232,525.568l-1.648-3.6c-1.141.212-2.323.392-3.486.643-1.247.286-2.117.071-2.307-1.378a9.387,9.387,0,0,0-.244-.942c-.215-.929-.643-1.462-1.742-1.285a20.606,20.606,0,0,1-2.924.2,6.372,6.372,0,0,1-1.2-.215l-.016-.6c1.873-.251,3.743-.553,5.626-.694.321-.026.816.582,1.028,1a10.637,10.637,0,0,1,.707,2.1.864.864,0,0,0,1.221.713c.986-.247,1.983-.463,2.972-.7.842-.2,1.494-.022,1.732.9.321,1.215.594,2.436.89,3.653Z" transform="translate(-128.027 -351.352)"/><path d="M51.689,390.389a2.683,2.683,0,0,1,2.407,2.182c.167.964.321,1.928.456,2.892a3.028,3.028,0,0,1-1.626,3.258c-1.411.524-2.352-.164-2.985-1.34a14.805,14.805,0,0,1-1.359-3.024A3.37,3.37,0,0,1,51.689,390.389Zm1.88,4.666-.251-.183A5.629,5.629,0,0,0,53,393.13c-.321-.562-.964-1.382-1.4-1.34A2.465,2.465,0,0,0,49.728,393a3.827,3.827,0,0,0,.36,2.706,8.533,8.533,0,0,0,2.153,1.9Q52.9,396.327,53.568,395.055Z" transform="translate(-32.898 -264.95)"/><path d="M32.006,278.72q.482,1.832.964,3.666c.048.177.022.373.064.556.643,2.866.591,2.921-2.326,3.261-.9.106-1.8.3-2.715.45.206,1.664.437,3.175.54,4.691.026.4-.273,1.1-.569,1.186-1.854.572-3.747,1.015-5.633,1.484-.145.035-.321-.064-.485-.1l-.106-.392,5.838-2.114c-.122-1.285-.235-2.616-.382-3.946-.093-.855.08-1.43,1.08-1.607,1.362-.228,2.705-.575,4.129-.887-.129-2.092-1.154-4.074-.932-6.169Z" transform="translate(-14.741 -189.162)"/><path d="M339.41,81.337c-2.249-6.124,3.856-16.066,9.588-15.6C342.341,68.94,339.879,74.525,339.41,81.337Z" transform="translate(-230.014 -44.604)"/><path d="M309.212,449.584c-.247,3.467-.469,6.934-.765,10.4a3.56,3.56,0,0,1-.643,1.822c-1.954,2.465-3.988,4.862-5.993,7.284l-.4-.251a10.445,10.445,0,0,1,.813-1.565c1.17-1.568,2.355-3.133,3.612-4.633a8.854,8.854,0,0,0,1.835-5.3c.135-1.947.321-3.888.6-5.819a9.29,9.29,0,0,1,.778-2.008Z" transform="translate(-204.549 -305.075)"/><path d="M126.784,104.464a2.886,2.886,0,0,1-1.729,3.03,2.259,2.259,0,0,1-2.767-.729c-1.025-1.105-2.018-2.249-1.43-3.936a2.465,2.465,0,0,1,3.628-1.378C125.8,102.2,126.765,103.218,126.784,104.464Zm-4.177-2.182a4.214,4.214,0,0,0-.823,1.417c-.154.922,1.465,2.725,2.214,2.458a2.387,2.387,0,0,0,1.314-1.488c.206-.954-1.34-2.394-2.715-2.387Z" transform="translate(-81.892 -68.612)"/><path d="M201.29,448.7c1.356-.3,2.7-.668,4.068-.893a8.884,8.884,0,0,0,4.855-2.831,52.483,52.483,0,0,1,4.206-3.669,10.038,10.038,0,0,1,2.044-.964l.222.366c-.476.382-.986.726-1.42,1.15-1.285,1.285-2.667,2.493-3.824,3.888a9.029,9.029,0,0,1-6.462,3.142c-1.2.122-2.416.186-3.628.276Z" transform="translate(-136.599 -298.851)"/><path d="M59.57,459.835c.453-2.211.79-4.023,1.208-5.816.2-.864.678-.983,1.372-.341,1.26,1.166,2.571,2.281,3.856,3.409.832.726.569,1.362-.286,1.687a52.622,52.622,0,0,1-5.141,1.648C60.264,460.506,59.792,459.973,59.57,459.835Zm1.125-.5,3.923-1.687-3.036-3.088C61.315,456.05,61.026,457.547,60.695,459.33Z" transform="translate(-40.416 -307.627)"/><path d="M173,41.882c-4.932-3.978-5.585-10.253-3.5-18.122C168.9,30.135,168.9,36.391,173,41.882Z" transform="translate(-114.267 -16.125)"/><path d="M549.9,278.68c1.973,0,4.739,2.85,4.694,4.425a2.219,2.219,0,0,1-3.011,1.96,8.5,8.5,0,0,1-2.956-2.442,3.645,3.645,0,0,1-.019-2.712C548.779,279.335,549.592,278.95,549.9,278.68Zm-.267,2.465c-.151,2.008,1.285,2.179,2.2,2.747a1.7,1.7,0,0,0,1.607-.244c.26-.241.193-1.121-.045-1.539a5.215,5.215,0,0,0-1.517-1.607,1.94,1.94,0,0,0-1.555-.434C549.926,280.242,549.717,280.993,549.631,281.145Z" transform="translate(-372.144 -189.135)"/><path d="M449.449,303.66c1.189,4.389-2.892,15.256-6.719,17.811C446.727,316.188,448.07,309.929,449.449,303.66Z" transform="translate(-300.46 -206.089)"/><path d="M149.17,372.227c-3.907-.607-11.461-8.811-11.67-12.727A48.018,48.018,0,0,0,149.17,372.227Z" transform="translate(-93.306 -243.986)"/><path d="M104.9,213.767c-1.751-5.623-3.29-11.246-.045-16.837-.193,2.734-.546,5.511-.537,8.287C104.334,208.067,104.7,210.917,104.9,213.767Z" transform="translate(-69.863 -133.653)"/><path d="M479.78,86.13c3.213.138,4.836,2.114,5.806,4.784,1.1,3.011,1.112,5.935-1.089,8.589A11.264,11.264,0,0,0,485,91.859C484.147,89.128,481.425,88.138,479.78,86.13Z" transform="translate(-325.605 -58.455)"/><path d="M476.159,169.332c-2.789-4.274-5.491-8.409-8.219-12.592C470.809,158.038,476.5,166.617,476.159,169.332Z" transform="translate(-317.57 -106.377)"/><path d="M131.52,374.28l7.84,7.663C137.015,381.494,131.9,376.568,131.52,374.28Z" transform="translate(-89.247 -254.017)"/><path d="M464.973,54.967,465,48.75h.472c.151,1.356.321,2.709.45,4.061.039.373,0,.749.039,1.118.193,2.394-.151,2.689-2.285,1.748-1.95-.858-3.856-1.825-5.784-2.757a1.019,1.019,0,0,1-.582-.807Z" transform="translate(-310.355 -33.086)"/><path d="M453.42,155.32c5.395,3.3,7.255,8.836,10,13.736C460.136,164.551,456.858,160.037,453.42,155.32Z" transform="translate(-307.715 -105.413)"/><path d="M398.561,0c-.061.643,0,.858-.106.964-1.632,1.8-1.494,3.856-1.035,6.028a31.262,31.262,0,0,1,.45,4.694,2.162,2.162,0,0,1-.6,1.411,6.558,6.558,0,0,1-.186-.684c-.276-1.587-.472-3.191-.829-4.756-.482-2.1-.611-4.151.627-6.038A11.19,11.19,0,0,1,398.561,0Z" transform="translate(-268.681)"/><path d="M19.72,147.719a5.956,5.956,0,0,1,5.289,2.747c1.015,2.1.88,4-.447,5.164a8.135,8.135,0,0,0,.151-2.018,4.237,4.237,0,0,0-1.928-3.091,22.636,22.636,0,0,1-2.6-2.124A3.721,3.721,0,0,1,19.72,147.719Z" transform="translate(-13.37 -100.225)"/><path d="M457.83,327.334l4.135-11.114C463.193,318.72,460.609,325.564,457.83,327.334Z" transform="translate(-310.708 -214.613)"/><path d="M290.963,90.008h3.114c-.736-1.581-1.423-2.94-1.986-4.347-.145-.363.1-.884.17-1.33.341.257.807.443,1,.787.771,1.375,1.478,2.789,2.162,4.212.527,1.089.161,1.748-1.054,1.716a33.659,33.659,0,0,1-3.515-.437Z" transform="translate(-197.382 -57.233)"/><path d="M93.569,217.467c-2.8-2.94-3.091-8.293-.511-11.4C92.9,210.125,91.454,213.894,93.569,217.467Z" transform="translate(-61.941 -139.856)"/><path d="M519.4,261.31c-2.657,1.369-4.772-1.285-4.743-5.71C516.179,257.525,516.558,260.355,519.4,261.31Z" transform="translate(-349.277 -173.471)"/><path d="M402.33,546.851a1.33,1.33,0,0,1,1.832-.643c2.034.858,3.984,1.928,5.967,2.892l-.27.643c-1.391-.485-2.8-.941-4.177-1.459C404.6,547.85,403.557,547.368,402.33,546.851Z" transform="translate(-273.041 -370.612)"/><path d="M318.7,21.539c.321-2.632-.913-4.3-2.085-6.015-.18-.263-.1-.71-.135-1.073a2.31,2.31,0,0,1,.871.071c1.581.829,2.783,4.6,2,6.214a6.476,6.476,0,0,1-.652.8Z" transform="translate(-214.776 -9.804)"/><path d="M479.06,155.1c2.362.585,5.636,4.781,5.016,6.793Z" transform="translate(-325.116 -105.264)"/><path d="M250.13,550.66c.537,2.477,1.047,4.749,1.5,7.03a.826.826,0,0,1-.408.7.883.883,0,0,1-.752-.389A10.3,10.3,0,0,1,250.13,550.66Z" transform="translate(-169.396 -373.723)"/><path d="M127.15,385.72l5.665,5.077C130.4,391.012,127.523,388.461,127.15,385.72Z" transform="translate(-86.281 -261.781)"/><path d="M81.328,221.367c-1.735-2.587-1.674-4.441.37-6.677C81.569,217,81.45,219.182,81.328,221.367Z" transform="translate(-54.343 -145.706)"/><path d="M466.19,333.312c1.044-2.375,2.024-4.595,3.036-6.892C469.917,328.637,468.494,331.927,466.19,333.312Z" transform="translate(-316.382 -221.536)"/><path d="M552.86,272.362a2.641,2.641,0,0,1,2.7-.643,3.36,3.36,0,0,1,2.426,2.84Z" transform="translate(-375.203 -184.321)"/><path d="M487.077,358.22c-1.414-1.905-2.648-3.882-2.458-6.426l.415-.164q1.25,3.213,2.5,6.426Z" transform="translate(-328.876 -238.645)"/><path d="M56.666,454.205c0-1.285-.035-2.571.055-3.856,0-.26.524-.488.8-.729.212.321.643.678.591.964-.215,1.243-.569,2.461-.874,3.689Z" transform="translate(-38.44 -305.149)"/><path d="M361.56,561.4c-1.661.562-4.755-1.44-4.82-3.387Z" transform="translate(-242.1 -378.712)"/><path d="M65.577,388.132c-.835-.643-1.693-1.285-2.487-1.992a.89.89,0,0,1,.029-.8c.3-.119.823-.2.99-.029.71.717,1.321,1.529,1.966,2.307Z" transform="translate(-42.751 -261.439)"/><path d="M476,478.268c.893-1.073,1.79-2.143,2.805-3.358.578,1.43-.244,2.436-2.51,3.624Z" transform="translate(-323.04 -322.313)"/><path class="b" d="M427.708,413.44c1.449.864,2.725,1.581,3.952,2.368,1.645,1.054,3.213,2.249,4.887,3.213a7.2,7.2,0,0,0,7.23.068c1.414-.723,2.8-1.494,4.177-2.294,7.047-4.122,13.219-1.308,17.165,4.052a23.823,23.823,0,0,1,4.007,8.264c.729,2.847,1.446,5.694,2.073,8.56.218,1,.469,2.14-1.064,3.072a17.094,17.094,0,0,1-.492-2.31,24.944,24.944,0,0,0-3.795-12.139c-3.184-4.919-7.692-6.748-13.4-5.585-3.477.7-6.924,1.552-10.407,2.211a13.117,13.117,0,0,1-12.7-4.2A5.517,5.517,0,0,1,427.708,413.44Z" transform="translate(-290.171 -280.594)"/><path class="c" d="M174.93,465.49a16.059,16.059,0,0,1-3.608-.916,3.856,3.856,0,0,1-1.7-2.146,2.09,2.09,0,0,1,1.472-2.554,25.977,25.977,0,0,1,4.858-1.051c2.628-.337,5.308-.353,7.917-.8,3.534-.607,6.038-2.934,8.258-5.629,1.179-1.43,2.548-2.709,3.856-4.026a2.291,2.291,0,0,1,1.06-.643c.643-.129,1.568-.363,1.905-.051a2.743,2.743,0,0,1,.569,2,7.2,7.2,0,0,1-2.426,4.46,38.325,38.325,0,0,1-19.748,11.015,17.566,17.566,0,0,1-2.371.174Z" transform="translate(-115.046 -303.723)"/><path class="d" d="M317.668,457.125a88.894,88.894,0,0,1-1.3,8.949,15.1,15.1,0,0,1-8.107,10.2c-1.256.643-2.728,1.311-3.946.225s-.582-2.67.055-3.759c1.208-2.066,2.426-4.335,4.222-5.8,2.783-2.272,3.563-5.07,3.641-8.338.035-1.587-.035-3.181.061-4.765a5.037,5.037,0,0,1,.611-2.387,2.844,2.844,0,0,1,1.9-1.285,2.234,2.234,0,0,1,1.69,1.285C317.048,453.408,317.334,455.429,317.668,457.125Z" transform="translate(-206.049 -305.515)"/><path class="e" d="M40.816,45.922a8.5,8.5,0,0,1-4.958,7.532,4.026,4.026,0,0,1-2.763.167,8.991,8.991,0,0,1-6.455-7.41c-.675-3.8,3.56-9.087,7.39-9.061A5.53,5.53,0,0,1,37.1,38.557,8.932,8.932,0,0,1,40.816,45.922Z" transform="translate(-18.018 -25.213)"/><path class="f" d="M537.53,148.276c.35,1.693.678,3.271,1.044,5.045-.861.321-1.745.688-2.657.964-1.141.35-1.484.964-.99,2.1.556,1.285,1.025,2.571,1.587,4.013l-6.748,1.812c-.247-1.189-.456-2.313-.72-3.425-.321-1.4-.7-1.565-2.076-1.144-1.054.321-2.13.566-3.271.861-.572-2.079-1.109-4.036-1.68-6.124,1.224-.273,2.387-.553,3.557-.781s1.43-.835,1.154-1.928c-.341-1.343-.562-2.718-.842-4.1,1.854-.45,3.56-.9,5.289-1.24a1.176,1.176,0,0,1,.964.6,27.193,27.193,0,0,1,.643,2.706c.231.964.765,1.43,1.832,1.163C535.509,148.581,536.447,148.469,537.53,148.276Z" transform="translate(-354.273 -97.954)"/><path class="g" d="M183.737,17.437c-.3,1.285-.556,2.571-.89,3.82-.816,3.1-1.285,6.227.739,9a21.361,21.361,0,0,0,3.962,3.875c1.632,1.311,3.48,2.358,5.16,3.618.964.726,2.124,1.828,1.459,2.953-.321.53-2.249.5-3.245.164-5.382-1.841-9.534-5.064-11.089-10.841-1.163-4.315.251-8.184,2.285-11.889.225-.408.771-.643,1.17-.964Z" transform="translate(-121.752 -11.653)"/><path class="h" d="M67.6,327.339c.575-8.55,4.932-14.366,11.85-18.479,1.767-1.048,3.213-.784,3.679.363.456,1.083-.344,2.217-2.134,2.963-1.285.537-2.606.964-3.872,1.546a7.784,7.784,0,0,0-4.653,6.77c-.254,2.358-.456,4.733-.913,7.053a6.39,6.39,0,0,1-1.536,2.744c-.781.9-1.642.668-1.992-.466A17.249,17.249,0,0,1,67.6,327.339Z" transform="translate(-45.866 -209.171)"/><path class="i" d="M450.743,105.551c-3.245.321-7.528-1.886-8.615-4.874-.659-1.812-.5-2.972.913-4.3,2.535-2.378,5.324-3.978,8.952-2.571a7.624,7.624,0,0,1,4.386,8.881c-.437,1.539-2.179,2.712-4.261,2.853C451.6,105.583,451.091,105.551,450.743,105.551Z" transform="translate(-299.798 -63.307)"/><path class="j" d="M180.611,545.232c-.157-1.141-.286-2.1-.418-3.062-.141-1.041-.511-1.523-1.671-.964a23.936,23.936,0,0,1-3.075,1.035l-1.587-6.809,2.866-.35c.925-.112,1.134-.717.983-1.51-.17-.906-.382-1.806-.607-2.84l5.935-1.041c.212.964.456,1.9.611,2.853.138.832.546,1.093,1.362.929,1.266-.254,2.542-.447,3.856-.672.575,2.053,1.137,4.055,1.719,6.1-1.465.305-2.911.62-4.363.9-.778.151-.913.482-.71,1.285.839,3.232.8,3.242-2.532,3.766C182.259,544.994,181.523,545.1,180.611,545.232Z" transform="translate(-117.983 -359.491)"/><path class="k" d="M352.24,83.548c.874-5.626,3.191-10.356,8.335-13.174a12.3,12.3,0,0,1,4.669-1.041c1.211-.116,1.738,1.025.964,2a8.27,8.27,0,0,1-1.96,1.745,28.854,28.854,0,0,1-2.844,1.5,10.87,10.87,0,0,0-6.105,7.885c-.212,1.041-.4,2.095-.694,3.114-.112.392-.459.938-.771.99a1.311,1.311,0,0,1-1.047-.678A13.264,13.264,0,0,1,352.24,83.548Z" transform="translate(-239.046 -47.049)"/><path class="l" d="M505.163,327.77c0,4.158-2.738,7.217-6.426,7.2-3.515,0-7.136-3.637-7.127-7.136,0-3.213,3.335-6.687,6.381-6.658C501.863,321.215,505.176,324.261,505.163,327.77Z" transform="translate(-333.634 -217.979)"/><path class="m" d="M352.77,510.241a55.932,55.932,0,0,1,2.741-4.9,1.137,1.137,0,0,1,2.089.566,6.035,6.035,0,0,1-.122,2.744c-1.224,3.856,0,6.94,2.706,9.64,1.154,1.16,2.429,2.207,3.464,3.461a9.913,9.913,0,0,1,1.109,2.571,9.029,9.029,0,0,1-2.847-.321,14.4,14.4,0,0,1-8.508-11.783c-.071-.594-.2-1.186-.3-1.777Z" transform="translate(-239.406 -342.61)"/><path class="n" d="M18.391,273.445c-1.25.215-2.426.469-3.615.607-.89.1-1.224.511-1.118,1.378.1.787.125,1.581.225,2.365s0,1.237-.932,1.34c-1.234.132-2.452.421-3.8.665,0-1.285.029-2.442,0-3.605-.016-1.1-.591-1.507-1.658-1.24L4.43,275.7l.022-5.556a17.18,17.18,0,0,1,2.249-.263c1.086,0,1.314-.569,1.086-1.439-.257-.99-.611-1.95-.964-3.078l4.762-1.607a30.94,30.94,0,0,1,.623,3.181c.1,1.07.723,1.06,1.465.9,1.128-.247,2.249-.537,3.579-.861C17.636,269.148,18.006,271.247,18.391,273.445Z" transform="translate(-2.993 -179.009)"/><path class="o" d="M504.34,37.254l11.166-.964c-1.333,3.763-2.619,7.39-3.978,11.217Z" transform="translate(-342.274 -24.629)"/><path class="p" d="M409.86,481.266c-2.657-2.04-5.4-4.216-8.223-6.285-.913-.668-.964-1.324-.382-2.095,1.642-2.15,3.294-4.293,5.016-6.378,1-1.208,2.143-2.3,3.213-3.448l.44.067Z" transform="translate(-272.053 -314.271)"/><path class="q" d="M65.829,135.31c3.743.035,7.14,2.288,9.672,6.009.447.643,1.141,1.639.228,2.211a2.95,2.95,0,0,1-2.394-.157c-2.413-1.176-4.72-2.571-7.108-3.792a5.032,5.032,0,0,0-5.543.466c-.986.7-1.889,1.539-2.93,2.15a9.064,9.064,0,0,1-2.805,1.1c-.707.138-1.266-.222-.8-1.2C55.726,138.8,61.269,135.284,65.829,135.31Z" transform="translate(-36.621 -91.832)"/><path class="r" d="M488.627,225.668c2.044-1.2,4.161-2.015,6.571-1.031a22.493,22.493,0,0,1,9.09,6.568,6.6,6.6,0,0,1,1.115,3.175c.161,1.2-.819,1.806-1.857,2.121a1.912,1.912,0,0,1-2.378-.99c-.858-1.5-1.668-3.024-2.477-4.55-1.407-2.657-3.689-3.775-6.606-3.965a25.183,25.183,0,0,1-3.535-.745Z" transform="translate(-331.557 -152.16)"/><path class="s" d="M117.854,428.54l-13.264,2.455,5.617-10.925C112.922,423.078,115.444,425.867,117.854,428.54Z" transform="translate(-70.97 -285.094)"/><path class="t" d="M412.89,16.228a6.389,6.389,0,0,1-1.549,4.177,2.923,2.923,0,0,1-1.022.932,16.87,16.87,0,0,1-2.32.521,8.319,8.319,0,0,1,.437-2.015,8.482,8.482,0,0,0,.643-5.189c-.2-1.337-.459-2.667-.627-4.007a5.371,5.371,0,0,1,0-2.089,7.907,7.907,0,0,1,1.1-1.828c.5.4,1.176.707,1.475,1.224C412.36,10.255,412.839,12.8,412.89,16.228Z" transform="translate(-276.889 -4.568)"/><path class="u" d="M186.7,99.884a4.791,4.791,0,0,1-.029,1.439,15.038,15.038,0,0,1-.964,1.832,8.279,8.279,0,0,1-1.729-1.215,4.049,4.049,0,0,1-.643-1.661,8.064,8.064,0,0,0-4.45-5.289,12.058,12.058,0,0,1-2.3-1.555,1.337,1.337,0,0,1-.344-1.1c.042-.2.6-.389.945-.421C181.559,91.5,186.516,95.758,186.7,99.884Z" transform="translate(-119.589 -62.36)"/><path class="v" d="M113.146,507.444a1.976,1.976,0,0,1-1.812-2.995,7.336,7.336,0,0,1,2.673-2.32c1.668-.79,3.509-1.211,5.257-1.841.964-.344,1.1.167.964.88C119.909,503.129,115.038,507.412,113.146,507.444Z" transform="translate(-75.326 -339.462)"/><path class="w" d="M452.19,38.273l6.018-3.133c.379,2.4.742,4.7,1.115,7.069Z" transform="translate(-306.88 -23.849)"/><path class="x" d="M261.819,550.488c-1.427,0-1.687-.909-1.565-1.8a17.922,17.922,0,0,1,.964-3.91,3.792,3.792,0,0,1,4.675-2.249c1.321.572,1.375,1.182.476,2.281a18.782,18.782,0,0,0-2.092,3.232A4.249,4.249,0,0,1,261.819,550.488Z" transform="translate(-176.598 -368.057)"/><path class="y" d="M408.006,565.07c-2.844,0-5.414-2.439-5.286-4.887a6.03,6.03,0,0,1,.566-1.623,13.745,13.745,0,0,1,1.481.643c1.478.826,2.972,1.635,4.386,2.57a11.4,11.4,0,0,1,1.671,1.648,17.7,17.7,0,0,1-1.812,1.529A2.458,2.458,0,0,1,408.006,565.07Z" transform="translate(-273.303 -379.085)"/><path class="z" d="M273.415,74.84l2.04,5.462-6.105-.321Z" transform="translate(-182.79 -50.793)"/><path class="aa" d="M63.13,521.892l-7.04-.717,6.2-3.6C62.565,518.978,62.838,520.395,63.13,521.892Z" transform="translate(-38.054 -351.272)"/><path class="ab" d="M8.78,162.229a3.321,3.321,0,0,1-3.033-3.213c.045-1.327,1.42-1.928,3.175-2.05,1.674-.106,3.171,1.089,3.213,2.278C12.173,160.581,10.326,162.226,8.78,162.229Z" transform="translate(-3.886 -106.526)"/><path class="ac" d="M299.748,19c.9,0,2.14,1.661,2.207,2.972a2.106,2.106,0,0,1-2.134,1.973,3.19,3.19,0,0,1-3.454-2.934C296.329,19.964,297.486,19.222,299.748,19Z" transform="translate(-201.126 -12.895)"/><path class="ad" d="M487.734,487.988a9.5,9.5,0,0,1-.643,1.957,2.282,2.282,0,0,1-2.689,1.269c-1.1-.37-1.2-1.433-1.1-2.452.039-.411.058-.948.321-1.186a29.85,29.85,0,0,1,2.407-1.867Z" transform="translate(-327.975 -329.643)"/><path class="ae" d="M532,385.237a16.831,16.831,0,0,1-2.869-1.681,1.955,1.955,0,0,1-.443-1.822c.376-.678,1.237-1.555,1.86-1.526a7.29,7.29,0,0,1,3.419,1.144,2.366,2.366,0,0,1,.858,2.072c-.167.588-1.154,1.009-1.822,1.436-.2.129-.546.045-.823.061Z" transform="translate(-358.739 -258.04)"/><path class="af" d="M55.942,398.011q-.672,1.285-1.337,2.548a8.726,8.726,0,0,1-2.153-1.9,3.827,3.827,0,0,1-.36-2.706,2.473,2.473,0,0,1,1.864-1.211c.434-.042,1.08.778,1.4,1.34a5.117,5.117,0,0,1,.321,1.742Z" transform="translate(-35.271 -267.907)"/><path class="ag" d="M124.881,104.79c1.375,0,2.921,1.433,2.705,2.387a2.387,2.387,0,0,1-1.314,1.488c-.749.267-2.368-1.536-2.214-2.458A4.44,4.44,0,0,1,124.881,104.79Z" transform="translate(-84.176 -71.119)"/><path class="ah" d="M63.07,462.045c.321-1.783.607-3.281.887-4.775l3.036,3.088Z" transform="translate(-42.791 -310.341)"/><path class="ai" d="M552.307,283.974c.087-.151.27-.887.691-1.07a1.926,1.926,0,0,1,1.555.434,5.215,5.215,0,0,1,1.517,1.607c.238.418.321,1.285.045,1.539a1.7,1.7,0,0,1-1.607.244C553.6,286.153,552.156,285.982,552.307,283.974Z" transform="translate(-374.82 -191.965)"/><path class="aj" d="M238.924,195.941s0,20.2-17.769,33.1-33.276,9.922-33.276,9.922-19.825-2.619-29.561-15.336-10.475-14.588-12.159-27.681c0,0,9.164,7.856,20.564,6.548s17.582-7.856,21.136-14.781,2.056-11.22,2.056-11.22a26.025,26.025,0,0,0-11.224-21.7s-4.3-2.805-7.667-3.554A43.288,43.288,0,0,1,192.536,146c12.159.376,19.263,4.3,19.263,4.3s-16.644,7.108-18.315,22.071,6.359,22.63,14.781,27.5,20.95,2.619,28.057-2.249Z" transform="translate(-99.183 -99.077)"/><path class="aj" d="M187.227,237.327a26.918,26.918,0,0,1-4.614-.321c-1.366-.186-20.767-3.049-30.679-16.011-9.829-12.853-10.764-14.99-12.506-28.53l-.588-4.572,3.5,3c.084.074,8.746,7.332,19.218,6.134,9.055-1.041,15.516-5.562,19.761-13.817,3.1-6.047,2-9.7,1.954-9.852l-.122-.35.035-.337a22.511,22.511,0,0,0-1.025-7.127,24.2,24.2,0,0,0-9.424-12.991,27.634,27.634,0,0,0-7.069-3.29l-4.338-.964,3.811-2.288a44.835,44.835,0,0,1,22.492-5.488c12.441.382,19.761,4.354,20.066,4.521l3.178,1.758-3.339,1.427c-.154.067-15.719,6.9-17.264,20.638-.726,6.449.363,11.8,3.326,16.371,2.291,3.534,5.752,6.6,10.575,9.389,7.712,4.45,19.578,2.336,26.168-2.172l.042-.029,5.35-3.438v3.245a42.494,42.494,0,0,1-2.31,12.274,44.911,44.911,0,0,1-16.194,22.271C204.726,235.842,193.339,237.327,187.227,237.327ZM143.486,196c1.385,9.408,2.86,11.841,11.265,22.83,2.619,3.425,7.792,8.258,17.544,11.821a57.669,57.669,0,0,0,10.832,2.834l.1.019a32.6,32.6,0,0,0,9.569-.157,50.5,50.5,0,0,0,22.348-9.46,42.163,42.163,0,0,0,16.708-28.212c-7.712,5.006-20.641,7.108-29.474,2-5.321-3.072-9.17-6.516-11.773-10.53a25.159,25.159,0,0,1-3.727-9.781,22.561,22.561,0,0,1-2.423,7.429c-4.759,9.267-12.332,14.559-22.508,15.728C154.119,201.426,147.358,198.348,143.486,196Zm27.1-48.689a39.557,39.557,0,0,1,4.11,2.281l.055.039a27.8,27.8,0,0,1,11.869,20.111c.032-.424.074-.852.122-1.285.739-6.581,4.344-12.737,10.42-17.807a42.2,42.2,0,0,1,5.546-3.9,51.687,51.687,0,0,0-15.2-2.693A41.756,41.756,0,0,0,170.589,147.306Z" transform="translate(-94.215 -95.356)"/><path class="ak" d="M304.53,379.542l2.31,4.6a2.715,2.715,0,0,0,3.644,1.2h0a2.712,2.712,0,0,0,1.2-3.644l-2.31-4.595-2.426,1.221Z" transform="translate(-206.666 -255.938)"/><path d="M307.661,384.582a3.284,3.284,0,0,1-2.93-1.806l-2.571-5.093,5.851-2.943,2.571,5.093a3.277,3.277,0,0,1-2.921,4.749Zm-3.984-6.4,2.056,4.09a2.155,2.155,0,0,0,3.856-1.928l-2.06-4.09Z" transform="translate(-205.058 -254.329)"/><line class="ak" x2="2.795" y2="5.549" transform="translate(100.19 122.271)"/><path d="M311.212,379.75l2.294,5.8-3.3-5.3Z" transform="translate(-210.521 -257.73)"/><path class="al" d="M288.461,295.83s-.678,24.542-20.812,36.6-36.309,7.487-36.309,7.487l-14.151-6.086s22.589,5.681,37.781-.935c11.6-5.051,19.077-17.769,21.053-29.683C276.023,303.214,282.89,302.905,288.461,295.83Z" transform="translate(-147.39 -200.775)"/><path class="al" d="M234.728,152.272s21.136-3.313,27.5,2.291l7.13-4.585s-13.752-5.6-28.276-4.074l-4.585,2.548-4.328,1.526Z" transform="translate(-157.557 -98.843)"/><path d="M251.655,356.533a17.9,17.9,0,0,1-17.672-15.1,1.25,1.25,0,0,1,2.468-.386,15.4,15.4,0,0,0,30.429,0,1.25,1.25,0,0,1,2.468.386,17.9,17.9,0,0,1-17.672,15.1Z" transform="translate(-158.781 -230.779)"/><path d="M189.527,338.707a48.223,48.223,0,0,1-48.117-45.044,1.774,1.774,0,0,1,3.534-.233,44.663,44.663,0,0,0,89.223-1.388V292l.058-1.69h1.607a1.758,1.758,0,0,1,1.353.514,1.783,1.783,0,0,1,.514,1.378,48.214,48.214,0,0,1-48.2,46.5Z" transform="translate(-95.959 -197.028)"/><path d="M220.98,149.56a1.77,1.77,0,0,1-.819-3.345,48.339,48.339,0,0,1,38.94-2.384,47.239,47.239,0,0,1,4.842,2.108,1.77,1.77,0,0,1-.755,3.374h-.424l-.376-.19a45.155,45.155,0,0,0-4.521-1.97,44.663,44.663,0,0,0-36.074,2.207A1.764,1.764,0,0,1,220.98,149.56Z" transform="translate(-148.754 -95.579)"/><path class="am" d="M173.079,185.414a26.146,26.146,0,1,1-51.6-5.989h0c.148-.627.321-1.247.508-1.854a26.152,26.152,0,0,1,50.4,1.854h0c.045.183.087.37.125.553A26.326,26.326,0,0,1,173.079,185.414Z" transform="translate(-81.963 -108.092)"/><path d="M143.2,209.583a27.955,27.955,0,0,1-27.228-34.1h0l.048-.2c.154-.665.337-1.333.543-1.986a27.922,27.922,0,0,1,53.817,1.983l.048.2.087.4A27.955,27.955,0,0,1,143.2,209.586ZM119.494,176l-.022.1a24.372,24.372,0,1,0,47.574.517c-.035-.174-.074-.344-.112-.511l-.051-.206a24.378,24.378,0,0,0-46.938-1.533C119.777,174.893,119.626,175.443,119.494,176Z" transform="translate(-78.231 -104.345)"/><path class="am" d="M173.079,185.414a26.146,26.146,0,1,1-51.6-5.989h0c.148-.627.321-1.247.508-1.854a26.152,26.152,0,0,1,50.4,1.854h0c.045.183.087.37.125.553A26.326,26.326,0,0,1,173.079,185.414Z" transform="translate(-81.963 -108.092)"/><path d="M143.2,209.583a27.955,27.955,0,0,1-27.228-34.1h0l.048-.2c.154-.665.337-1.333.543-1.986a27.922,27.922,0,0,1,53.817,1.983l.048.2.087.4A27.955,27.955,0,0,1,143.2,209.586ZM119.494,176l-.022.1a24.372,24.372,0,1,0,47.574.517c-.035-.174-.074-.344-.112-.511l-.051-.206a24.378,24.378,0,0,0-46.938-1.533C119.777,174.893,119.626,175.443,119.494,176Z" transform="translate(-78.231 -104.345)"/><path class="an" d="M173.079,185.414a26.146,26.146,0,1,1-51.6-5.989h0c.148-.627.321-1.247.508-1.854a26.152,26.152,0,0,1,50.4,1.854h0c.045.183.087.37.125.553A26.326,26.326,0,0,1,173.079,185.414Z" transform="translate(-81.963 -108.092)"/><path class="an" d="M143.2,209.583a27.955,27.955,0,0,1-27.228-34.1h0l.048-.2c.154-.665.337-1.333.543-1.986a27.922,27.922,0,0,1,53.817,1.983l.048.2.087.4A27.955,27.955,0,0,1,143.2,209.586ZM119.494,176l-.022.1a24.372,24.372,0,1,0,47.574.517c-.035-.174-.074-.344-.112-.511l-.051-.206a24.378,24.378,0,0,0-46.938-1.533C119.777,174.893,119.626,175.443,119.494,176Z" transform="translate(-78.231 -104.345)"/><path class="ao" d="M184.329,178.35s11.972,22.258-5.237,36.286c0,0-8.6,7.48-27.682,3.74l7.3,4.675,12.342,1.5,14.536-5.944,7.162-12.946.935-8.419-.562-6.918-5.237-8.419Z" transform="translate(-102.746 -121.043)"/><path d="M143.2,209.583a27.955,27.955,0,0,1-27.228-34.1h0l.048-.2c.154-.665.337-1.333.543-1.986a27.922,27.922,0,0,1,53.817,1.983l.048.2.087.4A27.955,27.955,0,0,1,143.2,209.586ZM119.494,176l-.022.1a24.372,24.372,0,1,0,47.574.517c-.035-.174-.074-.344-.112-.511l-.051-.206a24.378,24.378,0,0,0-46.938-1.533C119.777,174.893,119.626,175.443,119.494,176Z" transform="translate(-78.231 -104.345)"/><path class="an" d="M346.759,185.414a26.146,26.146,0,1,1-51.6-5.989h0c.148-.627.321-1.247.508-1.854a26.152,26.152,0,0,1,50.4,1.854h0c.045.183.084.37.125.553A26.326,26.326,0,0,1,346.759,185.414Z" transform="translate(-199.836 -108.092)"/><path class="an" d="M316.881,209.583a27.955,27.955,0,0,1-27.228-34.1h0l.048-.2c.154-.668.337-1.333.543-1.986a27.923,27.923,0,0,1,53.817,1.983l.048.2.087.4a27.955,27.955,0,0,1-27.312,33.713ZM293.174,176l-.022.093a24.372,24.372,0,1,0,47.574.517c-.035-.173-.074-.344-.112-.511l-.051-.206a24.378,24.378,0,0,0-46.938-1.533C293.457,174.893,293.3,175.443,293.174,176Z" transform="translate(-196.104 -104.345)"/><path class="ao" d="M358.379,178.35s11.969,22.258-5.237,36.286c0,0-8.6,7.48-27.682,3.74l7.294,4.675,12.345,1.5,14.536-5.944,7.159-12.946.935-8.419-.562-6.918-5.225-8.419Z" transform="translate(-220.871 -121.043)"/><path d="M179.588,211.388a1.25,1.25,0,0,1-1.234-1.057,15.4,15.4,0,0,0-30.426,0,1.25,1.25,0,0,1-2.471-.386,17.9,17.9,0,0,1,35.367,0,1.25,1.25,0,0,1-1.041,1.427,1.38,1.38,0,0,1-.2.016Z" transform="translate(-98.696 -132.235)"/><path d="M355.743,211.373a1.25,1.25,0,0,1-1.234-1.057,15.4,15.4,0,0,0-30.429,0,1.25,1.25,0,0,1-2.468-.386,17.9,17.9,0,0,1,35.364,0,1.244,1.244,0,0,1-1.041,1.427A1.285,1.285,0,0,1,355.743,211.373Z" transform="translate(-218.254 -132.219)"/><path d="M315.971,209.589a27.955,27.955,0,0,1-27.228-34.1h0l.048-.2c.154-.668.337-1.333.543-1.986a27.926,27.926,0,0,1,53.821,1.983l.045.2.087.4a27.935,27.935,0,0,1-27.312,33.713Zm-23.707-33.584-.022.093a24.372,24.372,0,1,0,47.574.517c-.035-.173-.074-.344-.112-.511l-.048-.206a24.378,24.378,0,0,0-46.938-1.533C292.538,174.9,292.4,175.449,292.264,176.005Z" transform="translate(-195.487 -104.351)"/><path class="ap" d="M155.662,170.64s-10.189,2.545-15.025,11.2S155.662,170.64,155.662,170.64Z" transform="translate(-94.92 -115.81)"/><path class="ap" d="M330.032,170.64s-10.189,2.545-15.025,11.2S330.032,170.64,330.032,170.64Z" transform="translate(-213.262 -115.81)"/></g></g></svg>