<svg xmlns="http://www.w3.org/2000/svg" xmlns:xlink="http://www.w3.org/1999/xlink" width="201.5" height="204.775" viewBox="0 0 201.5 204.775"><defs><style>.a{opacity:0.3;}.b{fill:#d3b092;}.c{fill:url(#a);}.d{fill:url(#b);}.e{fill:url(#c);}.f{fill:url(#d);}.g{fill:url(#e);}.h{fill:url(#f);}.i{fill:url(#g);}.j{fill:url(#h);}.k{fill:url(#i);}.l{fill:url(#j);}.m{fill:url(#k);}.n{fill:url(#l);}.o{fill:url(#m);}.p{fill:url(#n);}.q{fill:url(#o);}.r{fill:url(#p);}.s{fill:url(#q);}.t{fill:url(#r);}.u{fill:url(#s);}.v{fill:url(#t);}.w{fill:url(#u);}.x{fill:url(#v);}.y{fill:url(#w);}.z{fill:url(#x);}.aa{fill:url(#y);}.ab{fill:url(#z);}.ac{fill:url(#aa);}.ad{fill:url(#ab);}.ae{fill:url(#ac);}.af{fill:url(#ad);}.ag{fill:url(#ae);}.ah{fill:url(#af);}.ai{fill:#ffc380;}.aj{fill:#ededed;}.ak{fill:#e29764;}.al{fill:#fcede0;}.am{fill:#d3d3d3;}.an{fill:#fff;}.ao{fill:#c1c1c1;}.ap{fill:#f4d5b5;}.aq{fill:#adadad;}.ar{fill:#848484;}.as{fill:#a2a2a2;}.at{fill:url(#ag);}</style><linearGradient id="a" x1="0.003" y1="0.533" x2="1.005" y2="0.533" gradientUnits="objectBoundingBox"><stop offset="0" stop-color="#6ac9c8"/><stop offset="0.14" stop-color="#6cc9c4"/><stop offset="0.28" stop-color="#72cab8"/><stop offset="0.42" stop-color="#7bcca3"/><stop offset="0.57" stop-color="#88cf86"/><stop offset="0.71" stop-color="#99d261"/><stop offset="0.86" stop-color="#aed634"/><stop offset="1" stop-color="#c6da00"/><stop offset="1" stop-color="#d7df23"/></linearGradient><linearGradient id="b" x1="0.018" y1="0.541" x2="1.013" y2="0.541" xlink:href="#a"/><linearGradient id="c" x1="-0.023" y1="0.587" x2="0.977" y2="0.587" gradientUnits="objectBoundingBox"><stop offset="0" stop-color="#ff77ad"/><stop offset="1" stop-color="#9a559f"/></linearGradient><linearGradient id="d" x1="-0.011" y1="0.546" x2="0.988" y2="0.546" gradientUnits="objectBoundingBox"><stop offset="0" stop-color="#ed1846"/><stop offset="0.1" stop-color="#ed204c"/><stop offset="0.24" stop-color="#ee365b"/><stop offset="0.43" stop-color="#ef5a75"/><stop offset="0.64" stop-color="#f08c99"/><stop offset="0.87" stop-color="#f1cbc6"/><stop offset="1" stop-color="#f2f2e2"/></linearGradient><linearGradient id="e" x1="-0.023" y1="0.553" x2="0.98" y2="0.553" xlink:href="#a"/><linearGradient id="f" x1="0.003" y1="0.561" x2="0.999" y2="0.561" xlink:href="#a"/><linearGradient id="g" x1="-0.018" y1="0.575" x2="0.982" y2="0.575" xlink:href="#c"/><linearGradient id="h" x1="0.017" y1="0.581" x2="1.018" y2="0.581" xlink:href="#d"/><linearGradient id="i" x1="-0.019" y1="0.559" x2="0.978" y2="0.559" xlink:href="#a"/><linearGradient id="j" x1="0.002" y1="0.563" x2="1.001" y2="0.563" gradientUnits="objectBoundingBox"><stop offset="0" stop-color="#cce0f4"/><stop offset="0.23" stop-color="#96cced"/><stop offset="0.61" stop-color="#46ade2"/><stop offset="0.87" stop-color="#139adb"/><stop offset="1" stop-color="#0093d8"/></linearGradient><linearGradient id="k" x1="0.02" y1="0.553" x2="1.025" y2="0.553" xlink:href="#a"/><linearGradient id="l" x1="-0.001" y1="0.592" x2="0.997" y2="0.592" xlink:href="#d"/><linearGradient id="m" x1="-0.032" y1="0.574" x2="0.967" y2="0.574" gradientUnits="objectBoundingBox"><stop offset="0" stop-color="#ffe100"/><stop offset="0.11" stop-color="#ffc51b"/><stop offset="0.27" stop-color="#ffa63b"/><stop offset="0.43" stop-color="#ff8d54"/><stop offset="0.61" stop-color="#ff7b65"/><stop offset="0.79" stop-color="#ff7070"/><stop offset="1" stop-color="#ff6d73"/></linearGradient><linearGradient id="n" x1="0.023" y1="0.553" x2="1.02" y2="0.553" xlink:href="#m"/><linearGradient id="o" x1="-0.01" y1="0.663" x2="0.991" y2="0.663" xlink:href="#a"/><linearGradient id="p" x1="-0.006" y1="0.569" x2="0.995" y2="0.569" xlink:href="#a"/><linearGradient id="q" x1="-0.071" y1="0.566" x2="0.926" y2="0.566" xlink:href="#a"/><linearGradient id="r" x1="-0.028" y1="0.612" x2="0.975" y2="0.612" xlink:href="#a"/><linearGradient id="s" x1="0.026" y1="0.685" x2="1.025" y2="0.685" xlink:href="#c"/><linearGradient id="t" x1="-0.05" y1="0.628" x2="0.953" y2="0.628" xlink:href="#m"/><linearGradient id="u" x1="0.044" y1="0.643" x2="1.04" y2="0.643" xlink:href="#j"/><linearGradient id="v" x1="0.037" y1="0.652" x2="1.038" y2="0.652" xlink:href="#c"/><linearGradient id="w" x1="-0.047" y1="0.712" x2="0.952" y2="0.712" xlink:href="#m"/><linearGradient id="x" x1="0.036" y1="0.826" x2="1.037" y2="0.826" xlink:href="#m"/><linearGradient id="y" x1="-0.031" y1="0.782" x2="0.968" y2="0.782" xlink:href="#c"/><linearGradient id="z" x1="-0.068" y1="0.725" x2="0.933" y2="0.725" xlink:href="#j"/><linearGradient id="aa" x1="0.049" y1="0.659" x2="1.047" y2="0.659" xlink:href="#c"/><linearGradient id="ab" x1="0.012" y1="0.666" x2="1.013" y2="0.666" xlink:href="#j"/><linearGradient id="ac" x1="0.023" y1="0.746" x2="1.025" y2="0.746" xlink:href="#j"/><linearGradient id="ad" x1="-0.076" y1="0.845" x2="0.925" y2="0.845" xlink:href="#j"/><linearGradient id="ae" x1="0.048" y1="0.799" x2="1.045" y2="0.799" xlink:href="#m"/><linearGradient id="af" x1="-0.013" y1="0.702" x2="0.988" y2="0.702" xlink:href="#c"/><linearGradient id="ag" x1="0.698" y1="0.056" x2="0.362" y2="1.218" gradientUnits="objectBoundingBox"><stop offset="0" stop-color="#ff1d25"/><stop offset="0.66" stop-color="#ff5d81"/><stop offset="1" stop-color="#ff7bac"/></linearGradient></defs><g class="a" transform="translate(0 11)"><g transform="translate(0 -11)"><ellipse class="b" cx="2.53" cy="2.53" rx="2.53" ry="2.53" transform="translate(74.118 161.645)"/><path d="M223.674,458.049a2.814,2.814,0,1,1,2.814-2.814,2.814,2.814,0,0,1-2.814,2.814Zm0-5.064a2.249,2.249,0,1,0,2.253,2.249,2.249,2.249,0,0,0-2.253-2.249Z" transform="translate(-147.026 -291.06)"/><path d="M472.077,437.6v.294c-.117,1.865-1.063,3.235-2.283,3.3s-2.189-1.13-2.34-3.152a23.507,23.507,0,0,0-4.475-12.267c-2.848-3.931-6.574-5.589-11.434-4.435-3.546.839-7.1,1.671-10.7,2.3-6.351,1.143-11.672-.8-15.6-5.913a10.328,10.328,0,0,1-1.718-4.81c-.237-1.731,1-2.5,2.64-1.842a28.069,28.069,0,0,1,3.573,1.915,9.355,9.355,0,0,1,1.4,1.043c3.921,3.326,7.895,3.907,12.267.669a15.549,15.549,0,0,1,8.216-3.139c5.953-.391,10.295,2.513,13.821,6.986,3.286,4.168,4.653,9.125,5.809,14.162.368,1.608.618,3.239.922,4.86Zm-47.071-25.89a5.719,5.719,0,0,0,1.691,5.5,13.645,13.645,0,0,0,13.212,4.372c3.623-.685,7.21-1.568,10.826-2.3,5.939-1.2,10.629.692,13.941,5.809a25.947,25.947,0,0,1,3.947,12.628,17.778,17.778,0,0,0,.511,2.4c1.594-.969,1.337-2.159,1.106-3.2-.668-2.981-1.4-5.943-2.156-8.9a24.78,24.78,0,0,0-4.168-8.6c-4.091-5.575-10.5-8.5-17.855-4.215-1.427.832-2.871,1.634-4.345,2.386a7.447,7.447,0,0,1-7.52-.07c-1.748-1.023-3.372-2.259-5.084-3.342C427.854,413.356,426.527,412.611,425.006,411.712Z" transform="translate(-278.249 -262.458)"/><path d="M316.591,458.319a19.769,19.769,0,0,1-8.022,17.247c-1.9,1.481-4.028,2.594-6.595,2.142a3.224,3.224,0,0,1-2.831-3.877c.428-3.4,2.34-6.016,4.506-8.476a8.481,8.481,0,0,1,1.788-1.711c2.5-1.534,2.915-3.954,2.958-6.554.033-1.945-.037-3.9.077-5.839a7.882,7.882,0,0,1,.692-2.784,3.11,3.11,0,0,1,2.931-2.035,2.763,2.763,0,0,1,2.794,1.955,71.65,71.65,0,0,1,1.671,7.163A13.446,13.446,0,0,1,316.591,458.319Zm-1.364-3.4c-.334-1.765-.645-3.867-1.23-5.886a2.28,2.28,0,0,0-1.758-1.337,2.952,2.952,0,0,0-1.972,1.337,5.542,5.542,0,0,0-.635,2.483c-.1,1.648-.027,3.306-.064,4.957-.08,3.4-.892,6.31-3.787,8.674-1.868,1.527-3.135,3.887-4.392,6.036-.668,1.133-1.337,2.771-.057,3.911s2.8.424,4.1-.234a15.688,15.688,0,0,0,8.433-10.609A94.1,94.1,0,0,0,315.227,454.923Z" transform="translate(-199.119 -287.072)"/><path d="M40.261,43.182a8.556,8.556,0,0,1-2.37,6.224,27.073,27.073,0,0,1-3.58,3.192c-3.707,2.674-7.47,1.9-10.455-2.005-5.094-6.655.087-16.562,7.447-17.538a5.324,5.324,0,0,1,2.534.448A11.513,11.513,0,0,1,40.261,43.182Zm-2.049.358a9.28,9.28,0,0,0-3.874-7.661,5.822,5.822,0,0,0-3.192-1.464c-3.977-.027-8.383,5.475-7.687,9.426a9.4,9.4,0,0,0,6.735,7.708,4.188,4.188,0,0,0,2.874-.174,8.844,8.844,0,0,0,5.157-7.835Z" transform="translate(-11.744 -15.543)"/><path d="M534.022,152.456c.648,1.708,1.207,3.2,1.775,4.679.334.892.227,1.4-.872,1.651-2.34.528-4.679,1.187-6.992,1.838-1.05.294-1.671.1-1.855-1.086-.191-1.14-.541-2.249-.872-3.57-1.207.267-2.386.445-3.513.8a1.292,1.292,0,0,1-1.885-.979c-.608-2.139-1.22-4.282-1.671-6.461a1.8,1.8,0,0,1,.983-1.407,31.234,31.234,0,0,1,3.851-.872c-.361-1.454-.732-2.848-1.05-4.255-.361-1.581,0-2.186,1.578-2.483,1.909-.358,3.827-.648,5.739-.969a1.5,1.5,0,0,1,1.928,1.427c.2,1.093.471,2.256.742,3.533.929-.15,1.768-.3,2.614-.424,1.557-.227,2.116.13,2.5,1.671.371,1.454.7,2.918,1.043,4.379.2.852,0,1.354-1,1.544A24.455,24.455,0,0,0,534.022,152.456Zm1.541-7.353c-1.126.2-2.089.318-3.008.551a1.383,1.383,0,0,1-1.905-1.21,28.3,28.3,0,0,0-.669-2.814,1.223,1.223,0,0,0-1-.628c-1.8.354-3.573.822-5.5,1.29.291,1.441.521,2.871.876,4.268.287,1.136-.03,1.775-1.2,2.005s-2.427.528-3.7.812c.595,2.173,1.153,4.208,1.748,6.371,1.187-.307,2.306-.558,3.4-.9,1.431-.438,1.812-.271,2.159,1.19.274,1.156.491,2.34.749,3.563l7.019-1.885c-.585-1.491-1.073-2.851-1.651-4.175-.515-1.177-.157-1.825,1.029-2.189.949-.291,1.868-.668,2.764-1-.4-1.862-.745-3.5-1.11-5.264Z" transform="translate(-336.636 -82.6)"/><path d="M182.18,14.848c-.394,1.812-.729,3.165-1.026,4.526-.973,4.435.11,8.058,4.121,10.565a50.314,50.314,0,0,1,4.572,3.118,17.079,17.079,0,0,1,3.172,3.128,3.008,3.008,0,0,1,.027,3.677c-.8,1.076-1.912.859-3.052.585-5.869-1.4-10.769-4.2-13.413-9.86s-1.38-11.06,1.812-16.127c.572-.909,1.5-1.611,2.577-1.106C181.578,13.628,181.912,14.493,182.18,14.848Zm-1.106-.053-.468-.277c-.414.334-.983.572-1.217,1-2.116,3.864-3.586,7.888-2.376,12.367,1.618,6.016,5.936,9.359,11.535,11.277,1.043.354,3.048.381,3.376-.17.692-1.17-.511-2.316-1.517-3.072-1.748-1.31-3.677-2.4-5.368-3.764a22.117,22.117,0,0,1-4.121-4.031c-2.1-2.884-1.618-6.14-.769-9.359C180.495,17.468,180.782,16.131,181.073,14.794Z" transform="translate(-116.595 -7.856)"/><path d="M61,326.337c.311-7.815,3.847-13.6,9.419-18.229a24.113,24.113,0,0,1,5.6-3.3,3,3,0,0,1,4.195,1.447c.692,1.534,0,3.262-1.862,4.155a20.17,20.17,0,0,1-3.931,1.447c-3.754.926-5.174,4.275-5.3,7.54a59.739,59.739,0,0,1-.886,7.617,5.971,5.971,0,0,1-1.3,2.383,2.859,2.859,0,0,1-3.132,1.38,3.706,3.706,0,0,1-2.52-2.794A12.817,12.817,0,0,1,61,326.337Zm2.2-.719a17.943,17.943,0,0,0,.448,2.594c.364,1.18,1.26,1.424,2.072.485a6.647,6.647,0,0,0,1.6-2.854c.475-2.413.668-4.883.949-7.337a8.045,8.045,0,0,1,4.84-7.042c1.317-.592,2.694-1.049,4.028-1.608,1.862-.775,2.694-1.955,2.219-3.082-.5-1.193-2.005-1.467-3.827-.378-7.176,4.278-11.725,10.328-12.323,19.222Z" transform="translate(-40.598 -192.554)"/><path d="M446.3,103.954c-4.586-.027-8.513-2.554-9.776-5.909a4.586,4.586,0,0,1,.117-3.931c3.342-6.377,11.879-7.647,16.655-2.8a7.441,7.441,0,0,1,1.628,8c-.929,2.778-3.172,4.011-5.976,4.345C447.892,103.78,446.836,103.89,446.3,103.954Zm1.066-1.177c.361,0,.9.033,1.431,0,2.166-.147,3.977-1.367,4.432-2.968a7.93,7.93,0,0,0-4.562-9.238c-3.774-1.474-6.685.191-9.312,2.674-1.474,1.38-1.634,2.587-.949,4.472,1.13,3.1,5.585,5.388,8.961,5.057Z" transform="translate(-290.352 -48.688)"/><path d="M184.482,538.625a30.059,30.059,0,0,0,.642,2.948c.314.969-.107,1.36-.946,1.541-1.932.408-3.86.869-5.812,1.146-.371.05-1.08-.575-1.233-1.023a22.077,22.077,0,0,1-.612-3.125c-1.056.3-2.092.552-3.085.906a1.177,1.177,0,0,1-1.748-.939c-.531-2.159-1.029-4.345-1.467-6.511-.217-1.093.2-1.8,1.464-1.778.705,0,1.414-.08,2.229-.137-.231-1.156-.4-2.149-.628-3.125s.251-1.477,1.146-1.634c2.049-.358,4.111-.668,6.16-1.023.892-.157,1.213.217,1.337,1.06.14,1.043.394,2.066.632,3.266,1.461-.4,2.8-.729,4.121-1.14a1.028,1.028,0,0,1,1.5.846c.521,2.005,1.083,4.011,1.551,6.036.231,1,.087,1.765-1.267,1.889A35.827,35.827,0,0,0,184.482,538.625Zm-6.066,4.679c.949-.14,1.711-.247,2.47-.368,3.466-.545,3.506-.555,2.634-3.917-.211-.829-.07-1.173.739-1.337,1.511-.294,3.008-.622,4.539-.939-.6-2.146-1.19-4.228-1.788-6.351-1.374.234-2.7.434-4.011.7-.849.17-1.273-.1-1.417-.966-.16-1-.414-1.962-.635-2.968l-6.157,1.073c.234,1.076.455,2.005.632,2.955.157.826-.06,1.454-1.023,1.571l-2.981.364,1.651,7.083a24.883,24.883,0,0,0,3.2-1.076c1.207-.595,1.591-.094,1.738,1,.127.976.254,1.975.418,3.162Z" transform="translate(-113.276 -339.937)"/><path d="M362.147,66.435a2.391,2.391,0,0,1,2.594,1.337,2.621,2.621,0,0,1-.9,3.149,17.747,17.747,0,0,1-3.693,2.53c-4.552,2.136-6.805,5.856-7.654,10.612-.214,1.193-.668,2.2-1.972,2.366a2.534,2.534,0,0,1-2.657-1.671c-1.113-2.136-.755-4.345-.274-6.544C349.189,70.913,356.566,66.749,362.147,66.435ZM348.838,82.181A14.764,14.764,0,0,0,349.4,84.6a1.354,1.354,0,0,0,1.09.705c.331-.053.685-.622.8-1.029.307-1.06.5-2.156.722-3.239a11.339,11.339,0,0,1,6.351-8.2,30.013,30.013,0,0,0,2.965-1.544,8.6,8.6,0,0,0,2.052-1.818c.792-1,.244-2.2-1-2.079a12.8,12.8,0,0,0-4.856,1.083C352.157,71.408,349.76,76.328,348.838,82.181Z" transform="translate(-231.092 -34.07)"/><path d="M496.077,316.9c4.4.414,9.766,3.072,9.656,8.567a8.814,8.814,0,0,1-8.747,8.69c-4.031-.027-9.045-5.014-8.794-9.024C488.486,320.482,492.36,316.762,496.077,316.9Zm7.353,8.282c0-3.65-3.433-6.818-7.45-6.855-3.169-.03-6.628,3.58-6.638,6.925,0,3.64,3.757,7.41,7.413,7.423,3.824.013,6.658-3.169,6.671-7.494Z" transform="translate(-324.999 -200.835)"/><path d="M363.8,524.606a4.763,4.763,0,0,1-1.156-.2c-5.682-2.2-9.867-6.374-10.258-13.122a21.4,21.4,0,0,1-.191-4.83,11.113,11.113,0,0,1,1.848-3.713,2.35,2.35,0,0,1,2.848-1.223,2.653,2.653,0,0,1,1.638,2.808,9.023,9.023,0,0,1-.334,2.433c-.919,3.075.221,5.5,2.3,7.644,1.421,1.464,2.938,2.838,4.285,4.345a8.513,8.513,0,0,1,1.6,2.724C367.065,523.383,366.055,524.649,363.8,524.606Zm-11.478-16.435.334.207c.1.615.237,1.23.311,1.848.669,5.729,3.767,9.746,8.851,12.247a8.7,8.7,0,0,0,2.961.334,10.412,10.412,0,0,0-1.153-2.674c-1.076-1.3-2.4-2.393-3.6-3.6-2.8-2.814-4.088-6.016-2.814-10.027a6.278,6.278,0,0,0,.127-2.854,1.183,1.183,0,0,0-2.173-.588C354.069,504.672,353.257,506.46,352.321,508.171Z" transform="translate(-234.398 -323.655)"/><path d="M10.354,265.24c1.461-.267,2.764-.525,4.078-.739.839-.137,1.22.277,1.337,1.113.291,2.049.595,4.1,1,6.127.167.829-.067,1.2-.832,1.337-1,.174-2.005.381-3.008.481-.816.077-1.11.458-1,1.233.1.909.157,1.828.294,2.734a1.21,1.21,0,0,1-1.1,1.544q-2.407.531-4.8,1.12c-1.076.264-1.6-.18-1.628-1.227-.033-1.207,0-2.417,0-3.774-1.21.251-2.193.491-3.185.652-1.26.2-1.507-.174-1.447-1.4a40.389,40.389,0,0,0-.09-4.927c-.107-1.477.4-2.2,1.939-2.163a6.2,6.2,0,0,0,1.441-.334c-.257-.929-.538-1.795-.732-2.674s0-1.431,1.053-1.671c1.494-.334,2.931-.936,4.4-1.414,1.337-.438,1.691-.184,1.855,1.247C10.043,263.4,10.207,264.291,10.354,265.24Zm5.622,6.8c-.4-2.286-.785-4.469-1.18-6.732-1.387.334-2.55.638-3.723.9-.772.167-1.417.177-1.524-.936a32.181,32.181,0,0,0-.648-3.309l-4.953,1.671c.371,1.173.739,2.173,1,3.2.237.906,0,1.5-1.13,1.5a17.878,17.878,0,0,0-2.34.274l-.023,5.779,3.2-.772c1.11-.277,1.708.147,1.725,1.29.02,1.21,0,2.417,0,3.75,1.407-.254,2.674-.555,3.957-.692.966-.107,1.066-.618.969-1.394s-.134-1.641-.234-2.46c-.11-.9.237-1.337,1.163-1.434C13.453,272.53,14.679,272.266,15.976,272.042Z" transform="translate(0.041 -163.665)"/><path d="M509.628,45.071c-.638.558-1.263.943-1.905,0-2.7-3.967-5.418-7.918-8.1-11.9-1.233-1.832-.956-2.443,1.247-2.637,3.473-.311,6.956-.528,10.432-.8.575-.043,1.136-.2,1.711-.274,1.384-.187,1.748.207,1.267,1.507-.669,1.768-1.494,3.473-2.072,5.261-.949,2.938-1.751,5.923-2.614,8.887ZM500.7,32.7l7.477,10.659c1.414-3.991,2.751-7.754,4.138-11.668Z" transform="translate(-325.678 -2.986)"/><path d="M408.714,479.438a7.746,7.746,0,0,1-.127,1.156c-.2.772-.625,1.066-1.377.535-3.53-2.49-7.072-4.963-10.6-7.46a2.281,2.281,0,0,1-.595-3.446,31.746,31.746,0,0,1,3.132-4.011c2.052-2.276,4.185-4.475,6.3-6.685,1-1.049,1.594-.919,2.005.461a8.982,8.982,0,0,1,.445,2.27c.231,5.729.421,11.458.622,17.187Zm-2.079-.254.074-18.868-.458-.07c-1.12,1.193-2.31,2.34-3.342,3.586-1.792,2.169-3.51,4.4-5.217,6.635-.612.8-.551,1.484.4,2.179C401.007,474.8,403.871,477.062,406.635,479.184Z" transform="translate(-263.286 -295.329)"/><path d="M62.3,131.94c4.726,0,8.356,2.243,11.424,5.562a7.414,7.414,0,0,1,1.177,1.825c.461.943.836,2.156-.15,2.778a5.693,5.693,0,0,1-2.958.411c-.461,0-.939-.461-1.36-.782a16.682,16.682,0,0,0-8.089-3.282c-2.005-.261-3.533.916-4.786,2.34a6.408,6.408,0,0,1-5.321,2.2c-1.909-.064-2.59-1.183-1.775-2.938a5.485,5.485,0,0,1,1.023-1.574c2.36-2.34,4.372-5.151,7.8-6.09A23.02,23.02,0,0,1,62.3,131.94Zm1.437,1.126C59,133.04,53.233,136.7,51.585,140.126c-.485,1,.1,1.387.832,1.243a9.429,9.429,0,0,0,2.925-1.14c1.083-.635,2.005-1.507,3.048-2.236a5.234,5.234,0,0,1,5.766-.485c2.483,1.28,4.883,2.721,7.393,3.944a3.123,3.123,0,0,0,2.49.164c.949-.595.227-1.621-.237-2.3C71.168,135.446,67.635,133.1,63.741,133.066Z" transform="translate(-33.358 -77.696)"/><path d="M501.507,235.453a3.36,3.36,0,0,1-3.122-1.922c-.725-1.287-1.5-2.617-2.122-3.984-1.374-3.008-3.857-4.3-6.966-4.756-1.213-.177-2.794-.127-3.008-1.691-.247-1.671,1.367-2.005,2.52-2.55a7.465,7.465,0,0,1,7,.308,26.2,26.2,0,0,1,8.6,7.514,10.477,10.477,0,0,1,1.066,2.34C506.357,232.963,504.5,235.537,501.507,235.453Zm-14.4-12.641-.067.6a25.422,25.422,0,0,0,3.677.775c3.035.2,5.408,1.36,6.872,4.124.842,1.588,1.671,3.175,2.577,4.733a2,2,0,0,0,2.473,1.029c1.066-.324,2.1-.953,1.932-2.206a6.826,6.826,0,0,0-1.16-3.3,23.4,23.4,0,0,0-9.456-6.829C491.437,220.717,489.234,221.569,487.108,222.812Z" transform="translate(-323.722 -136.204)"/><path d="M410.874,14.785c-.02,3.79-1.695,6.5-4.539,7.353a2.318,2.318,0,0,1-2.788-.562c-.782-.939-.394-1.771.134-2.674,1.173-2.005.792-4.094.458-6.224a48.246,48.246,0,0,1-.461-5.2,2.534,2.534,0,0,1,.394-1.631c.622-.729,1.417-1.695,2.219-1.775.685-.067,1.721.819,2.179,1.548C410.232,8.391,410.623,11.587,410.874,14.785Zm-1.046.053c-.053-3.57-.552-6.214-1.945-8.607-.311-.538-1-.856-1.534-1.273a8.224,8.224,0,0,0-1.14,1.9,5.587,5.587,0,0,0,0,2.173c.174,1.394.445,2.778.652,4.168a8.775,8.775,0,0,1-.668,5.4,8.653,8.653,0,0,0-.455,2.1,17.549,17.549,0,0,0,2.42-.555,3.04,3.04,0,0,0,1.063-.969A6.6,6.6,0,0,0,409.828,14.839Z" transform="translate(-268.358 -2.709)"/><path d="M185.547,99.552a10.63,10.63,0,0,1-.368,1.511c-.689,1.858-2.323,2.3-3.77.929a5.923,5.923,0,0,1-1.534-2.233,6.544,6.544,0,0,0-3.967-4.165c-1.845-.749-3.456-1.812-4.011-3.907-.408-1.511.137-2.48,1.507-2.744C178.495,87.967,185.681,94.04,185.547,99.552Zm-1.39-1.374c-.191-4.292-5.348-8.72-9.9-8.292-.358.033-.939.231-.983.438a1.391,1.391,0,0,0,.358,1.146,12.545,12.545,0,0,0,2.393,1.618,8.426,8.426,0,0,1,4.629,5.5,4.736,4.736,0,0,0,.668,1.728,8.882,8.882,0,0,0,1.8,1.263,15.647,15.647,0,0,0,1-1.905,4.983,4.983,0,0,0,.03-1.5Z" transform="translate(-114.34 -51.768)"/><path d="M516.005,319.392a19.265,19.265,0,0,0-3.446-8.333c-3.416-4.937-7.634-5.843-12.818-2.818l-.588.334c-.08-.164-.174-.3-.15-.318,3.944-4.028,7.136-5.224,11.421-2.076,3.75,2.754,6.19,6.4,6.351,11.237a9.31,9.31,0,0,1-.388,2.042Z" transform="translate(-332.2 -192.508)"/><path d="M62.5,28.55c1.631.03,2.814,1.253,4.054,2.223a22.845,22.845,0,0,1,3.112,3.065c2.483,2.874,2.239,6.351,2.052,9.817A7.42,7.42,0,0,1,68.4,49.51c-2.1,1.514-4.148,3.082-6.22,4.629l-.374-.421a9.475,9.475,0,0,1,.668-.7c1.932-1.7,3.944-3.312,5.766-5.124a5,5,0,0,0,1.207-2.674c.287-1.671.237-3.389.471-5.07A7.316,7.316,0,0,0,67.917,33.6C66.182,31.882,64.34,30.268,62.5,28.55Z" transform="translate(-38.37 -12.552)"/><path d="M120.056,498.824c.08,3.068-5.555,8.1-8.6,7.688a3.276,3.276,0,0,1-2.674-4.613,7.341,7.341,0,0,1,4.763-4.559c1.153-.334,2.32-.685,3.5-.939A2.4,2.4,0,0,1,120.056,498.824Zm-8.5,6.351c1.969-.033,7.036-4.489,7.377-6.528.127-.742,0-1.273-1-.916-1.818.668-3.733,1.093-5.468,1.915a7.631,7.631,0,0,0-2.781,2.413A2.049,2.049,0,0,0,111.553,505.175Z" transform="translate(-72.213 -320.294)"/><path d="M456.933,41.566a2.1,2.1,0,0,1-.411.839c-.124.11-.592-.087-.856-.237-2.858-1.631-5.719-3.262-8.553-4.94a7.787,7.787,0,0,1-1.294-1.24,6.055,6.055,0,0,1,1.31-1.233c2.052-.983,4.151-1.872,6.237-2.781.872-.381,1.738-.378,1.959.715C455.907,35.576,456.385,38.491,456.933,41.566Zm-8.984-5.428,7.42,4.078c-.388-2.447-.765-4.836-1.16-7.353Z" transform="translate(-296.796 -10.99)"/><path d="M262.8,538.59a15.359,15.359,0,0,1,2.34,1.477,1.814,1.814,0,0,1,.137,2.617c-.882,1.317-1.671,2.674-2.557,4.011a9.641,9.641,0,0,1-1.38,1.671,3.042,3.042,0,0,1-3.423.9,3.112,3.112,0,0,1-1.792-3.342,12.1,12.1,0,0,1,1.3-4.405C258.414,539.563,260.323,538.914,262.8,538.59Zm-3.657,9.75a4.365,4.365,0,0,0,2.547-2.547,19.535,19.535,0,0,1,2.176-3.362c.936-1.143.879-1.778-.495-2.373a3.953,3.953,0,0,0-4.863,2.34,18.643,18.643,0,0,0-1,4.068C257.388,547.394,257.659,548.34,259.143,548.34Z" transform="translate(-170.496 -348.428)"/><path d="M405.127,562.39c-3.185.408-6.976-4.519-6.782-6.992.1-1.26.418-2.483,1.8-2.884s2.046.638,2.868,1.517a27.185,27.185,0,0,0,3.065,2.5c.07.053.191.037.281.07,2.427.872,3.342,1.912,3.052,3.443C409.162,561.307,407.176,562.41,405.127,562.39Zm.177-1.143a2.185,2.185,0,0,0,1.046-.15,18.4,18.4,0,0,0,1.885-1.591,11.859,11.859,0,0,0-1.738-1.715c-1.471-.963-3.025-1.8-4.562-2.674a14.3,14.3,0,0,0-1.541-.668,6.275,6.275,0,0,0-.588,1.688C399.673,558.71,402.347,561.254,405.3,561.247Z" transform="translate(-265.185 -357.639)"/><path d="M264.42,77.754c1.812-2.34,3.57-4.639,5.365-6.909.806-1.023,1.437-1,1.909.12.879,2.1,1.671,4.231,2.413,6.384.261.769.2,1.7-.979,1.621-2.751-.2-5.495-.488-8.242-.755C264.774,78.189,264.681,78,264.42,77.754Zm5.876-6.07-4.221,5.375,6.351.334Z" transform="translate(-176.027 -36.526)"/><path d="M46.64,518.716l10.191-5.846c.17.729.358,1.474.525,2.226.334,1.411.668,2.818.919,4.245.154.9-.294,1.387-1.26,1.247-2.975-.431-5.946-.859-8.917-1.314A9.817,9.817,0,0,1,46.64,518.716Zm10.482.214c-.3-1.551-.585-3.025-.869-4.485L49.8,518.178Z" transform="translate(-31.037 -331.305)"/><path d="M6.722,153.95a4.94,4.94,0,0,1,4.449,1.949c1.073,1.39,1.093,2.527-.11,3.764A17.684,17.684,0,0,1,8.386,161.9a2.35,2.35,0,0,1-3.58-.582,13.036,13.036,0,0,1-1.785-3.3C2.223,155.714,3.757,154.03,6.722,153.95Zm.227,6.458c1.614,0,3.53-1.715,3.486-3.112-.04-1.237-1.6-2.48-3.342-2.37-1.825.117-3.255.752-3.3,2.132a3.461,3.461,0,0,0,3.159,3.362Z" transform="translate(-1.858 -92.333)"/><path d="M297.063,24.158a5.156,5.156,0,0,1-4.773-4.786c0-.575.277-1.481.668-1.651,1.591-.668,3.276-1.538,4.937-1.561,1.541-.02,1.979,1.832,2.383,3.132C301.007,21.621,299.212,24.218,297.063,24.158Zm.107-7.049c-2.34.241-3.556,1.023-3.516,2.092a3.32,3.32,0,0,0,3.593,3.052,2.19,2.19,0,0,0,2.219-2.052C299.4,18.827,298.105,17.089,297.169,17.109Z" transform="translate(-194.581 -0.614)"/><path d="M438.64,480.52a4.5,4.5,0,0,1-.381-.906c-.247-5.923-.495-11.845-.668-17.771,0-.364.418-.742.642-1.113.311.381.852.735.9,1.143a59.488,59.488,0,0,1,.508,6.969c-.037,3.249-.334,6.5-.538,9.743a14.39,14.39,0,0,1-.458,1.935Z" transform="translate(-291.317 -296.592)"/><path d="M480.569,487.692c.04-2.788,1.671-4.9,3.737-4.816,1.571.064,3.342,2.152,3.3,3.867-.067,2.3-2.089,4.562-4.078,4.572C481.836,491.321,480.539,489.734,480.569,487.692Zm5.545-1.5-1.778-2.37a31.032,31.032,0,0,0-2.5,1.942c-.267.247-.287.806-.334,1.233-.1,1.06,0,2.166,1.146,2.55a2.392,2.392,0,0,0,2.8-1.32A9.649,9.649,0,0,0,486.114,486.191Z" transform="translate(-316.241 -310.412)"/><path d="M522.87,380.327a3.689,3.689,0,0,1,4.622-3.416,13.293,13.293,0,0,1,3.109,1.424c1.5.966,2.005,2.306,1.558,3.543a3.385,3.385,0,0,1-3.677,2.022,21.842,21.842,0,0,1-3.653-.846A2.654,2.654,0,0,1,522.87,380.327Zm5.448,2.818.187-.334c.287-.017.645.07.856-.064.7-.445,1.711-.862,1.9-1.494a2.441,2.441,0,0,0-.892-2.156,7.585,7.585,0,0,0-3.556-1.19c-.648-.03-1.544.882-1.935,1.588a2.034,2.034,0,0,0,.461,1.9A17.276,17.276,0,0,0,528.318,383.144Z" transform="translate(-341.634 -239.766)"/><path d="M514.512,67.11c-.19.859-.752,1.865-1,2.968L505.4,62.3c-.11.334-.191.465-.16.5,2.5,2.707,4.99,5.421,7.52,8.1.859.909,1.728.722,2.129-.414.826-2.32,1.534-4.679,2.239-7.039.09-.291-.114-.668-.18-1l-.485-.11Z" transform="translate(-329.894 -24.877)"/><path d="M99.687,327.151c-.511.284-1.029.558-1.541.849-1.337.762-2.731,1.467-4.011,2.316a5.642,5.642,0,0,0-2.57,6.287c.354,1.765.668,3.54-.2,5.221a5.452,5.452,0,0,1-1.758,1.9c2.283-2.467,1.39-5.207.892-7.911-.775-4.228.441-6.35,4.435-7.687,1.514-.5,3.065-.9,4.6-1.337Z" transform="translate(-59.645 -207.42)"/><path d="M202.778,525.884l-1.715-3.74c-1.187.221-2.417.408-3.626.669-1.3.3-2.2.073-2.4-1.434a9.759,9.759,0,0,0-.254-.979c-.224-.966-.668-1.521-1.812-1.337a21.42,21.42,0,0,1-3.042.2,6.628,6.628,0,0,1-1.253-.224l-.017-.622c1.949-.261,3.894-.575,5.853-.722.334-.027.849.6,1.07,1.039a11.068,11.068,0,0,1,.735,2.186.9.9,0,0,0,1.27.742c1.026-.257,2.062-.481,3.092-.725.876-.207,1.554-.023,1.8.939.334,1.263.618,2.534.926,3.8Z" transform="translate(-125.589 -334.519)"/><path d="M51.817,390.389a2.791,2.791,0,0,1,2.5,2.269c.174,1,.334,2.005.475,3.008a3.15,3.15,0,0,1-1.691,3.389c-1.467.545-2.447-.17-3.105-1.394a15.4,15.4,0,0,1-1.414-3.145A3.505,3.505,0,0,1,51.817,390.389Zm1.955,4.853-.261-.191a5.855,5.855,0,0,0-.334-1.812c-.334-.585-1-1.437-1.461-1.394a2.564,2.564,0,0,0-1.939,1.26,3.981,3.981,0,0,0,.374,2.814,8.877,8.877,0,0,0,2.239,1.972Q53.074,396.566,53.772,395.242Z" transform="translate(-32.27 -249.761)"/><path d="M32.419,278.72q.5,1.905,1,3.814c.05.184.023.388.067.578.668,2.981.615,3.038-2.42,3.393-.939.11-1.868.307-2.824.468.214,1.731.455,3.3.562,4.88.027.411-.284,1.14-.592,1.233-1.929.595-3.9,1.056-5.859,1.544-.15.037-.334-.067-.5-.1l-.11-.408,6.073-2.2c-.127-1.337-.244-2.721-.4-4.1-.1-.889.084-1.487,1.123-1.671,1.417-.237,2.814-.6,4.295-.923-.134-2.176-1.2-4.238-.969-6.417Z" transform="translate(-14.46 -175.417)"/><path d="M339.429,81.965c-2.34-6.371,4.011-16.712,9.974-16.227C342.478,69.07,339.917,74.879,339.429,81.965Z" transform="translate(-225.634 -33.61)"/><path d="M309.525,449.587c-.257,3.606-.488,7.213-.8,10.816a3.7,3.7,0,0,1-.669,1.9c-2.032,2.564-4.148,5.057-6.234,7.577l-.418-.261a10.862,10.862,0,0,1,.846-1.628c1.217-1.631,2.45-3.259,3.757-4.82a9.21,9.21,0,0,0,1.909-5.515c.14-2.026.334-4.044.622-6.053a9.666,9.666,0,0,1,.809-2.089Z" transform="translate(-200.653 -289.122)"/><path d="M127.029,104.6a3,3,0,0,1-1.8,3.152,2.35,2.35,0,0,1-2.878-.759c-1.066-1.15-2.1-2.34-1.487-4.094a2.564,2.564,0,0,1,3.774-1.434C126,102.24,127.009,103.3,127.029,104.6Zm-4.345-2.269a4.383,4.383,0,0,0-.856,1.474c-.16.959,1.524,2.834,2.3,2.557a2.483,2.483,0,0,0,1.367-1.548c.214-.993-1.394-2.49-2.824-2.483Z" transform="translate(-80.333 -57.161)"/><path d="M201.29,449.034c1.41-.314,2.811-.7,4.231-.929a9.241,9.241,0,0,0,5.05-2.945,54.6,54.6,0,0,1,4.375-3.817,10.441,10.441,0,0,1,2.126-1l.231.381c-.495.4-1.026.755-1.477,1.2-1.337,1.337-2.774,2.594-3.977,4.044a9.392,9.392,0,0,1-6.722,3.269c-1.253.127-2.513.194-3.774.287Z" transform="translate(-133.997 -283.017)"/><path d="M59.57,460.1c.471-2.3.822-4.185,1.257-6.05.211-.9.705-1.023,1.427-.354,1.31,1.213,2.674,2.373,4.011,3.546.866.755.592,1.417-.3,1.755a54.745,54.745,0,0,1-5.348,1.715C60.292,460.8,59.8,460.242,59.57,460.1Zm1.17-.525,4.081-1.755-3.159-3.212C61.385,456.161,61.084,457.719,60.74,459.574Z" transform="translate(-39.646 -291.626)"/><path d="M173.186,42.611c-5.131-4.138-5.809-10.666-3.637-18.851C168.925,30.391,168.925,36.9,173.186,42.611Z" transform="translate(-112.09 -14.896)"/><path d="M549.959,278.68c2.052,0,4.93,2.965,4.883,4.6a2.308,2.308,0,0,1-3.132,2.039,8.844,8.844,0,0,1-3.075-2.54,3.792,3.792,0,0,1-.02-2.821C548.8,279.362,549.642,278.961,549.959,278.68Zm-.277,2.564c-.157,2.089,1.337,2.266,2.286,2.858a1.77,1.77,0,0,0,1.671-.254c.271-.251.2-1.167-.047-1.6a5.424,5.424,0,0,0-1.578-1.671,2.018,2.018,0,0,0-1.618-.451C549.989,280.3,549.772,281.087,549.682,281.244Z" transform="translate(-359.525 -175.39)"/><path d="M449.719,303.66c1.237,4.566-3.008,15.87-6.989,18.527C446.888,316.692,448.285,310.181,449.719,303.66Z" transform="translate(-294.739 -192.021)"/><path d="M104.978,214.444c-1.822-5.849-3.423-11.7-.047-17.514-.2,2.844-.568,5.732-.558,8.62C104.39,208.515,104.771,211.479,104.978,214.444Z" transform="translate(-68.532 -120.964)"/><path d="M479.78,86.13c3.342.144,5.03,2.2,6.04,4.977,1.143,3.132,1.156,6.173-1.133,8.934a11.717,11.717,0,0,0,.528-7.952C484.322,89.248,481.491,88.219,479.78,86.13Z" transform="translate(-319.405 -47.198)"/><path d="M476.49,169.839c-2.9-4.445-5.712-8.747-8.55-13.1C470.925,158.09,476.844,167.014,476.49,169.839Z" transform="translate(-311.523 -94.207)"/><path d="M465.282,55.218l.027-6.468h.491c.157,1.41.334,2.818.468,4.225.04.388,0,.779.04,1.163.2,2.49-.157,2.8-2.376,1.818-2.029-.892-4.011-1.9-6.016-2.868a1.06,1.06,0,0,1-.6-.839Z" transform="translate(-304.445 -22.312)"/><path d="M453.42,155.32c5.612,3.433,7.547,9.192,10.4,14.289C460.406,164.923,457,160.227,453.42,155.32Z" transform="translate(-301.856 -93.262)"/><path d="M398.668,0c-.064.668,0,.892-.11,1-1.7,1.868-1.554,4.011-1.076,6.27a32.52,32.52,0,0,1,.468,4.883,2.249,2.249,0,0,1-.628,1.467,6.811,6.811,0,0,1-.194-.712c-.287-1.651-.491-3.319-.862-4.947-.5-2.189-.635-4.318.652-6.28A11.641,11.641,0,0,1,398.668,0Z" transform="translate(-263.565)"/><path d="M19.72,147.72a6.2,6.2,0,0,1,5.5,2.858c1.056,2.183.916,4.165-.465,5.371a8.463,8.463,0,0,0,.157-2.1,4.407,4.407,0,0,0-2.005-3.215,23.545,23.545,0,0,1-2.707-2.209A3.87,3.87,0,0,1,19.72,147.72Z" transform="translate(-13.115 -88.172)"/><path d="M457.83,327.781l4.3-11.561C463.408,318.82,460.721,325.94,457.83,327.781Z" transform="translate(-304.792 -200.383)"/><path d="M290.967,90.236h3.239c-.765-1.644-1.481-3.058-2.066-4.522-.15-.378.107-.919.177-1.384.354.267.839.461,1.036.819.8,1.431,1.538,2.9,2.249,4.382.548,1.133.167,1.818-1.1,1.785a35.011,35.011,0,0,1-3.657-.455Z" transform="translate(-193.623 -45.999)"/><path d="M93.66,217.925c-2.908-3.058-3.215-8.627-.531-11.855C92.969,210.288,91.461,214.209,93.66,217.925Z" transform="translate(-60.761 -127.049)"/><path d="M519.593,261.539c-2.764,1.424-4.964-1.337-4.933-5.939C516.24,257.6,516.635,260.547,519.593,261.539Z" transform="translate(-342.626 -160.024)"/><path d="M402.33,546.882a1.383,1.383,0,0,1,1.905-.668c2.116.892,4.145,2.005,6.207,3.008l-.281.669c-1.447-.5-2.908-.979-4.345-1.517C404.7,547.922,403.607,547.42,402.33,546.882Z" transform="translate(-267.842 -353.411)"/><path d="M318.79,21.824c.334-2.737-.949-4.475-2.169-6.257-.187-.274-.1-.739-.14-1.116a2.4,2.4,0,0,1,.906.074c1.644.862,2.895,4.783,2.082,6.464a6.731,6.731,0,0,1-.678.836Z" transform="translate(-210.686 0.526)"/><path d="M479.06,155.1c2.457.608,5.863,4.973,5.217,7.066Z" transform="translate(-318.926 -93.115)"/><path d="M250.151,550.66c.558,2.577,1.09,4.94,1.564,7.313a.859.859,0,0,1-.424.725.919.919,0,0,1-.782-.4A10.716,10.716,0,0,1,250.151,550.66Z" transform="translate(-166.17 -356.464)"/><path d="M81.377,221.635c-1.8-2.691-1.741-4.619.384-6.945C81.628,217.093,81.5,219.363,81.377,221.635Z" transform="translate(-53.308 -132.788)"/><path d="M466.19,333.589c1.086-2.47,2.106-4.78,3.159-7.169C470.067,328.726,468.586,332.149,466.19,333.589Z" transform="translate(-310.357 -207.174)"/><path d="M552.86,272.393a2.748,2.748,0,0,1,2.8-.668,3.5,3.5,0,0,1,2.524,2.955Z" transform="translate(-362.526 -170.668)"/><path d="M487.177,358.485c-1.471-1.982-2.754-4.038-2.557-6.685l.431-.17q1.3,3.342,2.6,6.685Z" transform="translate(-322.614 -223.957)"/><path d="M56.666,454.39c0-1.337-.037-2.674.057-4.011,0-.271.545-.508.836-.759.221.334.668.705.615,1-.224,1.294-.592,2.56-.909,3.837Z" transform="translate(-37.707 -289.195)"/><path d="M361.754,561.533c-1.728.585-4.947-1.5-5.014-3.523Z" transform="translate(-237.49 -361.357)"/><path d="M65.681,388.249c-.869-.668-1.761-1.337-2.587-2.072a.926.926,0,0,1,.03-.829c.311-.124.856-.207,1.029-.03.739.745,1.374,1.591,2.046,2.4Z" transform="translate(-41.936 -246.318)"/><path d="M476,478.4c.929-1.116,1.862-2.229,2.918-3.493.6,1.487-.254,2.534-2.61,3.77Z" transform="translate(-313.2 -305.11)"/><path class="c" d="M427.714,413.44c1.507.9,2.834,1.644,4.111,2.463,1.711,1.1,3.342,2.34,5.084,3.342a7.487,7.487,0,0,0,7.52.07c1.471-.752,2.915-1.554,4.345-2.387,7.33-4.288,13.751-1.36,17.855,4.215a24.782,24.782,0,0,1,4.168,8.6c.759,2.961,1.5,5.923,2.156,8.9.227,1.036.488,2.226-1.106,3.2a17.778,17.778,0,0,1-.511-2.4,25.947,25.947,0,0,0-3.947-12.628c-3.312-5.117-8-7.019-13.941-5.809-3.616.732-7.2,1.614-10.826,2.3a13.645,13.645,0,0,1-13.212-4.372A5.738,5.738,0,0,1,427.714,413.44Z" transform="translate(-280.957 -264.186)"/><path class="d" d="M318.233,457.406a92.445,92.445,0,0,1-1.357,9.309,15.706,15.706,0,0,1-8.433,10.609c-1.307.669-2.838,1.364-4.1.234s-.605-2.778.057-3.911c1.257-2.149,2.523-4.509,4.392-6.036,2.895-2.363,3.707-5.274,3.787-8.674.037-1.651-.037-3.309.064-4.957a5.239,5.239,0,0,1,.635-2.483,2.958,2.958,0,0,1,1.972-1.337A2.324,2.324,0,0,1,317,451.5C317.588,453.538,317.885,455.641,318.233,457.406Z" transform="translate(-202.125 -289.554)"/><path class="e" d="M41.389,46.275a8.844,8.844,0,0,1-5.157,7.835,4.188,4.188,0,0,1-2.874.174,9.352,9.352,0,0,1-6.715-7.708c-.7-3.951,3.7-9.452,7.688-9.426a5.752,5.752,0,0,1,3.192,1.464A9.292,9.292,0,0,1,41.389,46.275Z" transform="translate(-14.908 -18.277)"/><path class="f" d="M538.154,148.434c.364,1.761.705,3.4,1.086,5.248-.9.334-1.815.715-2.764,1-1.187.364-1.544,1-1.029,2.189.578,1.337,1.066,2.674,1.651,4.175l-7.019,1.885c-.257-1.237-.475-2.407-.749-3.563-.334-1.461-.729-1.628-2.159-1.19-1.1.334-2.216.588-3.4.9-.595-2.163-1.153-4.2-1.748-6.371,1.273-.284,2.483-.575,3.7-.812s1.487-.869,1.2-2.005c-.354-1.4-.585-2.828-.876-4.268,1.929-.468,3.7-.936,5.5-1.29a1.223,1.223,0,0,1,1,.628,28.3,28.3,0,0,1,.668,2.814c.241,1,.8,1.487,1.905,1.21C536.051,148.752,537.027,148.635,538.154,148.434Z" transform="translate(-339.227 -85.945)"/><path class="g" d="M183.911,17.447c-.307,1.337-.578,2.674-.926,3.974-.849,3.222-1.337,6.478.769,9.359a22.22,22.22,0,0,0,4.121,4.031c1.7,1.364,3.62,2.453,5.368,3.764,1,.755,2.209,1.9,1.517,3.072-.334.551-2.34.525-3.376.17-5.6-1.915-9.917-5.268-11.535-11.277-1.21-4.489.261-8.513,2.376-12.367.234-.424.8-.668,1.217-1Z" transform="translate(-119.433 -10.509)"/><path class="h" d="M67.6,328.109c.6-8.894,5.131-14.944,12.327-19.222,1.838-1.09,3.342-.816,3.827.378.475,1.126-.358,2.306-2.219,3.082-1.337.558-2.711,1-4.028,1.608A8.1,8.1,0,0,0,72.667,321c-.264,2.453-.475,4.923-.949,7.337a6.647,6.647,0,0,1-1.6,2.854c-.812.939-1.708.7-2.072-.485a17.942,17.942,0,0,1-.448-2.594Z" transform="translate(-44.992 -195.045)"/><path class="i" d="M451.105,106.044c-3.376.334-7.831-1.962-8.961-5.07-.685-1.885-.525-3.092.949-4.472,2.637-2.473,5.538-4.138,9.312-2.674a7.93,7.93,0,0,1,4.562,9.238c-.455,1.6-2.266,2.821-4.432,2.968C452,106.078,451.466,106.044,451.105,106.044Z" transform="translate(-294.089 -51.958)"/><path class="j" d="M180.882,545.857c-.164-1.187-.3-2.186-.435-3.185-.147-1.083-.531-1.584-1.738-1a24.892,24.892,0,0,1-3.2,1.076l-1.651-7.083,2.981-.364c.963-.117,1.18-.745,1.023-1.571-.177-.943-.4-1.878-.632-2.955l6.173-1.083c.221,1,.475,1.979.635,2.968.144.866.568,1.136,1.417.966,1.317-.264,2.644-.465,4.011-.7.6,2.136,1.183,4.218,1.788,6.351-1.524.318-3.028.645-4.539.939-.809.157-.949.5-.739,1.337.872,3.362.832,3.373-2.634,3.917C182.6,545.61,181.832,545.717,180.882,545.857Z" transform="translate(-115.736 -342.503)"/><path class="k" d="M352.24,84.12c.909-5.853,3.319-10.773,8.67-13.7a12.8,12.8,0,0,1,4.857-1.083c1.26-.12,1.808,1.066,1,2.079a8.6,8.6,0,0,1-2.039,1.815,30.008,30.008,0,0,1-2.958,1.558,11.307,11.307,0,0,0-6.351,8.2c-.221,1.083-.414,2.179-.722,3.239-.117.408-.478.976-.8,1.029a1.364,1.364,0,0,1-1.09-.705A13.793,13.793,0,0,1,352.24,84.12Z" transform="translate(-234.494 -36.01)"/><path class="l" d="M505.708,328.035c0,4.325-2.848,7.507-6.685,7.494-3.657,0-7.423-3.784-7.413-7.423,0-3.342,3.469-6.956,6.638-6.925C502.275,321.216,505.721,324.385,505.708,328.035Z" transform="translate(-327.281 -203.685)"/><path class="m" d="M352.77,510.459a58.212,58.212,0,0,1,2.851-5.1,1.183,1.183,0,0,1,2.173.588,6.276,6.276,0,0,1-.127,2.854c-1.273,4.011,0,7.22,2.814,10.027,1.2,1.207,2.527,2.3,3.6,3.6a10.312,10.312,0,0,1,1.153,2.674,9.389,9.389,0,0,1-2.961-.334c-5.084-2.513-8.176-6.524-8.851-12.257-.074-.618-.207-1.233-.311-1.848Z" transform="translate(-234.847 -325.943)"/><path class="n" d="M18.953,273.834c-1.3.224-2.524.488-3.76.632-.926.107-1.273.531-1.163,1.434.1.819.13,1.644.234,2.46s0,1.287-.969,1.394c-1.283.137-2.55.438-3.957.692,0-1.337.03-2.54,0-3.75-.017-1.143-.615-1.568-1.725-1.29l-3.182.779.023-5.779a17.867,17.867,0,0,1,2.34-.274c1.13,0,1.367-.592,1.13-1.5-.267-1.029-.635-2.029-1-3.2l4.953-1.671a32.185,32.185,0,0,1,.648,3.309c.107,1.113.752,1.1,1.524.936,1.173-.257,2.34-.558,3.723-.9C18.167,269.365,18.552,271.548,18.953,273.834Z" transform="translate(-2.936 -165.457)"/><path class="o" d="M504.34,37.293l11.615-1c-1.387,3.914-2.724,7.687-4.138,11.668Z" transform="translate(-329.301 -7.561)"/><path class="p" d="M410.221,482c-2.764-2.122-5.619-4.385-8.553-6.538-.949-.7-1-1.377-.4-2.179,1.708-2.236,3.426-4.465,5.217-6.635,1.039-1.257,2.229-2.393,3.342-3.586l.458.07Z" transform="translate(-266.873 -298.143)"/><path class="q" d="M66.305,135.31c3.894.037,7.427,2.38,10.061,6.25.465.668,1.187,1.7.237,2.3a3.069,3.069,0,0,1-2.49-.164c-2.51-1.223-4.91-2.674-7.393-3.944a5.234,5.234,0,0,0-5.766.485c-1.026.729-1.965,1.6-3.048,2.236a9.43,9.43,0,0,1-2.918,1.14c-.735.144-1.317-.231-.832-1.243C55.8,138.943,61.562,135.283,66.305,135.31Z" transform="translate(-35.923 -79.94)"/><path class="r" d="M488.63,225.727c2.126-1.243,4.328-2.1,6.835-1.073a23.4,23.4,0,0,1,9.456,6.832,6.86,6.86,0,0,1,1.16,3.3c.167,1.253-.852,1.878-1.932,2.206a1.988,1.988,0,0,1-2.473-1.029c-.892-1.558-1.735-3.145-2.577-4.733-1.464-2.764-3.837-3.927-6.872-4.124a26.194,26.194,0,0,1-3.677-.775Z" transform="translate(-325.244 -139.119)"/><path class="s" d="M413.087,16.61a6.646,6.646,0,0,1-1.611,4.345,3.04,3.04,0,0,1-1.063.969,17.547,17.547,0,0,1-2.413.541,8.653,8.653,0,0,1,.455-2.1,8.824,8.824,0,0,0,.669-5.4c-.207-1.39-.478-2.774-.652-4.168a5.587,5.587,0,0,1,0-2.173,8.224,8.224,0,0,1,1.14-1.9c.525.418,1.223.735,1.534,1.273C412.536,10.4,413.034,13.04,413.087,16.61Z" transform="translate(-271.617 -4.481)"/><path class="t" d="M187.121,100.205a4.983,4.983,0,0,1-.03,1.5,15.645,15.645,0,0,1-1,1.905,8.612,8.612,0,0,1-1.8-1.263,4.212,4.212,0,0,1-.668-1.728,8.388,8.388,0,0,0-4.629-5.5A12.543,12.543,0,0,1,176.6,93.5a1.39,1.39,0,0,1-.358-1.146c.043-.207.625-.4.983-.438C181.773,91.485,186.93,95.914,187.121,100.205Z" transform="translate(-117.311 -53.795)"/><path class="u" d="M113.232,507.736a2.056,2.056,0,0,1-1.885-3.115,7.631,7.631,0,0,1,2.781-2.413c1.735-.822,3.65-1.26,5.468-1.915,1-.358,1.14.174,1,.916C120.267,503.247,115.2,507.7,113.232,507.736Z" transform="translate(-73.891 -322.855)"/><path class="v" d="M452.19,38.4l6.26-3.259c.394,2.5.772,4.89,1.16,7.353Z" transform="translate(-301.037 -13.251)"/><path class="w" d="M261.883,550.817c-1.484,0-1.755-.946-1.628-1.872a18.646,18.646,0,0,1,1-4.068,3.944,3.944,0,0,1,4.863-2.34c1.374.595,1.431,1.23.495,2.373a19.539,19.539,0,0,0-2.176,3.362A4.42,4.42,0,0,1,261.883,550.817Z" transform="translate(-173.235 -350.905)"/><path class="x" d="M408.219,565.332c-2.958,0-5.632-2.537-5.5-5.084a6.273,6.273,0,0,1,.588-1.688,14.319,14.319,0,0,1,1.541.668c1.537.859,3.092,1.7,4.562,2.674a11.856,11.856,0,0,1,1.738,1.715,18.381,18.381,0,0,1-1.885,1.591A2.557,2.557,0,0,1,408.219,565.332Z" transform="translate(-268.099 -361.723)"/><path class="y" d="M273.578,74.84l2.122,5.682-6.351-.334Z" transform="translate(-179.309 -39.681)"/><path class="z" d="M63.413,522.065l-7.323-.745,6.454-3.74C62.825,519.034,63.109,520.508,63.413,522.065Z" transform="translate(-37.329 -334.441)"/><path class="aa" d="M8.9,162.441A3.454,3.454,0,0,1,5.747,159.1c.047-1.38,1.477-2.005,3.3-2.132,1.741-.11,3.3,1.133,3.342,2.37C12.432,160.727,10.51,162.438,8.9,162.441Z" transform="translate(-3.812 -94.353)"/><path class="ab" d="M299.884,19c.936,0,2.226,1.728,2.3,3.092a2.19,2.19,0,0,1-2.219,2.052,3.318,3.318,0,0,1-3.593-3.052C296.328,20,297.531,19.231,299.884,19Z" transform="translate(-197.296 -2.505)"/><path class="ac" d="M487.914,488.08a9.883,9.883,0,0,1-.669,2.036,2.374,2.374,0,0,1-2.8,1.32c-1.143-.384-1.247-1.491-1.146-2.55.04-.428.06-.986.334-1.233a31.032,31.032,0,0,1,2.5-1.942Z" transform="translate(-318.041 -312.3)"/><path class="ad" d="M532.136,385.439a17.507,17.507,0,0,1-2.985-1.748,2.033,2.033,0,0,1-.461-1.9c.391-.705,1.287-1.618,1.935-1.588a7.585,7.585,0,0,1,3.556,1.19,2.461,2.461,0,0,1,.892,2.156c-.174.612-1.2,1.05-1.9,1.494-.211.134-.568.047-.856.064Z" transform="translate(-345.452 -242.061)"/><path class="ae" d="M56.1,398.143q-.7,1.337-1.39,2.651a9.076,9.076,0,0,1-2.239-1.972,3.981,3.981,0,0,1-.374-2.814,2.573,2.573,0,0,1,1.939-1.26c.451-.043,1.123.809,1.461,1.394a5.323,5.323,0,0,1,.334,1.812Z" transform="translate(-34.599 -252.662)"/><path class="af" d="M124.914,104.79c1.431,0,3.038,1.491,2.814,2.483a2.483,2.483,0,0,1-1.367,1.548c-.779.277-2.463-1.6-2.3-2.557A4.619,4.619,0,0,1,124.914,104.79Z" transform="translate(-82.573 -59.621)"/><path class="ag" d="M63.07,462.237c.334-1.855.632-3.413.923-4.967l3.159,3.212Z" transform="translate(-41.976 -294.288)"/><path class="ah" d="M552.307,284.019c.09-.157.281-.923.719-1.113a2,2,0,0,1,1.618.451,5.425,5.425,0,0,1,1.578,1.671c.247.434.334,1.337.047,1.6a1.77,1.77,0,0,1-1.671.254C553.654,286.285,552.15,286.108,552.307,284.019Z" transform="translate(-362.15 -178.166)"/><path class="ai" d="M160.38,209.757c8.413,4.987,17.063,5.983,26.034,2.493A27.643,27.643,0,0,0,201.388,198.5a28.627,28.627,0,0,0-12.825-38.3c6.244-3.931,26.886-3.9,34.808.12-8.379,4.459-13.8,11.147-15.589,20.486a28.537,28.537,0,0,0,3.3,19.533c5.746,10.549,22.949,20.031,40.015,9.873-.261,1.294-.465,2.423-.715,3.543A51.861,51.861,0,0,1,240.5,234.35c-5.749,7.423-13.523,11.638-22.484,13.647-14.452,3.235-28.133,1.424-40.483-7.233-4.606-3.229-7.851-7.718-10.7-12.524a51.56,51.56,0,0,1-6.267-17.046C160.51,210.793,160.467,210.382,160.38,209.757Zm45.363,8.159c-5.949-.023-11.9-.057-17.852-.063-2.1,0-3.1,1.026-3.128,3.1a21.214,21.214,0,0,0,1.8,8.734c3.53,8.179,15.071,13.132,24,10.846,9.867-2.53,15.766-9.319,16.043-19.052.067-2.477-.866-3.493-3.282-3.509Q214.525,217.944,205.743,217.915Z" transform="translate(-106.761 -94.568)"/><path class="aj" d="M335.647,218.5a25.061,25.061,0,1,1,25.342-24.764A25.114,25.114,0,0,1,335.647,218.5Zm1.751-42.341a19.626,19.626,0,0,0-17.9,12.521,33.41,33.41,0,0,0-1.471,6.1,1.483,1.483,0,0,0,1.39,1.788,1.594,1.594,0,0,0,1.838-1.354,7.091,7.091,0,0,0,.184-.963,17.561,17.561,0,0,1,4.5-9.5c6.3-6.905,16.448-6.949,22.06-.05a14.988,14.988,0,0,1,3.239,9.944c0,1.076.371,1.965,1.624,2.066,1.039.084,1.695-.715,1.768-2.072A17.475,17.475,0,0,0,337.4,176.158Z" transform="translate(-206.931 -101.957)"/><path class="aj" d="M131.809,192.747a25.1,25.1,0,1,1,7.4,17.751,25.059,25.059,0,0,1-7.4-17.751Zm23.731-17.3a17.267,17.267,0,0,0-17.153,14.974,21.932,21.932,0,0,0-.2,3.774,1.575,1.575,0,0,0,1.691,1.688c1.106-.033,1.554-.742,1.631-1.751.033-.468,0-.936.037-1.4.371-8.072,6.638-14.125,14.372-13.874,6.3.2,12.233,4.706,14.5,11.12.511,1.444.712,3.008,1.076,4.492.334,1.32,1.357,1.935,2.363,1.394.949-.508.959-1.4.9-2.323-.632-9.559-9.6-18.012-19.209-18.089Z" transform="translate(-87.739 -101.49)"/><path d="M275.162,342.173c-.231,8.413-4.679,14.626-12.28,17.785a27.6,27.6,0,0,1-3.753,1.247,21.8,21.8,0,0,1-13.152-1.12c-4.816-1.922-8.964-5.348-10.843-9.716a21.2,21.2,0,0,1-1.8-8.73c.027-2.076,1.029-3.1,3.128-3.1,5.953,0,11.9.04,17.852.06,5.856.023,11.7.037,17.571.074C274.3,338.694,275.229,339.7,275.162,342.173Z" transform="translate(-155.327 -215.243)"/><path d="M351.667,191.65a17.488,17.488,0,0,1,17.24,18.483c-.074,1.357-.729,2.156-1.768,2.072-1.253-.1-1.638-1-1.624-2.066a15.006,15.006,0,0,0-3.239-9.944c-5.619-6.9-15.766-6.855-22.06.05a17.561,17.561,0,0,0-4.5,9.5,7.085,7.085,0,0,1-.184.963,1.588,1.588,0,0,1-1.838,1.354,1.48,1.48,0,0,1-1.39-1.788,33.408,33.408,0,0,1,1.471-6.1A19.6,19.6,0,0,1,351.667,191.65Z" transform="translate(-221.2 -117.449)"/><path d="M168.214,190.91c9.606.077,18.577,8.53,19.2,18.089.06.919.05,1.815-.9,2.323-1,.541-2.042-.074-2.363-1.394a45.775,45.775,0,0,0-1.076-4.492c-2.263-6.414-8.2-10.92-14.5-11.12-7.724-.251-13.991,5.8-14.372,13.874-.023.468,0,.936-.037,1.4-.077,1-.545,1.718-1.631,1.751a1.577,1.577,0,0,1-1.691-1.688,21.93,21.93,0,0,1,.2-3.774,17.267,17.267,0,0,1,17.163-14.974Z" transform="translate(-100.407 -116.956)"/><path class="ak" d="M345.946,315.608s-.782,22.19-30.546,35.319l3.747,1.451s10.418-3.342,12.948-3.6,14.4-13.443,14.4-13.443l7.654-16,2.286-8.991Z" transform="translate(-209.967 -196.468)"/><path class="al" d="M181.44,336.27s7.226,21.391,24.082,26.248a26.8,26.8,0,0,1-17.685-8.226C181.627,347.815,181.44,336.27,181.44,336.27Z" transform="translate(-120.782 -213.731)"/><path class="am" d="M219.291,178.35s21.939,30.175-15.071,47.462l11.03-.8,7.464-5.034,7.754-8.406,1.969-10.395-1.611-11.244-2.741-4.228-4.389-5.348Z" transform="translate(-135.948 -108.594)"/><path class="am" d="M397.945,179.05s22.394,30.178-15.375,47.462l11.25-.8,7.611-5.027,7.9-8.406,2.005-10.4L409.7,190.625l-2.784-4.238-4.482-5.348Z" transform="translate(-254.687 -109.06)"/><path class="ak" d="M242.12,156.093s18.861-4.425,31.753,2.674l3.677-1.671,1.979-2.8-6.464-1.15L263.237,150l-16.889,2.173L241,154.121Z" transform="translate(-160.435 -89.72)"/><path class="an" d="M316.276,211.84s-5.605-4.242,6.264-19.66C322.539,192.173,316.366,202.622,316.276,211.84Z" transform="translate(-209.67 -117.802)"/><path class="an" d="M137.276,211.84s-5.605-4.242,6.264-19.66C143.539,192.173,137.366,202.622,137.276,211.84Z" transform="translate(-90.499 -117.802)"/><path d="M238.249,180.228a28.08,28.08,0,0,1-8.145,18.811,4.5,4.5,0,0,0-1.156,2.263,62.329,62.329,0,0,1-7.236,21.568c-5.986,10.508-14.61,17.581-26.268,20.773-15.3,4.188-29.955,2.781-43.672-5.585-6.016-3.677-10.2-9.008-13.741-14.957a55.536,55.536,0,0,1-7.24-21.545,5.816,5.816,0,0,0-1.594-3.292c-7.444-8.356-9.723-17.992-6.127-28.591,3.58-10.542,11.21-16.785,22.14-18.911a27.387,27.387,0,0,1,11.03.267,4.011,4.011,0,0,0,2.159-.184,58.2,58.2,0,0,1,43.077.137,4.3,4.3,0,0,0,2.293.224C221.771,147.523,238.339,160.97,238.249,180.228ZM134.427,202.766c.087.625.13,1.036.2,1.441a51.56,51.56,0,0,0,6.267,17.046c2.831,4.806,6.076,9.3,10.7,12.524,12.367,8.657,26.031,10.468,40.483,7.233,8.961-2.005,16.735-6.224,22.484-13.647a51.861,51.861,0,0,0,9.883-20.592c.251-1.12.455-2.249.715-3.543-17.066,10.158-34.27.668-40.015-9.873a28.541,28.541,0,0,1-3.3-19.533c1.788-9.339,7.21-16.027,15.589-20.485-7.921-4.011-28.564-4.051-34.808-.12a28.625,28.625,0,0,1,12.825,38.3,27.587,27.587,0,0,1-14.974,13.747C151.49,208.749,142.84,207.753,134.427,202.766Zm75.1,1.354a25.061,25.061,0,1,0-24.8-25.3A25.135,25.135,0,0,0,209.524,204.12Zm-84.646-25.285A25.1,25.1,0,1,0,149.9,153.78,25.1,25.1,0,0,0,124.878,178.835Z" transform="translate(-80.808 -87.577)"/><path class="ao" d="M155.548,408.123q-8.784-.03-17.571-.07c-2.417-.017-3.342-1.033-3.282-3.509.267-9.716,6.167-16.5,16.043-19.035,8.924-2.286,20.465,2.674,24,10.846a21.214,21.214,0,0,1,1.8,8.734c-.027,2.072-1.029,3.1-3.128,3.1C167.447,408.183,161.5,408.147,155.548,408.123Z" transform="translate(-89.659 -246.141)"/><path d="M173.128,408.05h0c-4.175,0-8.416-.023-12.521-.04l-5.331-.023-4.653-.017q-6.457-.02-12.918-.053a3.491,3.491,0,0,1-2.647-.846,3.743,3.743,0,0,1-.775-2.808c.264-9.619,6.147-16.6,16.14-19.165,9.158-2.34,20.673,2.858,24.159,10.926a21.177,21.177,0,0,1,1.815,8.79C176.367,406.99,175.3,408.05,173.128,408.05Zm-17.855-.334,5.348.023c4.1.017,8.356.037,12.517.04h0c2.005,0,2.958-.943,2.985-2.958a20.863,20.863,0,0,0-1.795-8.69c-3.433-7.952-14.79-13.085-23.828-10.766-9.863,2.53-15.669,9.419-15.926,18.9a3.437,3.437,0,0,0,.7,2.6,3.23,3.23,0,0,0,2.443.762q6.461.037,12.922.053Z" transform="translate(-89.385 -245.864)"/><path class="ap" d="M189,458.113q3.209,0,6.421.027c.886,0,1.227.378,1.2,1.28-.1,3.553-2.253,6.033-5.859,6.959-3.262.836-7.48-.976-8.774-3.964a7.738,7.738,0,0,1-.668-3.192,1,1,0,0,1,1.143-1.133Q185.738,458.1,189,458.113Z" transform="translate(-120.702 -294.834)"/><path d="M188,466.059c-3.149,0-6.484-1.862-7.624-4.506a8.356,8.356,0,0,1-.705-3.423,1.536,1.536,0,0,1,1.7-1.671H185.9l3.81.017,4.613.017a1.8,1.8,0,0,1,1.337.465,1.848,1.848,0,0,1,.424,1.4c-.1,3.76-2.393,6.491-6.284,7.487A7.191,7.191,0,0,1,188,466.059Zm-6.625-8.493c-.455,0-.575.12-.582.578a7.156,7.156,0,0,0,.615,2.961c1.163,2.7,5.034,4.435,8.115,3.643,3.416-.876,5.348-3.159,5.438-6.427a.943.943,0,0,0-.11-.585.826.826,0,0,0-.531-.12l-4.609-.02H185.9l-4.526-.017Z" transform="translate(-119.603 -293.749)"/><path class="an" d="M142.62,408.751a4.448,4.448,0,0,1,.033-.468l.047-.424c.033-.281.074-.555.12-.826.087-.548.2-1.083.334-1.614a23.259,23.259,0,0,1,1-3.115,19.6,19.6,0,0,1,3.319-5.552,16.713,16.713,0,0,1,4.963-3.921A19.667,19.667,0,0,1,158.369,391a19.141,19.141,0,0,0-5.485,2.554,16.709,16.709,0,0,0-2.263,1.925,16.376,16.376,0,0,0-1.825,2.29,17.624,17.624,0,0,0-2.256,5.314,21.058,21.058,0,0,0-.485,2.838c-.047.475-.077.949-.087,1.424v1.036a1.282,1.282,0,0,0,.02.3Z" transform="translate(-94.937 -250.168)"/><ellipse class="aq" cx="2.53" cy="2.32" rx="2.53" ry="2.32" transform="translate(63.713 134.087)"/><path d="M192.824,375.32a2.464,2.464,0,1,1,2.674-2.453A2.578,2.578,0,0,1,192.824,375.32Zm0-4.639a2.2,2.2,0,1,0,2.4,2.186A2.291,2.291,0,0,0,192.824,370.681Z" transform="translate(-126.581 -236.46)"/><path class="ar" d="M198.974,372.08a2.22,2.22,0,0,1,1.039.705,1.721,1.721,0,0,1,.428,1.3,1.628,1.628,0,0,1-.247.668,2.106,2.106,0,0,1-.465.491,2.585,2.585,0,0,1-1.16.481c.284-.311.572-.575.792-.862a1.748,1.748,0,0,0,.411-.866,1.708,1.708,0,0,0-.2-.936,7.906,7.906,0,0,0-.6-.983Z" transform="translate(-132.186 -237.572)"/><path class="an" d="M192.315,374.507a1.4,1.4,0,0,1,0-.725,1.387,1.387,0,0,1,.391-.669,1.21,1.21,0,0,1,.705-.3,1.371,1.371,0,0,1,.371.017,1.673,1.673,0,0,1,.334.114c-.12.03-.234.04-.334.063a1.758,1.758,0,0,0-.314.087,1.376,1.376,0,0,0-.518.3,2.7,2.7,0,0,0-.635,1.12Z" transform="translate(-127.99 -238.054)"/><path class="as" d="M217.46,388.37s10.726,13.634,4.034,22.093h7.019a2.771,2.771,0,0,0,3.008-2.072c.722-2.407-.668-8.022-1.527-9.436S227.457,391.923,217.46,388.37Z" transform="translate(-144.763 -248.418)"/><rect width="57.93" height="1.407" rx="0.704" transform="translate(35.874 161.925)"/><path d="M172.263,407.627h0c-4.175,0-8.419-.02-12.521-.04l-5.348-.02-4.649-.017q-6.461-.023-12.922-.057a3.869,3.869,0,0,1-2.948-.973,4.133,4.133,0,0,1-.892-3.112c.271-9.823,6.267-16.953,16.455-19.566,9.359-2.393,21.094,2.928,24.653,11.17a21.542,21.542,0,0,1,1.848,8.961C175.923,406.363,174.646,407.627,172.263,407.627Zm-17.855-1.187,5.348.023c4.1.017,8.356.037,12.517.04h0c1.775,0,2.54-.762,2.56-2.544a20.408,20.408,0,0,0-1.755-8.5c-3.342-7.778-14.483-12.795-23.34-10.525a21.4,21.4,0,0,0-11.327,6.641,18.668,18.668,0,0,0-4.282,11.865,3.151,3.151,0,0,0,.575,2.3,2.889,2.889,0,0,0,2.146.632q6.457.037,12.918.053Z" transform="translate(-88.519 -245.02)"/><path class="at" d="M288.076,389.331a27.607,27.607,0,0,1-3.754,1.247,21.8,21.8,0,0,1-13.152-1.12,8.657,8.657,0,0,1,6.685-6.725,4.6,4.6,0,0,1,.548.859,4.53,4.53,0,0,1,.4,1.153l.541,3.008a.1.1,0,0,0,.2,0l.541-3.008a4.559,4.559,0,0,1,.986-2.086,8.64,8.64,0,0,1,7.019,6.685Z" transform="translate(-180.521 -244.616)"/><path d="M234.345,336.16s-3.159.394-4.345,4.345Z" transform="translate(-153.111 -213.658)"/><path d="M349,336.16s3.159.394,4.345,4.345Z" transform="translate(-232.337 -213.658)"/></g></g></svg>